<?xml version="1.0" encoding="utf-8"?>
<!-- Generator: Adobe Illustrator 24.1.2, SVG Export Plug-In . SVG Version: 6.00 Build 0)  -->
<svg version="1.1" id="Layer_1" xmlns="http://www.w3.org/2000/svg" xmlns:xlink="http://www.w3.org/1999/xlink" x="0px" y="0px"
	 viewBox="0 0 24 24" style="enable-background:new 0 0 24 24;" xml:space="preserve">
<style type="text/css">
	.st0{fill:#41454A;}
</style>
<path class="st0" d="M22,21.2L13.8,0.5H7.9l1,2.6L1.8,21.2c-0.3,0.9-1,1-1.8,1.2v1.2h6.8v-1.2l0,0l0,0l0,0l0,0C5,22.2,3.9,22,4.7,20
	c0.1-0.1,0.7-1.6,1.3-3.4h8.4l1.2,3c0.1,0.5,0.3,0.9,0.3,1.3c0,1-0.9,1.4-2.6,1.4v1.2H24v-1.2C23.1,22.2,22.3,22,22,21.2z M6.8,14.4
	c1.3-3.3,2.8-7.1,3.3-8.5l3.4,8.5H6.8z"/>
</svg>
