<?xml version="1.0" encoding="utf-8"?>
<!-- Generator: Adobe Illustrator 24.1.2, SVG Export Plug-In . SVG Version: 6.00 Build 0)  -->
<svg version="1.1" id="Layer_1" xmlns="http://www.w3.org/2000/svg" xmlns:xlink="http://www.w3.org/1999/xlink" x="0px" y="0px"
	 viewBox="0 0 24 24" style="enable-background:new 0 0 24 24;" xml:space="preserve">
<style type="text/css">
	.st0{fill:#3DDC84;}
</style>
<path class="st0" d="M24,19H0c0.2-2.2,1-4.3,2.2-6.1c0.9-1.4,2.2-2.6,3.7-3.5l0.4-0.2l-2-3.4C4.1,5.5,4.2,5.2,4.4,5.1
	C4.7,4.9,5,5,5.1,5.2c0,0,0,0,0,0l2.1,3.5c1.5-0.6,3.2-0.9,4.8-0.9c1.6,0,3.2,0.3,4.8,0.9l2.1-3.5C19,5,19.3,4.9,19.5,5.1
	c0,0,0,0,0,0c0.2,0.1,0.3,0.5,0.2,0.7l-2,3.4l0.5,0.3c1.5,0.9,2.7,2.2,3.6,3.6C23,14.9,23.7,16.9,24,19z M16.5,14.5c0,0.6,0.4,1,1,1
	s1-0.4,1-1s-0.4-1-1-1S16.5,14,16.5,14.5z M5.5,14.5c0,0.6,0.4,1,1,1s1-0.4,1-1s-0.4-1-1-1S5.5,14,5.5,14.5z"/>
</svg>
