<?xml version="1.0" encoding="utf-8"?>
<!-- Generator: Adobe Illustrator 24.1.2, SVG Export Plug-In . SVG Version: 6.00 Build 0)  -->
<svg version="1.1" id="Layer_1" xmlns="http://www.w3.org/2000/svg" xmlns:xlink="http://www.w3.org/1999/xlink" x="0px" y="0px"
	 viewBox="0 0 107.1 119.9" style="enable-background:new 0 0 107.1 119.9;" xml:space="preserve">
<style type="text/css">
	.st0{filter:url(#Adobe_OpacityMaskFilter);}
	.st1{fill-rule:evenodd;clip-rule:evenodd;fill:#FFFFFF;}
	.st2{mask:url(#android-studio-b_1_);fill:#7CB342;}
	.st3{filter:url(#Adobe_OpacityMaskFilter_1_);}
	.st4{mask:url(#android-studio-d_1_);fill:#8BC34A;}
	.st5{filter:url(#Adobe_OpacityMaskFilter_2_);}
	.st6{opacity:0.2;mask:url(#android-studio-f_1_);fill:#FFFFFF;enable-background:new    ;}
	.st7{filter:url(#Adobe_OpacityMaskFilter_3_);}
	.st8{opacity:0.2;mask:url(#android-studio-h_1_);fill:#263238;enable-background:new    ;}
	.st9{filter:url(#Adobe_OpacityMaskFilter_4_);}
	.st10{mask:url(#android-studio-j_1_);}
	.st11{fill:#263238;fill-opacity:5.000000e-02;}
	.st12{fill:#FFFFFF;fill-opacity:5.000000e-02;}
	.st13{filter:url(#Adobe_OpacityMaskFilter_5_);}
	.st14{mask:url(#android-studio-l_1_);}
	.st15{fill:url(#SVGID_1_);}
	.st16{fill:url(#SVGID_2_);}
	.st17{filter:url(#Adobe_OpacityMaskFilter_6_);}
	.st18{mask:url(#android-studio-p_1_);}
	.st19{fill:#646464;}
	.st20{filter:url(#Adobe_OpacityMaskFilter_7_);}
	.st21{mask:url(#android-studio-r_1_);}
	.st22{fill:#E1E1E1;}
	.st23{fill:#FFFFFF;fill-opacity:0.4;}
	.st24{fill:#262626;fill-opacity:0.2;}
	.st25{fill:#F1F1F1;}
	.st26{fill:none;}
	.st27{opacity:0.2;fill:#FFFFFF;enable-background:new    ;}
	.st28{fill:#FFFFFF;fill-opacity:0.2;}
	.st29{opacity:0.2;fill:#262626;enable-background:new    ;}
	.st30{fill:url(#SVGID_3_);fill-opacity:0.1;}
</style>
<g>
	<g transform="translate(41.316 58)">
		<defs>
			<filter id="Adobe_OpacityMaskFilter" filterUnits="userSpaceOnUse" x="-41.1" y="-58" width="106.9" height="53.7">
				<feColorMatrix  type="matrix" values="1 0 0 0 0  0 1 0 0 0  0 0 1 0 0  0 0 0 1 0"/>
			</filter>
		</defs>
		<mask maskUnits="userSpaceOnUse" x="-41.1" y="-58" width="106.9" height="53.7" id="android-studio-b_1_">
			<g class="st0">
				<path id="android-studio-a_1_" class="st1" d="M54.7,50.4l-8-13.8c11.6-9.9,19-24.5,19-41C65.8-34,41.8-58,12.3-58
					s-53.4,24-53.4,53.7c0,16.4,7.4,31.2,19,41l-8,13.8c-0.2,0.4-0.4,0.9-0.4,1.4l-0.7,9c0,0.3,0.1,0.6,0.4,0.8
					c0.3,0.2,0.6,0.1,0.9-0.1l7.5-5.1c0.4-0.3,0.7-0.6,1-1l7.5-13.1c7.7,4.4,16.7,6.9,26.2,6.9c9.5,0,18.5-2.5,26.2-6.9l7.5,13.1
					c0.2,0.4,0.6,0.8,1,1l7.5,5.1c0.3,0.2,0.6,0.2,0.9,0c0.3-0.2,0.4-0.5,0.4-0.8l-0.7-9C55.1,51.4,55,50.9,54.7,50.4z"/>
			</g>
		</mask>
		<path class="st2" d="M12.3-58c-29.5,0-53.4,24-53.4,53.7H65.8C65.8-34,41.9-58,12.3-58L12.3-58z"/>
		<defs>
			<filter id="Adobe_OpacityMaskFilter_1_" filterUnits="userSpaceOnUse" x="-41.1" y="-4.3" width="106.9" height="53.7">
				<feColorMatrix  type="matrix" values="1 0 0 0 0  0 1 0 0 0  0 0 1 0 0  0 0 0 1 0"/>
			</filter>
		</defs>
		<mask maskUnits="userSpaceOnUse" x="-41.1" y="-4.3" width="106.9" height="53.7" id="android-studio-d_1_">
			<g class="st3">
				<path id="android-studio-c_1_" class="st1" d="M54.7,50.4l-8-13.8c11.6-9.9,19-24.5,19-41C65.8-34,41.8-58,12.3-58
					s-53.4,24-53.4,53.7c0,16.4,7.4,31.2,19,41l-8,13.8c-0.2,0.4-0.4,0.9-0.4,1.4l-0.7,9c0,0.3,0.1,0.6,0.4,0.8
					c0.3,0.2,0.6,0.1,0.9-0.1l7.5-5.1c0.4-0.3,0.7-0.6,1-1l7.5-13.1c7.7,4.4,16.7,6.9,26.2,6.9c9.5,0,18.5-2.5,26.2-6.9l7.5,13.1
					c0.2,0.4,0.6,0.8,1,1l7.5,5.1c0.3,0.2,0.6,0.2,0.9,0c0.3-0.2,0.4-0.5,0.4-0.8l-0.7-9C55.1,51.4,55,50.9,54.7,50.4z"/>
			</g>
		</mask>
		<path class="st4" d="M12.3-4.3h-53.4c0,29.6,24,53.7,53.4,53.7s53.4-24,53.4-53.7L12.3-4.3L12.3-4.3z"/>
		<defs>
			<filter id="Adobe_OpacityMaskFilter_2_" filterUnits="userSpaceOnUse" x="-41.1" y="-58" width="106.9" height="54">
				<feColorMatrix  type="matrix" values="1 0 0 0 0  0 1 0 0 0  0 0 1 0 0  0 0 0 1 0"/>
			</filter>
		</defs>
		<mask maskUnits="userSpaceOnUse" x="-41.1" y="-58" width="106.9" height="54" id="android-studio-f_1_">
			<g class="st5">
				<path id="android-studio-e_1_" class="st1" d="M54.7,50.4l-8-13.8c11.6-9.9,19-24.5,19-41C65.8-34,41.8-58,12.3-58
					s-53.4,24-53.4,53.7c0,16.4,7.4,31.2,19,41l-8,13.8c-0.2,0.4-0.4,0.9-0.4,1.4l-0.7,9c0,0.3,0.1,0.6,0.4,0.8
					c0.3,0.2,0.6,0.1,0.9-0.1l7.5-5.1c0.4-0.3,0.7-0.6,1-1l7.5-13.1c7.7,4.4,16.7,6.9,26.2,6.9c9.5,0,18.5-2.5,26.2-6.9l7.5,13.1
					c0.2,0.4,0.6,0.8,1,1l7.5,5.1c0.3,0.2,0.6,0.2,0.9,0c0.3-0.2,0.4-0.5,0.4-0.8l-0.7-9C55.1,51.4,55,50.9,54.7,50.4z"/>
			</g>
		</mask>
		<path class="st6" d="M12.3-57.4c29.4,0,53.3,23.9,53.4,53.4v-0.3C65.8-34,41.8-58,12.3-58c-29.5,0-53.4,24-53.4,53.7V-4
			C-40.9-33.5-17.1-57.4,12.3-57.4L12.3-57.4z"/>
		<defs>
			<filter id="Adobe_OpacityMaskFilter_3_" filterUnits="userSpaceOnUse" x="-41.1" y="-4.7" width="106.9" height="54">
				<feColorMatrix  type="matrix" values="1 0 0 0 0  0 1 0 0 0  0 0 1 0 0  0 0 0 1 0"/>
			</filter>
		</defs>
		<mask maskUnits="userSpaceOnUse" x="-41.1" y="-4.7" width="106.9" height="54" id="android-studio-h_1_">
			<g class="st7">
				<path id="android-studio-g_1_" class="st1" d="M54.7,50.4l-8-13.8c11.6-9.9,19-24.5,19-41C65.8-34,41.8-58,12.3-58
					s-53.4,24-53.4,53.7c0,16.4,7.4,31.2,19,41l-8,13.8c-0.2,0.4-0.4,0.9-0.4,1.4l-0.7,9c0,0.3,0.1,0.6,0.4,0.8
					c0.3,0.2,0.6,0.1,0.9-0.1l7.5-5.1c0.4-0.3,0.7-0.6,1-1l7.5-13.1c7.7,4.4,16.7,6.9,26.2,6.9c9.5,0,18.5-2.5,26.2-6.9l7.5,13.1
					c0.2,0.4,0.6,0.8,1,1l7.5,5.1c0.3,0.2,0.6,0.2,0.9,0c0.3-0.2,0.4-0.5,0.4-0.8l-0.7-9C55.1,51.4,55,50.9,54.7,50.4z"/>
			</g>
		</mask>
		<path class="st8" d="M12.3,48.7c-29.4,0-53.3-23.9-53.4-53.4v0.3c0,29.6,24,53.7,53.4,53.7S65.8,25.2,65.8-4.4v-0.3
			C65.6,24.8,41.8,48.7,12.3,48.7L12.3,48.7z"/>
		<defs>
			<filter id="Adobe_OpacityMaskFilter_4_" filterUnits="userSpaceOnUse" x="-47.3" y="-5" width="119.3" height="1.3">
				<feColorMatrix  type="matrix" values="1 0 0 0 0  0 1 0 0 0  0 0 1 0 0  0 0 0 1 0"/>
			</filter>
		</defs>
		<mask maskUnits="userSpaceOnUse" x="-47.3" y="-5" width="119.3" height="1.3" id="android-studio-j_1_">
			<g class="st9">
				<path id="android-studio-i_1_" class="st1" d="M54.7,50.4l-8-13.8c11.6-9.9,19-24.5,19-41C65.8-34,41.8-58,12.3-58
					s-53.4,24-53.4,53.7c0,16.4,7.4,31.2,19,41l-8,13.8c-0.2,0.4-0.4,0.9-0.4,1.4l-0.7,9c0,0.3,0.1,0.6,0.4,0.8
					c0.3,0.2,0.6,0.1,0.9-0.1l7.5-5.1c0.4-0.3,0.7-0.6,1-1l7.5-13.1c7.7,4.4,16.7,6.9,26.2,6.9c9.5,0,18.5-2.5,26.2-6.9l7.5,13.1
					c0.2,0.4,0.6,0.8,1,1l7.5,5.1c0.3,0.2,0.6,0.2,0.9,0c0.3-0.2,0.4-0.5,0.4-0.8l-0.7-9C55.1,51.4,55,50.9,54.7,50.4z"/>
			</g>
		</mask>
		<g class="st10">
			<path class="st11" d="M-47.3-5H72v0.6H-47.3V-5z"/>
			<path class="st12" d="M-47.3-4.3H72v0.6H-47.3V-4.3z"/>
		</g>
		<defs>
			<filter id="Adobe_OpacityMaskFilter_5_" filterUnits="userSpaceOnUse" x="-22.1" y="-34.3" width="86.3" height="83.7">
				<feColorMatrix  type="matrix" values="1 0 0 0 0  0 1 0 0 0  0 0 1 0 0  0 0 0 1 0"/>
			</filter>
		</defs>
		<mask maskUnits="userSpaceOnUse" x="-22.1" y="-34.3" width="86.3" height="83.7" id="android-studio-l_1_">
			<g class="st13">
				<path id="android-studio-k_1_" class="st1" d="M54.7,50.4l-8-13.8c11.6-9.9,19-24.5,19-41C65.8-34,41.8-58,12.3-58
					s-53.4,24-53.4,53.7c0,16.4,7.4,31.2,19,41l-8,13.8c-0.2,0.4-0.4,0.9-0.4,1.4l-0.7,9c0,0.3,0.1,0.6,0.4,0.8
					c0.3,0.2,0.6,0.1,0.9-0.1l7.5-5.1c0.4-0.3,0.7-0.6,1-1l7.5-13.1c7.7,4.4,16.7,6.9,26.2,6.9c9.5,0,18.5-2.5,26.2-6.9l7.5,13.1
					c0.2,0.4,0.6,0.8,1,1l7.5,5.1c0.3,0.2,0.6,0.2,0.9,0c0.3-0.2,0.4-0.5,0.4-0.8l-0.7-9C55.1,51.4,55,50.9,54.7,50.4z"/>
			</g>
		</mask>
		<g class="st14">
			
				<linearGradient id="SVGID_1_" gradientUnits="userSpaceOnUse" x1="-482.017" y1="474.7818" x2="-481.3277" y2="474.0684" gradientTransform="matrix(86.283 0 0 -83.707 41574.457 39728.8516)">
				<stop  offset="0.33" style="stop-color:#263238;stop-opacity:0.16"/>
				<stop  offset="1" style="stop-color:#263238;stop-opacity:0"/>
			</linearGradient>
			<path class="st15" d="M50.8-4.2L50.8-4.2l-2.5-0.1l-29.8-30H6.2v10H3c-3.1,0-5.6,2.5-5.6,5.6v12.7h0c0,0.4,0.2,1,0.8,1.6
				c0,0,0,0,0,0.1l1.9,2l-22.4,39c2.6,2.2,5.3,4.1,8.3,5.8c7.8,4.4,16.7,6.9,26.2,6.9c9.5,0,18.5-2.5,26.2-6.9
				c2.9-1.7,5.7-3.6,8.3-5.8C54.8,30,60.7,21,63.6,11c0.2-0.6,0.3-1.3,0.5-1.9L50.8-4.2z"/>
			
				<linearGradient id="SVGID_2_" gradientUnits="userSpaceOnUse" x1="-482.1763" y1="474.3447" x2="-481.6144" y2="474.551" gradientTransform="matrix(86.283 0 0 -83.707 41574.457 39728.8516)">
				<stop  offset="0.33" style="stop-color:#263238;stop-opacity:0.16"/>
				<stop  offset="1" style="stop-color:#263238;stop-opacity:0"/>
			</linearGradient>
			<path class="st16" d="M50.8-4.2L50.8-4.2l-2.5-0.1l-29.8-30H6.2v10H3c-3.1,0-5.6,2.5-5.6,5.6v12.7h0c0,0.4,0.2,1,0.8,1.6
				c0,0,0,0,0,0.1l1.9,2l-22.4,39c2.6,2.2,5.3,4.1,8.3,5.8c7.8,4.4,16.7,6.9,26.2,6.9c9.5,0,18.5-2.5,26.2-6.9
				c2.9-1.7,5.7-3.6,8.3-5.8C54.8,30,60.7,21,63.6,11c0.2-0.6,0.3-1.3,0.5-1.9L50.8-4.2z"/>
		</g>
		<defs>
			<filter id="Adobe_OpacityMaskFilter_6_" filterUnits="userSpaceOnUse" x="-32.2" y="-35.3" width="90" height="98.9">
				<feColorMatrix  type="matrix" values="1 0 0 0 0  0 1 0 0 0  0 0 1 0 0  0 0 0 1 0"/>
			</filter>
		</defs>
		<mask maskUnits="userSpaceOnUse" x="-32.2" y="-35.3" width="90" height="98.9" id="android-studio-p_1_">
			<g class="st17">
				<path id="android-studio-o_1_" class="st1" d="M54.7,50.4l-8-13.8c11.6-9.9,19-24.5,19-41C65.8-34,41.8-58,12.3-58
					s-53.4,24-53.4,53.7c0,16.4,7.4,31.2,19,41l-8,13.8c-0.2,0.4-0.4,0.9-0.4,1.4l-0.7,9c0,0.3,0.1,0.6,0.4,0.8
					c0.3,0.2,0.6,0.1,0.9-0.1l7.5-5.1c0.4-0.3,0.7-0.6,1-1l7.5-13.1c7.7,4.4,16.7,6.9,26.2,6.9c9.5,0,18.5-2.5,26.2-6.9l7.5,13.1
					c0.2,0.4,0.6,0.8,1,1l7.5,5.1c0.3,0.2,0.6,0.2,0.9,0c0.3-0.2,0.4-0.5,0.4-0.8l-0.7-9C55.1,51.4,55,50.9,54.7,50.4z"/>
			</g>
		</mask>
		<g class="st18">
			<g transform="translate(9.23 22.439)">
				<g style="opacity:0.2;enable-background:new    ;">
					
						<image style="overflow:visible;" width="364" height="400" xlink:href="1D960A20.png"  transform="matrix(0.2472 0 0 0.2472 -41.3899 -57.7681)">
					</image>
				</g>
				<path class="st19" d="M45.9,29.4c0-0.5-0.2-0.9-0.4-1.4L30,1c7.2-7,11.7-16.9,11.7-27.8h-10c0,7.1-2.6,13.7-6.9,18.7l-9.6-16.7
					l1.9-2c0.6-0.6,0.9-1.2,0.9-1.7h0v-12.7c0-3.1-2.5-5.6-5.6-5.6H9.3v-10H-3.1v10h-3.2c-3.1,0-5.6,2.5-5.6,5.6v12.7h0
					c0,0.5,0.2,1,0.9,1.7l1.9,2L-39.3,28c-0.2,0.4-0.4,0.9-0.4,1.4l-0.7,9.1c0,0.3,0.1,0.6,0.4,0.8c0.3,0.2,0.6,0.1,0.9-0.1l7.5-5.1
					c0.4-0.3,0.7-0.6,1-1l15-26.1C-9.9,10.3-3.4,12,3.1,12c6.6,0,13-1.7,18.8-4.9l15,26c0.2,0.4,0.6,0.8,1,1l7.5,5.1
					c0.3,0.2,0.6,0.2,0.9,0c0.3-0.2,0.4-0.5,0.4-0.8L45.9,29.4L45.9,29.4z M3.1-41.8L3.1-41.8L3.1-41.8c4.1,0,7.5,3.4,7.5,7.5
					c0,4.1-3.4,7.5-7.4,7.5h0c-4.1,0-7.4-3.4-7.4-7.5C-4.3-38.4-1-41.8,3.1-41.8L3.1-41.8z M3.1,1.9c-4.8,0-9.5-1.2-13.7-3.6l9-15.7
					l1.9,1.9C1-14.7,2-14.3,3-14.3v0l0,0c1,0,2-0.4,2.8-1.2l1.9-1.9l9,15.8C12.8,0.6,8.1,1.9,3.1,1.9L3.1,1.9z"/>
			</g>
		</g>
		<defs>
			<filter id="Adobe_OpacityMaskFilter_7_" filterUnits="userSpaceOnUse" x="-31.2" y="-34.3" width="87.1" height="96.2">
				<feColorMatrix  type="matrix" values="1 0 0 0 0  0 1 0 0 0  0 0 1 0 0  0 0 0 1 0"/>
			</filter>
		</defs>
		<mask maskUnits="userSpaceOnUse" x="-31.2" y="-34.3" width="87.1" height="96.2" id="android-studio-r_1_">
			<g class="st20">
				<path id="android-studio-q_1_" class="st1" d="M54.7,50.4l-8-13.8c11.6-9.9,19-24.5,19-41C65.8-34,41.8-58,12.3-58
					s-53.4,24-53.4,53.7c0,16.4,7.4,31.2,19,41l-8,13.8c-0.2,0.4-0.4,0.9-0.4,1.4l-0.7,9c0,0.3,0.1,0.6,0.4,0.8
					c0.3,0.2,0.6,0.1,0.9-0.1l7.5-5.1c0.4-0.3,0.7-0.6,1-1l7.5-13.1c7.7,4.4,16.7,6.9,26.2,6.9c9.5,0,18.5-2.5,26.2-6.9l7.5,13.1
					c0.2,0.4,0.6,0.8,1,1l7.5,5.1c0.3,0.2,0.6,0.2,0.9,0c0.3-0.2,0.4-0.5,0.4-0.8l-0.7-9C55.1,51.4,55,50.9,54.7,50.4z"/>
			</g>
		</mask>
		<g class="st21">
			<path class="st22" d="M55.2,51.9c0-0.5-0.2-0.9-0.4-1.4L39.2,23.4l-5.2-9L24.4-2.3l-7.3,7.4l9,15.8l5,8.6l15,26
				c0.2,0.4,0.6,0.8,1,1l7.5,5.1c0.3,0.2,0.6,0.2,0.9,0c0.3-0.2,0.4-0.5,0.4-0.8L55.2,51.9L55.2,51.9z"/>
			<path class="st23" d="M34,15l5.2,9l15.6,27.1c0.2,0.4,0.4,0.9,0.4,1.4l0.6,8.6c0,0,0-0.1,0-0.2l-0.7-9c0-0.5-0.2-0.9-0.4-1.4
				L39.2,23.4l-5.2-9L24.4-2.3L24.1-2L34,15z"/>
			<path class="st24" d="M55.4,61c-0.3,0.2-0.6,0.1-0.9,0L47,55.9c-0.4-0.3-0.7-0.6-1-1l-15-26l-5-8.6L17.3,4.8l-0.2,0.2l9,15.8
				l5,8.6l15,26c0.2,0.4,0.6,0.8,1,1l7.5,5.1c0.3,0.2,0.6,0.2,0.9,0c0.3-0.2,0.4-0.5,0.4-0.8l0-0.4C55.8,60.7,55.7,60.9,55.4,61z"/>
			<path class="st25" d="M40.9-4.3c0,7.1-2.6,13.7-6.9,18.7c-2.2,2.6-4.9,4.8-7.9,6.4c-4.1,2.3-8.8,3.6-13.8,3.6
				c-4.8,0-9.5-1.2-13.7-3.6l9-15.8L0.3-2.3l-30.4,52.8c-0.2,0.4-0.4,0.9-0.4,1.4l-0.7,9.1c0,0.3,0.1,0.6,0.4,0.8
				c0.3,0.2,0.6,0.1,0.9,0l7.5-5.1c0.4-0.3,0.7-0.6,1-1l15-26.1c5.7,3.2,12.2,4.9,18.8,4.9c6.6,0,13-1.7,18.8-4.9
				c2.9-1.6,5.7-3.7,8.1-6c7.2-7,11.7-16.9,11.7-27.8L40.9-4.3L40.9-4.3z"/>
			<path class="st26" d="M15.1,7c-0.7,0.7-1.7,1.2-2.8,1.2l0,0v0c-1,0-2-0.4-2.8-1.2L7.7,5.1l-9,15.7c4.1,2.3,8.8,3.6,13.7,3.6
				c5,0,9.7-1.3,13.8-3.6L17.1,5L15.1,7L15.1,7z"/>
			<g>
				<path class="st23" d="M-30.1,51.1L0.6-2L0.3-2.3l-30.4,52.8c-0.2,0.4-0.4,0.9-0.4,1.4l-0.7,9.1c0,0,0,0.1,0,0.2l0.6-8.6
					C-30.4,52-30.3,51.5-30.1,51.1z M12.3,25c5,0,9.7-1.3,13.8-3.6c3-1.7,5.6-3.9,7.9-6.4c4.5-5.2,7-11.9,6.9-18.7h9.9
					c0-0.2,0-0.4,0-0.6h-10c0,7.1-2.6,13.7-6.9,18.7c-2.2,2.6-4.9,4.8-7.9,6.4c-4.1,2.3-8.8,3.6-13.8,3.6c-4.9,0-9.5-1.3-13.5-3.5
					l-0.3,0.5C2.7,23.7,7.4,25,12.3,25L12.3,25z"/>
				<path class="st24" d="M-1.4,20.7l9-15.7L7.4,4.8l-9.1,15.8L-1.4,20.7L-1.4,20.7z M39.2,22.7c-2.4,2.3-5.1,4.4-8.1,6
					c-5.7,3.2-12.2,4.9-18.8,4.9c-6.6,0-13-1.7-18.8-4.9l-15,26.1c-0.2,0.4-0.6,0.8-1,1l-7.5,5.1c-0.3,0.2-0.6,0.2-0.9,0.1
					c-0.2-0.1-0.3-0.4-0.4-0.6l0,0.4c0,0.3,0.1,0.6,0.4,0.8c0.3,0.2,0.6,0.1,0.9,0l7.5-5.1c0.4-0.3,0.7-0.6,1-1l15-26.1
					c5.7,3.2,12.2,4.9,18.8,4.9c6.6,0,13-1.7,18.8-4.9c2.9-1.6,5.7-3.7,8.1-6c7.2-7,11.7-16.9,11.7-27.8h0
					C50.7,6.2,46.2,15.9,39.2,22.7z"/>
			</g>
			<path class="st19" d="M21.6-24.3h-3.1v-10H6.2v10H3c-3.1,0-5.6,2.5-5.6,5.6V-6h0c0,0.5,0.2,1,0.9,1.7L9.6,7
				c0.7,0.7,1.7,1.2,2.8,1.2v0l0,0c1,0,2-0.4,2.8-1.2L26.4-4.3C27-4.9,27.2-5.5,27.2-6h0v-12.7C27.2-21.8,24.8-24.3,21.6-24.3z
				 M12.4-4.3L12.4-4.3c-4.1,0-7.5-3.4-7.5-7.5s3.4-7.5,7.4-7.5v-0.1l0,0.1c4.1,0,7.4,3.4,7.4,7.5S16.5-4.4,12.4-4.3L12.4-4.3z"/>
			<path class="st27" d="M18.5-33.7v-0.6H6.1v0.6h6.2H18.5z"/>
			<path class="st28" d="M12.4-5L12.4-5c-4,0-7.3-3.2-7.5-7.2c0,0.1,0,0.2,0,0.3c0,4.1,3.4,7.5,7.4,7.5h0c4.1,0,7.4-3.4,7.4-7.5
				c0-0.1,0-0.2,0-0.3C19.6-8.2,16.4-5,12.4-5z"/>
			<path class="st27" d="M3-23.7h3.2v-0.6H3c-3.1,0-5.6,2.5-5.6,5.6v0.6C-2.6-21.1-0.1-23.7,3-23.7z M21.6-24.3h-3.1v0.6h3.1
				c3.1,0,5.6,2.5,5.6,5.6v-0.6C27.2-21.8,24.8-24.3,21.6-24.3z"/>
			<path class="st29" d="M12.4-19.3L12.4-19.3L12.4-19.3c-4.1,0-7.5,3.4-7.5,7.5c0,0.1,0,0.2,0,0.3c0.2-4,3.5-7.2,7.4-7.2v-0.1
				l0,0.1c4,0,7.2,3.2,7.4,7.2c0-0.1,0-0.2,0-0.3C19.8-16,16.5-19.3,12.4-19.3z"/>
			<path class="st24" d="M26.4-4.9L15.1,6.4c-0.7,0.7-1.7,1.2-2.8,1.2l0,0v0c-1,0-2-0.4-2.8-1.2L-1.7-4.9c-0.6-0.6-0.9-1.2-0.9-1.7
				h0v0.6h0c0,0.5,0.2,1,0.9,1.7L9.6,7c0.7,0.7,1.7,1.2,2.8,1.2v0l0,0c1,0,2-0.4,2.8-1.2L26.4-4.3C27-4.9,27.2-5.5,27.2-6h0v-0.6h0
				C27.2-6.1,27-5.5,26.4-4.9z"/>
			<path class="st26" d="M12.3-4.3L12.3-4.3c4.1,0,7.5-3.4,7.5-7.5s-3.4-7.5-7.4-7.5l0-0.1v0.1c-4.1,0-7.4,3.4-7.4,7.5
				S8.2-4.3,12.3-4.3z"/>
		</g>
	</g>
	
		<radialGradient id="SVGID_3_" cx="-441.5334" cy="534.3215" r="4.8261" gradientTransform="matrix(106.882 0 0 -119.8319 47207.9492 64048.0977)" gradientUnits="userSpaceOnUse">
		<stop  offset="0" style="stop-color:#FFFFFF"/>
		<stop  offset="1" style="stop-color:#FFFFFF;stop-opacity:0"/>
	</radialGradient>
	<path class="st30" d="M96,108.4l-8-13.8c11.6-9.9,19-24.5,19-41C107.1,24,83.1,0,53.6,0S0.2,24.1,0.2,53.7c0,16.4,7.4,31.2,19,41
		l-8,13.8c-0.2,0.4-0.4,0.9-0.4,1.4l-0.7,9c0,0.3,0.1,0.6,0.4,0.8c0.3,0.2,0.6,0.1,0.9-0.1l7.5-5.1c0.4-0.3,0.7-0.6,1-1l7.5-13.1
		c7.7,4.4,16.7,6.9,26.2,6.9c9.5,0,18.5-2.5,26.2-6.9l7.5,13.1c0.2,0.4,0.6,0.8,1,1l7.5,5.1c0.3,0.2,0.6,0.2,0.9,0
		c0.3-0.2,0.4-0.5,0.4-0.8l-0.7-9C96.4,109.4,96.3,108.9,96,108.4z"/>
	<path class="st26" d="M-6,0h119.3v119.8H-6V0z"/>
</g>
</svg>
