<?xml version="1.0" encoding="utf-8"?>
<!-- Generator: Adobe Illustrator 24.1.2, SVG Export Plug-In . SVG Version: 6.00 Build 0)  -->
<svg version="1.1" id="Layer_1" xmlns="http://www.w3.org/2000/svg" xmlns:xlink="http://www.w3.org/1999/xlink" x="0px" y="0px"
	 viewBox="0 0 24 24" style="enable-background:new 0 0 24 24;" xml:space="preserve">
<style type="text/css">
	.st0{fill:#00979D;}
	.st1{fill:#FFFFFF;}
</style>
<circle class="st0" cx="12" cy="12" r="12"/>
<path class="st1" d="M23.4,12c-0.1-3.1-2.6-5.5-5.7-5.5c-0.3,0-0.6,0-0.9,0c-2.4,0.4-4,2.1-4.9,3.4C11,8.7,9.4,6.9,7,6.6
	c-0.3,0-0.6,0-0.9,0C3,6.5,0.5,8.9,0.4,12c0.1,3.1,2.6,5.5,5.7,5.5c0.3,0,0.6,0,0.9-0.1c2.4-0.3,4-2.1,5-3.4c0.9,1.3,2.5,3.1,5,3.4
	c0.3,0,0.6,0,0.9,0C20.8,17.5,23.3,15.1,23.4,12z M6.7,15.5c-0.2,0-0.4,0-0.6,0c-2,0-3.7-1.5-3.7-3.5c0.1-2,1.7-3.6,3.7-3.5
	c0.2,0,0.4,0,0.6,0c2.3,0.3,3.7,2.6,4.2,3.5C10.4,12.9,9,15.2,6.7,15.5L6.7,15.5z M13,12c0.5-0.9,1.9-3.2,4.2-3.5c0.2,0,0.4,0,0.6,0
	c2-0.1,3.7,1.5,3.7,3.5c0,0,0,0,0,0c-0.1,2-1.7,3.6-3.7,3.5c-0.2,0-0.4,0-0.6,0C14.9,15.2,13.5,12.9,13,12L13,12z M4.5,12.6h3.4
	v-1.1H4.5L4.5,12.6L4.5,12.6z M18.1,12.6h1.1v-1.1h-1.2v-1.1H17v1.2h-1.2v1.1H17v1.1h1.1L18.1,12.6L18.1,12.6z"/>
</svg>
