<svg id="Layer_1" data-name="Layer 1" xmlns="http://www.w3.org/2000/svg" viewBox="0 0 480 479.99"><defs><style>.cls-1{fill:#cad9fc;}.cls-2{fill:#428dff;}</style></defs><title>blockchain</title><path class="cls-1" d="M376,120v64l56,32V152Z" transform="translate(-16 -16)"/><path class="cls-1" d="M432,216l56-32V120l-56,32Z" transform="translate(-16 -16)"/><path class="cls-1" d="M256,152l56-32V56L256,88Z" transform="translate(-16 -16)"/><path class="cls-1" d="M256,88,200,56v64l56,32Z" transform="translate(-16 -16)"/><path class="cls-1" d="M24,120v64l56,32V152Z" transform="translate(-16 -16)"/><path class="cls-1" d="M136,152V120L80,152v64l56-32Z" transform="translate(-16 -16)"/><path class="cls-1" d="M256,320l56-32V224l-56,32Z" transform="translate(-16 -16)"/><path class="cls-1" d="M200,224v64l56,32V256Z" transform="translate(-16 -16)"/><path class="cls-1" d="M432,424l56-32V328l-56,32Z" transform="translate(-16 -16)"/><path class="cls-1" d="M376,328v64l56,32V360Z" transform="translate(-16 -16)"/><path class="cls-1" d="M256,424v64l56-32V392Z" transform="translate(-16 -16)"/><path class="cls-1" d="M200,392v64l56,32V424Z" transform="translate(-16 -16)"/><path class="cls-1" d="M80,360v0L24,328v64l56,32,56-32V328Z" transform="translate(-16 -16)"/><path class="cls-2" d="M492,190.94a8,8,0,0,0,4-6.94V120a8,8,0,0,0-4-6.94l-56-32a8,8,0,0,0-7.94,0l-56,32A8,8,0,0,0,368,120v19.06l-48-24V56a8,8,0,0,0-4-6.94l-56-32a8,8,0,0,0-7.94,0l-56,32A8,8,0,0,0,192,56v59.06l-48,24V120a8,8,0,0,0-4-6.94l-56-32a8,8,0,0,0-7.94,0l-56,32A8,8,0,0,0,16,120v64a8,8,0,0,0,4,6.94l52,29.7v70.72l-52,29.7A8,8,0,0,0,16,328v64a8,8,0,0,0,4,6.94l56,32a8,8,0,0,0,7.94,0l51.84-29.6L192,436.44V456a8,8,0,0,0,4,6.94l56,32a8,8,0,0,0,7.94,0l56-32A8,8,0,0,0,320,456V436.44l56.18-35.12L428,430.92a8,8,0,0,0,7.94,0l56-32a8,8,0,0,0,4-6.92V328a8,8,0,0,0-4-6.94l-52-29.7V220.64Zm-52,11.28v-45.6l40-22.86v45.6Zm-8,148.56L392.12,328,432,305.22,471.88,328Zm-48-217,40,22.86v45.6l-40-22.88Zm48-36.56L471.88,120,432,142.78,392.12,120ZM256,414.82,216.12,392,256,369.22,295.88,392Zm-48-177,40,22.86v45.6l-40-22.88Zm56,22.86,40-22.86v45.6l-40,22.86Zm-8-13.86L216.12,224,256,201.22,295.88,224Zm-48-177,40,22.86v45.6l-40-22.88Zm56,22.86,40-22.86v45.6l-40,22.86Zm-8-59.42L295.88,56,256,78.78,216.12,56ZM88,156.64l40-22.86v45.6L88,202.24ZM80,97.22,119.88,120,80,142.78,40.12,120ZM32,133.78l40,22.86v45.6L32,179.36Zm48,217L40.12,328,80,305.22,119.88,328Zm-48-9,40,22.86v45.6L32,387.36Zm56,68.44v-45.6l40-22.86v45.6Zm56-22.66V328a8,8,0,0,0-4-6.94l-52-29.7V220.64l52-29.7a8,8,0,0,0,4-6.94V156.94l55.75-27.87L248,156.64v30.72l-52,29.7a8,8,0,0,0-4,6.94v64a8,8,0,0,0,4,6.94l52,29.7v30.72l-52,29.7a8,8,0,0,0-4,6.94v25.6Zm64,18.22,40,22.86v45.6l-40-22.88Zm56,68.44v-45.6l40-22.86v45.6Zm52-89.16-52-29.7V324.64l52-29.7a8,8,0,0,0,4-6.94V224a8,8,0,0,0-4-6.94l-52-29.7V156.64l48.25-27.57L368,156.94V184a8,8,0,0,0,4,6.94l52,29.7v70.72l-52,29.7a8,8,0,0,0-4,6.94v59.56l-48,30V392A8,8,0,0,0,316,385.06Zm68-43.28,40,22.86v45.6l-40-22.88Zm56,68.44v-45.6l40-22.86v45.6Z" transform="translate(-16 -16)"/></svg>