<?xml version="1.0" encoding="utf-8"?>
<!-- Generator: Adobe Illustrator 24.1.2, SVG Export Plug-In . SVG Version: 6.00 Build 0)  -->
<svg version="1.1" id="Capa_1" xmlns="http://www.w3.org/2000/svg" xmlns:xlink="http://www.w3.org/1999/xlink" x="0px" y="0px"
	 viewBox="0 0 243.1 243.1" style="enable-background:new 0 0 243.1 243.1;" xml:space="preserve">
<style type="text/css">
	.st0{fill-rule:evenodd;clip-rule:evenodd;fill:#2496ED;}
	.st1{fill:#2496ED;}
</style>
<path class="st0" d="M243.1,104.8l-5.1-3.4c-5.5-3.7-18.1-5-27.8-3.2c-1.2-9.1-6.3-17-15.6-24.2l-5.3-3.5l-3.6,5.3
	c-4.5,6.9-6.8,16.4-6.1,25.5c0.5,5,2.1,9.7,4.7,14c-5.7,2.9-12,4.3-18.4,4H0.9l-0.3,1.9c-1.6,9.2-1.5,37.7,17,59.7
	C31.7,197.5,52.9,206,80.5,206c59.8,0,104-27.5,124.7-77.6c8.1,0.2,25.7,0,34.7-17.2c0.2-0.4,0.8-1.4,2.3-4.7L243.1,104.8z
	 M107.8,59.9h25.1V37.1h-25.1V59.9z M107.8,87.3h25.1V64.5h-25.1V87.3z M78.2,87.3h25.1V64.5H78.2V87.3z M48.5,87.3h25.1V64.5H48.5
	V87.3z M18.8,114.7h25.1V91.9H18.8V114.7z M48.5,114.7h25.1V91.9H48.5V114.7z M78.2,114.7h25.1V91.9H78.2V114.7z M107.8,114.7h25.1
	V91.9h-25.1V114.7z M137.5,114.7h25.1V91.9h-25.1L137.5,114.7z"/>
<path class="st1" d="M249.9,304.1c0,1.2-0.9,2.2-2.1,2.2c-1.2,0-2.2-0.9-2.2-2.1c0-1.2,0.9-2.2,2.1-2.2c0,0,0,0,0.1,0
	C248.9,302,249.9,302.9,249.9,304.1C249.9,304.1,249.9,304.1,249.9,304.1z M246.1,304.1c0,0.9,0.7,1.7,1.6,1.7c0,0,0,0,0.1,0
	c0.9,0,1.6-0.7,1.6-1.6c0,0,0,0,0-0.1c0-0.9-0.7-1.7-1.6-1.7c-0.9,0-1.7,0.7-1.7,1.6C246.1,304,246.1,304.1,246.1,304.1z
	 M247.4,305.2h-0.5v-2.1c0.3,0,0.5-0.1,0.8-0.1c0.3,0,0.5,0,0.7,0.2c0.1,0.1,0.2,0.3,0.2,0.5c0,0.2-0.2,0.4-0.4,0.5v0
	c0.2,0.1,0.4,0.3,0.4,0.5c0,0.2,0.1,0.4,0.2,0.5h-0.5c-0.1-0.2-0.1-0.3-0.2-0.5c0-0.2-0.2-0.3-0.4-0.3h-0.2V305.2z M247.4,304h0.2
	c0.3,0,0.5-0.1,0.5-0.3c0-0.2-0.1-0.3-0.5-0.3c-0.1,0-0.2,0-0.3,0V304z"/>
</svg>
