<?xml version="1.0" encoding="utf-8"?>
<!-- Generator: Adobe Illustrator 24.1.2, SVG Export Plug-In . SVG Version: 6.00 Build 0)  -->
<svg version="1.1"
	 id="svg2" xmlns:cc="http://creativecommons.org/ns#" xmlns:dc="http://purl.org/dc/elements/1.1/" xmlns:rdf="http://www.w3.org/1999/02/22-rdf-syntax-ns#" xmlns:svg="http://www.w3.org/2000/svg"
	 xmlns="http://www.w3.org/2000/svg" xmlns:xlink="http://www.w3.org/1999/xlink" x="0px" y="0px" viewBox="0 0 719.3 719.3"
	 style="enable-background:new 0 0 719.3 719.3;" xml:space="preserve">
<style type="text/css">
	.st0{clip-path:url(#SVGID_2_);}
	.st1{fill:#F8BB16;}
	.st2{fill:#EA4334;}
	.st3{fill:#0074BC;}
	.st4{fill:#E2E3E4;}
	.st5{fill:#FFFFFF;}
	.st6{opacity:0.2;clip-path:url(#SVGID_4_);}
	.st7{opacity:0.2;clip-path:url(#SVGID_6_);}
	.st8{fill:#2C3079;}
	.st9{opacity:0.2;clip-path:url(#SVGID_8_);}
	.st10{opacity:0.2;clip-path:url(#SVGID_10_);}
	.st11{fill:#BE3B26;}
	.st12{opacity:0.2;clip-path:url(#SVGID_12_);}
	.st13{fill:#3F2723;}
	.st14{opacity:0.2;clip-path:url(#SVGID_14_);}
	.st15{clip-path:url(#SVGID_16_);}
	.st16{filter:url(#Adobe_OpacityMaskFilter);}
	.st17{fill:url(#path168_2_);}
	.st18{mask:url(#mask166_1_);}
	.st19{fill:url(#path188_1_);}
</style>
<g id="g10" transform="matrix(1.3333333,0,0,-1.3333333,0,1237.3333)">
	<g id="g12">
		<g>
			<defs>
				<rect id="SVGID_1_" x="-731.9" y="-56.1" width="2002.7" height="1237.3"/>
			</defs>
			<clipPath id="SVGID_2_">
				<use xlink:href="#SVGID_1_"  style="overflow:visible;"/>
			</clipPath>
			<g id="g14" class="st0">
				<g id="g20" transform="translate(834.0625,415.8555)">
					<path id="path22" class="st1" d="M-481.6,98.6l-55.2-95.9h-144.5c-12.9,0-24.8,6.9-31.2,18.1l-116.9,203.8
						c-6.4,11.1-6.4,24.7,0,35.8l44.5,77.5l54.9-95.4l82.8-143.9H-481.6z"/>
				</g>
				<g id="g24" transform="translate(1016.25,541.8203)">
					<path id="path26" class="st2" d="M-481.6,98.6l-116.9-203.8c-6.4-11.2-18.3-18.1-31.2-18.1h-89.3l55.2,95.9l82.8,143.9
						l-82.8,143.9h109.9l72.3-126C-475.2,123.3-475.2,109.6-481.6,98.6"/>
				</g>
				<g id="g28" transform="translate(943.9922,703.5703)">
					<path id="path30" class="st3" d="M-481.6,98.6h-275.5l-82.8-143.9l-54.9,95.4l72.4,126.3c6.4,11.2,18.3,18.1,31.2,18.1h233.8
						c12.9,0,24.8-6.9,31.2-18.1L-481.6,98.6z"/>
				</g>
				<g id="g32" transform="translate(834.0625,703.5703)">
					<path id="path34" class="st4" d="M-481.6,98.6l82.8-143.9l-82.8-143.9h-165.6l-82.8,143.9l82.8,143.9H-481.6z"/>
				</g>
				<g id="g36" transform="translate(751.2852,631.6445)">
					<path id="path38" class="st5" d="M-481.6,98.6c39.7,0,71.9-32.2,71.9-71.9c0-39.7-32.2-71.9-71.9-71.9
						c-39.7,0-71.9,32.2-71.9,71.9C-553.5,66.4-521.3,98.6-481.6,98.6"/>
				</g>
				<g id="g40">
					<g id="g42">
					</g>
					<g id="g54">
						<g>
							<defs>
								<rect id="SVGID_3_" x="-19.6" y="727.9" width="550.9" height="194.4"/>
							</defs>
							<clipPath id="SVGID_4_">
								<use xlink:href="#SVGID_3_"  style="overflow:visible;"/>
							</clipPath>
							<g id="g52" class="st6">
								<g id="g50" transform="translate(603.2031,778.4062)">
									<path id="path48" class="st5" d="M-481.6,98.6c6.4,11.2,18.3,18.1,31.2,18.1h233.8c12.9,0,24.8-6.9,31.2-18.1l42.9-74.8
										h1.7l-44.6,77.8c-6.4,11.2-18.3,18.1-31.2,18.1h-233.8c-12.9,0-24.8-6.9-31.2-18.1L-554-24.7l0.9-1.5L-481.6,98.6z"/>
								</g>
							</g>
						</g>
					</g>
				</g>
				<g id="g56">
					<g id="g58">
					</g>
					<g id="g70">
						<g>
							<defs>
								<rect id="SVGID_5_" x="44.4" y="633.8" width="477.7" height="195.8"/>
							</defs>
							<clipPath id="SVGID_6_">
								<use xlink:href="#SVGID_5_"  style="overflow:visible;"/>
							</clipPath>
							<g id="g68" class="st7">
								<g id="g66" transform="translate(585.7031,559.7148)">
									<path id="path64" class="st8" d="M-481.6,98.6l82.8,143.9h275.5l-1.7,3h-273.8l-82.8-143.9"/>
								</g>
							</g>
						</g>
					</g>
				</g>
				<g id="g72">
					<g id="g74">
					</g>
					<g id="g86">
						<g>
							<defs>
								<rect id="SVGID_7_" x="-58.7" y="471" width="469.9" height="323"/>
							</defs>
							<clipPath id="SVGID_8_">
								<use xlink:href="#SVGID_7_"  style="overflow:visible;"/>
							</clipPath>
							<g id="g84" class="st9">
								<g id="g82" transform="translate(486.3203,574.6094)">
									<path id="path80" class="st5" d="M-481.6,98.6l44.5,77.5l54.9-95.4l82.8-143.9h163.8l1.7,3h-165.6l-82.8,143.9l-54.9,95.4
										l-44.5-77.5c-3.4-6-4.9-12.7-4.7-19.4C-486,87.8-484.5,93.5-481.6,98.6"/>
								</g>
							</g>
						</g>
					</g>
				</g>
				<g id="g88">
					<g id="g90">
					</g>
					<g id="g102">
						<g>
							<defs>
								<rect id="SVGID_9_" x="-49.8" y="378.3" width="398.7" height="321.7"/>
							</defs>
							<clipPath id="SVGID_10_">
								<use xlink:href="#SVGID_9_"  style="overflow:visible;"/>
							</clipPath>
							<g id="g100" class="st10">
								<g id="g98" transform="translate(780.625,322.9492)">
									<path id="path96" class="st11" d="M-481.6,98.6h-146.2c-12.9,0-24.8,6.9-31.2,18.1l-116.9,203.8
										c-2.9,5.1-4.4,10.7-4.7,16.4c-0.3-6.7,1.2-13.4,4.7-19.4L-659,113.6c6.4-11.2,18.3-18.1,31.2-18.1h144.5L-481.6,98.6z"/>
								</g>
							</g>
						</g>
					</g>
				</g>
				<g id="g104">
					<g id="g106">
					</g>
					<g id="g122">
						<g>
							<defs>
								<rect id="SVGID_11_" x="257" y="354.6" width="322.8" height="511.5"/>
							</defs>
							<clipPath id="SVGID_12_">
								<use xlink:href="#SVGID_11_"  style="overflow:visible;"/>
							</clipPath>
							<g id="g120" class="st12">
								<g id="g114" transform="translate(918.5508,559.7148)">
									<path id="path112" class="st13" d="M-481.6,98.6l-82.8,143.9h-1.7l82.8-143.9H-481.6z"/>
								</g>
								<g id="g118" transform="translate(1016.25,544.8164)">
									<path id="path116" class="st13" d="M-481.6,98.6l-116.9-203.8c-6.4-11.2-18.3-18.1-31.2-18.1h-87.5l-1.7-3h89.3
										c12.9,0,24.8,6.9,31.2,18.1l116.9,203.8c3.4,6,4.9,12.7,4.7,19.4C-477.1,109.3-478.6,103.7-481.6,98.6"/>
								</g>
							</g>
						</g>
					</g>
				</g>
				<g id="g124">
					<g id="g126">
					</g>
					<g id="g142">
						<g>
							<defs>
								<rect id="SVGID_13_" x="257" y="354.6" width="322.8" height="511.5"/>
							</defs>
							<clipPath id="SVGID_14_">
								<use xlink:href="#SVGID_13_"  style="overflow:visible;"/>
							</clipPath>
							<g id="g140" class="st14">
								<g id="g134" transform="translate(943.9922,700.5742)">
									<path id="path132" class="st5" d="M-481.6,98.6l72.3-126c2.9-5.1,4.4-10.7,4.7-16.4c0.3,6.7-1.2,13.4-4.7,19.4l-72.3,126
										h-109.9l1.7-3"/>
								</g>
								<g id="g138" transform="translate(834.0625,412.8594)">
									<path id="path136" class="st5" d="M-481.6,98.6l84.5,146.9h-1.7l-82.8-143.9l-55.2-95.9h1.7L-481.6,98.6z"/>
								</g>
							</g>
						</g>
					</g>
				</g>
			</g>
		</g>
	</g>
	<g id="g144">
		<g>
			<defs>
				<path id="SVGID_15_" d="M152.8,898c-12.9,0-24.8-6.9-31.2-18.1l0,0L4.8,676.2c-6.4-11.1-6.4-24.7,0-35.8l0,0l116.9-203.8
					c6.4-11.2,18.3-18.1,31.2-18.1l0,0h233.8c12.9,0,24.8,6.9,31.2,18.1l0,0l116.9,203.8c6.4,11.1,6.4,24.7,0,35.8l0,0l-72.3,126
					L417.8,880c-6.4,11.2-18.3,18.1-31.2,18.1l0,0L152.8,898z"/>
			</defs>
			<clipPath id="SVGID_16_">
				<use xlink:href="#SVGID_15_"  style="overflow:visible;"/>
			</clipPath>
			<g id="g146" class="st15">
				<g id="g152">
					<g id="g154">
					</g>
					<defs>
						<filter id="Adobe_OpacityMaskFilter" filterUnits="userSpaceOnUse" x="0" y="-898" width="539.5" height="479.5">
							<feColorMatrix  type="matrix" values="1 0 0 0 0  0 1 0 0 0  0 0 1 0 0  0 0 0 1 0"/>
						</filter>
					</defs>
					<mask maskUnits="userSpaceOnUse" x="0" y="-898" width="539.5" height="479.5" id="mask166_1_">
						<g id="g176_1_" class="st16">
							<g id="g174_1_">
								<g id="g172_1_">
									<g id="g170_1_">
										
											<radialGradient id="path168_2_" cx="-106.4824" cy="187.1458" r="1" gradientTransform="matrix(553.6501 0 0 -553.6501 58891.7734 104064.5156)" gradientUnits="userSpaceOnUse">
											<stop  offset="0" style="stop-color:#FFFFFF;stop-opacity:9.999237e-02"/>
											<stop  offset="1" style="stop-color:#FFFFFF;stop-opacity:0"/>
										</radialGradient>
										<path id="path168_1_" class="st17" d="M-25057.6-23548.7h49151.3v49151.3h-49151.3V-23548.7z"/>
									</g>
								</g>
							</g>
						</g>
					</mask>
					<g id="g178" class="st18">
						<g id="g180">
							
								<radialGradient id="path188_1_" cx="-106.3128" cy="187.4279" r="1" gradientTransform="matrix(738.2001 0 0 738.2001 78557.625 -137493.625)" gradientUnits="userSpaceOnUse">
								<stop  offset="0" style="stop-color:#FFFFFF"/>
								<stop  offset="1" style="stop-color:#FFFFFF"/>
							</radialGradient>
							<path id="path188" class="st19" d="M152.8,898c-12.9,0-24.8-6.9-31.2-18.1l0,0L4.8,676.2c-6.4-11.1-6.4-24.7,0-35.8l0,0
								l116.9-203.8c6.4-11.2,18.3-18.1,31.2-18.1l0,0h233.8c12.9,0,24.8,6.9,31.2,18.1l0,0l116.9,203.8c6.4,11.1,6.4,24.7,0,35.8
								l0,0l-72.3,126L417.8,880c-6.4,11.2-18.3,18.1-31.2,18.1l0,0L152.8,898z"/>
						</g>
					</g>
				</g>
			</g>
		</g>
	</g>
</g>
</svg>
