<?xml version="1.0" encoding="utf-8"?>
<!-- Generator: Adobe Illustrator 24.1.2, SVG Export Plug-In . SVG Version: 6.00 Build 0)  -->
<svg version="1.1" id="Layer_1" xmlns="http://www.w3.org/2000/svg" xmlns:xlink="http://www.w3.org/1999/xlink" x="0px" y="0px"
	 viewBox="0 0 24 24" style="enable-background:new 0 0 24 24;" xml:space="preserve">
<style type="text/css">
	.st0{fill:#F46800;}
</style>
<path class="st0" d="M23,10.6c0-0.4-0.1-0.9-0.2-1.4s-0.3-1.1-0.6-1.7C21.8,7,21.5,6.4,21,5.8c-0.2-0.2-0.4-0.4-0.6-0.7
	C20.7,3.8,20,2.6,20,2.6c-1.3-0.1-2.1,0.4-2.4,0.6c0,0-0.1,0-0.1-0.1C17.2,3.1,17,3,16.7,2.9c-0.2-0.1-0.5-0.1-0.7-0.2
	c-0.2-0.1-0.5-0.1-0.7-0.1c0,0-0.1,0-0.1,0C14.6,0.8,13,0,13,0c-1.9,1.2-2.2,2.8-2.2,2.8s0,0,0,0.1c-0.1,0-0.2,0.1-0.3,0.1
	c-0.1,0-0.3,0.1-0.4,0.1S9.8,3.2,9.6,3.3C9.4,3.4,9.1,3.5,8.8,3.7C8.6,3.8,8.3,4,8.1,4.2c0,0-0.1,0-0.1,0c-2.5-1-4.7,0.2-4.7,0.2
	C3.1,7,4.3,8.6,4.6,8.9C4.5,9.1,4.5,9.2,4.4,9.4C4.2,10,4.1,10.6,4,11.3c0,0.1,0,0.2,0,0.3C1.6,12.7,1,15,1,15
	c1.9,2.2,4.2,2.3,4.2,2.3c0.3,0.5,0.6,1,1,1.4c0.1,0.2,0.3,0.4,0.5,0.6c-0.7,2,0.1,3.7,0.1,3.7c2.2,0.1,3.6-0.9,3.9-1.2l0.6,0.2
	c0.7,0.2,1.3,0.3,2,0.3h0.9c1,1.4,2.8,1.6,2.8,1.6c1.3-1.3,1.3-2.6,1.3-2.9v0v0v-0.1c0.3-0.2,0.5-0.4,0.8-0.6c0.5-0.4,0.9-1,1.3-1.5
	c0,0,0.1-0.1,0.1-0.1c1.4,0.1,2.4-0.9,2.4-0.9c-0.2-1.5-1.1-2.2-1.3-2.3l0,0l0,0l0,0c0-0.1,0-0.2,0-0.3c0-0.2,0-0.3,0-0.5v-0.2v-0.3
	V14c0,0,0-0.1,0-0.1l0-0.3c0-0.2-0.1-0.3-0.1-0.5c-0.1-0.6-0.4-1.2-0.7-1.8c-0.3-0.5-0.7-1-1.2-1.4c-0.5-0.4-1-0.7-1.5-1
	c-0.5-0.2-1.1-0.4-1.7-0.5c-0.3,0-0.6,0-0.9,0h-0.1H15c-0.1,0-0.3,0-0.4,0.1C14,8.5,13.4,8.8,13,9s-0.9,0.6-1.2,1
	c-0.3,0.4-0.6,0.8-0.8,1.3c-0.2,0.4-0.3,0.9-0.3,1.4v0.5c0,0.1,0,0.1,0,0.2c0.1,0.7,0.3,1.3,0.7,1.8c0.3,0.3,0.5,0.6,0.9,0.8
	c0.3,0.2,0.6,0.4,1,0.5s0.7,0.1,1,0.1h0.4c0,0,0.1,0,0.1,0c0,0,0.1,0,0.1,0c0.1,0,0.1,0,0.2-0.1c0.1,0,0.3-0.1,0.4-0.1
	c0.1-0.1,0.2-0.1,0.3-0.2c0,0,0.1,0,0.1-0.1c0.1-0.1,0.1-0.2,0-0.3c0,0,0,0,0,0c-0.1-0.1-0.2-0.1-0.3-0.1c0,0,0,0-0.1,0
	c-0.1,0-0.2,0.1-0.3,0.1c-0.1,0-0.2,0.1-0.3,0.1c-0.1,0-0.1,0-0.2,0h-0.4c0,0,0,0,0,0h-0.1c0,0-0.1,0-0.1,0c-0.2,0-0.5-0.1-0.7-0.2
	s-0.5-0.3-0.7-0.4c-0.2-0.2-0.4-0.4-0.5-0.7s-0.2-0.5-0.3-0.8c0-0.1,0-0.3,0-0.4v-0.1c0,0,0,0,0,0v0v-0.1c0-0.1,0-0.1,0-0.2
	c0.1-0.7,0.4-1.3,0.9-1.7c0.1-0.1,0.3-0.2,0.4-0.3c0.1-0.1,0.3-0.2,0.4-0.3s0.3-0.1,0.5-0.2c0.2,0,0.3-0.1,0.5-0.1
	c0.1,0,0.2,0,0.3,0h0.2c0,0,0,0,0,0h0.1c0.6,0,1.1,0.2,1.6,0.5c0.7,0.4,1.3,1,1.6,1.7c0.2,0.3,0.3,0.7,0.4,1.1c0,0.1,0,0.2,0,0.3
	v0.6c0,0.1,0,0.2,0,0.3c0,0.1,0,0.2,0,0.3l-0.1,0.3c0,0.1-0.1,0.4-0.2,0.6c-0.1,0.2-0.4,0.8-0.6,1.1c-0.5,0.7-1.2,1.3-2,1.6
	c-0.4,0.2-0.8,0.3-1.2,0.4c-0.2,0-0.4,0.1-0.6,0.1h-0.3c0,0,0,0,0,0h0c-0.1,0-0.2,0-0.3,0c-0.5,0-0.9-0.1-1.4-0.3s-0.9-0.3-1.3-0.5
	c-0.8-0.4-1.5-1-2.1-1.7c-0.3-0.4-0.5-0.7-0.7-1.1s-0.4-0.8-0.5-1.3c-0.1-0.4-0.2-0.9-0.2-1.3v-0.5v-0.2c0-0.2,0-0.4,0.1-0.7
	c0-0.2,0.1-0.4,0.1-0.7s0.1-0.4,0.2-0.7S7.9,9.4,8.1,9c0.4-0.8,0.9-1.5,1.4-2.1C9.6,6.8,9.8,6.6,10,6.5c0.1-0.1,0.2-0.2,0.4-0.3
	s0.3-0.2,0.5-0.3c0.1,0,0.2-0.1,0.3-0.1c0,0,0.1,0,0.1-0.1c0,0,0.1,0,0.1-0.1c0.2-0.1,0.4-0.1,0.6-0.2c0,0,0.1,0,0.1,0s0.1,0,0.1,0
	s0.2,0,0.3-0.1c0,0,0.1,0,0.1,0c0,0,0.1,0,0.1,0s0.1,0,0.1,0l0.2,0c0,0,0.1,0,0.1,0c0.1,0,0.1,0,0.2,0c0,0,0.1,0,0.2,0s0.1,0,0.1,0
	H14c0.1,0,0.1,0,0.2,0h0.1c0,0,0,0,0,0H15c0.4,0,0.8,0.1,1.1,0.1c0.7,0.1,1.4,0.4,2,0.7c0.6,0.3,1.2,0.7,1.7,1.1c0,0,0.1,0,0.1,0.1
	c0,0,0.1,0,0.1,0.1c0.1,0,0.1,0.1,0.2,0.1s0.1,0.1,0.2,0.1c0,0.1,0.1,0.1,0.1,0.2c0.6,0.6,1,1.3,1.4,2c0,0,0,0,0,0.1c0,0,0,0,0,0.1
	s0,0.1,0.1,0.1c0,0,0,0.1,0.1,0.1s0,0.1,0.1,0.1c0.1,0.2,0.1,0.4,0.2,0.6c0.1,0.3,0.2,0.6,0.2,0.8c0,0.1,0.1,0.1,0.2,0.1
	c0.1,0,0.2-0.1,0.2-0.2C23,11.2,23,10.9,23,10.6L23,10.6z"/>
</svg>
