<?xml version="1.0" encoding="utf-8"?>
<!-- Generator: Adobe Illustrator 24.1.2, SVG Export Plug-In . SVG Version: 6.00 Build 0)  -->
<svg version="1.1" id="Layer_1" xmlns="http://www.w3.org/2000/svg" xmlns:xlink="http://www.w3.org/1999/xlink" x="0px" y="0px"
	 viewBox="0 0 397 397" style="enable-background:new 0 0 397 397;" xml:space="preserve">
<style type="text/css">
	.st0{filter:url(#Adobe_OpacityMaskFilter);}
	.st1{fill-rule:evenodd;clip-rule:evenodd;fill:#FFFFFF;}
	.st2{mask:url(#mask-5_1_);}
	.st3{fill-rule:evenodd;clip-rule:evenodd;fill:#41BDF5;}
</style>
<desc>Created with Sketch.</desc>
<g id="Page-1">
	<g id="logo-pretty">
		<g id="house-with-large-tree" transform="translate(52.000000, 70.000000)">
			<defs>
				<filter id="Adobe_OpacityMaskFilter" filterUnits="userSpaceOnUse" x="-51.5" y="-51.5" width="397" height="350">
					<feColorMatrix  type="matrix" values="1 0 0 0 0  0 1 0 0 0  0 0 1 0 0  0 0 0 1 0"/>
				</filter>
			</defs>
			<mask maskUnits="userSpaceOnUse" x="-51.5" y="-51.5" width="397" height="350" id="mask-5_1_">
				<g class="st0">
					<path id="path-4_1_" class="st1" d="M-7.3,290.7V157.5h-34.8c-5.2,0-9.3-4.2-9.3-9.3c0-2.5,1-4.8,2.7-6.6L138.7-48.1l0,0
						c4.5-4.6,11.9-4.6,16.5-0.1c0,0,0.1,0.1,0.1,0.1l97.9,98.6V32.3l0,0c0-4.3,3.5-7.8,7.8-7.8h32.5l0,0c4.3,0,7.8,3.5,7.8,7.8
						v66.9l41.6,42.4c3.6,3.7,3.6,9.6-0.1,13.2c-1.7,1.7-4.1,2.7-6.5,2.7h-34.9v133.2c0,4.3-3.5,7.8-7.8,7.8H0.4
						C-3.9,298.5-7.3,295-7.3,290.7L-7.3,290.7z M199.6,127.9c0.9-2,1.5-4.2,1.5-6.5c0-8.3-6.7-15-15-15s-15,6.7-15,15
						c0,8.3,6.7,15,15,15c2.3,0,4.5-0.5,6.5-1.5l21.6,21.5v20.9l-27,27v-19.8c5.8-2.1,10-7.6,10-14.1c0-8.3-6.7-15-15-15
						s-15,6.7-15,15c0,6.5,4.2,12.1,10,14.1v29.8l-25,25V92.6L172.5,72c2,0.9,4.2,1.5,6.5,1.5c8.3,0,15-6.7,15-15s-6.7-15-15-15
						s-15,6.7-15,15c0,2.3,0.5,4.5,1.5,6.5l-18.5,18.5l-18.5-18.5c0.9-2,1.5-4.2,1.5-6.5c0-8.3-6.7-15-15-15s-15,6.7-15,15
						s6.7,15,15,15c2.3,0,4.5-0.5,6.5-1.5l20.6,20.5v104.9l-36.1-36v-28.8c5.8-2.1,10-7.6,10-14.1c0-8.3-6.7-15-15-15s-15,6.7-15,15
						c0,6.5,4.2,12.1,10,14.1v18.8l-28.1-28V95.6c5.8-2.1,10-7.6,10-14.1c0-8.3-6.7-15-15-15s-15,6.7-15,15c0,6.5,4.2,12.1,10,14.1
						v31.9l31,30.9H70.9c-2.1-5.8-7.6-10-14.2-10c-8.3,0-15,6.7-15,15c0,8.3,6.7,15,15,15c6.5,0,12.1-4.2,14.2-10h27.8l43.1,43.1
						v74.9l-23-23v-28.8c5.8-2.1,10-7.6,10-14.1c0-8.3-6.7-15-15-15s-15,6.7-15,15c0,6.5,4.2,12.1,10,14.1v18.8L75.3,220
						c0.9-2,1.5-4.2,1.5-6.5c0-8.3-6.7-15-15-15s-15,6.7-15,15c0,8.3,6.7,15,15,15c2.3,0,4.5-0.5,6.5-1.5l33.5,33.5H84
						c-2.1-5.8-7.6-10-14.2-10c-8.3,0-15,6.7-15,15s6.7,15,15,15c6.5,0,12.1-4.2,14.2-10h27.8l28.1,28H154l29.1-29h26.8
						c2.1,5.8,7.6,10,14.2,10c8.3,0,15-6.7,15-15s-6.7-15-15-15c-6.5,0-12.1,4.2-14.2,10h-31l-27,26.9v-32.9l32.1-32.1h51.9
						c2.1,5.8,7.6,10,14.2,10c8.3,0,15-6.7,15-15c0-8.3-6.7-15-15-15c-6.5,0-12.1,4.2-14.2,10h-41.9l30-29.9v-25l21.6-21.5
						c2,0.9,4.2,1.5,6.5,1.5c8.3,0,15-6.7,15-15c0-8.3-6.7-15-15-15s-15,6.7-15,15c0,2.3,0.5,4.5,1.5,6.5l-14.5,14.5V96.6
						c5.8-2.1,10-7.6,10-14.1c0-8.3-6.7-15-15-15s-15,6.7-15,15c0,6.5,4.2,12.1,10,14.1v45.8L199.6,127.9z M69.8,271.5
						c-3.3,0-6-2.7-6-6s2.7-6,6-6c3.3,0,6,2.7,6,6S73.1,271.5,69.8,271.5z M113.9,226.5c-3.3,0-6-2.7-6-6c0-3.3,2.7-6,6-6s6,2.7,6,6
						C119.9,223.8,117.2,226.5,113.9,226.5z M61.8,219.5c-3.3,0-6-2.7-6-6c0-3.3,2.7-6,6-6c3.3,0,6,2.7,6,6
						C67.8,216.8,65.1,219.5,61.8,219.5z M56.8,169.5c-3.3,0-6-2.7-6-6c0-3.3,2.7-6,6-6s6,2.7,6,6C62.8,166.8,60.1,169.5,56.8,169.5
						z M182,176.5c-3.3,0-6-2.7-6-6s2.7-6,6-6s6,2.7,6,6S185.3,176.5,182,176.5z M250.1,222.5c-3.3,0-6-2.7-6-6c0-3.3,2.7-6,6-6
						s6,2.7,6,6C256.1,219.8,253.4,222.5,250.1,222.5z M224.1,270.5c-3.3,0-6-2.7-6-6s2.7-6,6-6s6,2.7,6,6S227.4,270.5,224.1,270.5z
						 M252.1,127.5c-3.3,0-6-2.7-6-6c0-3.3,2.7-6,6-6s6,2.7,6,6C258.1,124.8,255.4,127.5,252.1,127.5z M219.1,88.5c-3.3,0-6-2.7-6-6
						c0-3.3,2.7-6,6-6s6,2.7,6,6C225.1,85.8,222.4,88.5,219.1,88.5z M179,64.5c-3.3,0-6-2.7-6-6c0-3.3,2.7-6,6-6c3.3,0,6,2.7,6,6
						C185,61.8,182.3,64.5,179,64.5z M114.9,64.5c-3.3,0-6-2.7-6-6c0-3.3,2.7-6,6-6c3.3,0,6,2.7,6,6
						C120.9,61.8,118.2,64.5,114.9,64.5z M62.8,87.5c-3.3,0-6-2.7-6-6c0-3.3,2.7-6,6-6c3.3,0,6,2.7,6,6
						C68.8,84.8,66.1,87.5,62.8,87.5z M100.8,124.5c-3.3,0-6-2.7-6-6c0-3.3,2.7-6,6-6s6,2.7,6,6
						C106.9,121.8,104.2,124.5,100.8,124.5z M186,127.5c-3.3,0-6-2.7-6-6c0-3.3,2.7-6,6-6s6,2.7,6,6
						C192,124.8,189.3,127.5,186,127.5z"/>
				</g>
			</mask>
			<g id="fill_x2F_white-gradient" class="st2">
				<rect id="Rectangle-2_1_" x="-51.5" y="-51.5" class="st3" width="397" height="350"/>
			</g>
		</g>
	</g>
</g>
</svg>
