<svg id="Layer_1" data-name="Layer 1" xmlns="http://www.w3.org/2000/svg" viewBox="0 0 300 300"><defs><style>.cls-1{fill:#e67125}.cls-2{fill:#5482a2}</style></defs><path class="cls-1" d="M222.23 234.51h-1.12v-.62h3v.62H223v3.11h-.77zm6 .16l-1.11 3h-.5l-1.1-3v3h-.73v-3.73h1.08l1 2.64 1-2.64h1.07v3.73h-.72v-3z"/><path class="cls-2" d="M122.54 158.21s-7.74 4.51 5.52 6c16.06 1.84 24.27 1.57 42-1.78a72.88 72.88 0 0 0 11.15 5.45c-39.69 17-89.82-1-58.65-9.7M117.69 136s-8.69 6.43 4.58 7.8c17.17 1.77 30.72 1.92 54.17-2.6a24 24 0 0 0 8.34 5.09c-48 14-101.43 1.11-67.09-10.29"/><path class="cls-1" d="M155.58 97.37c9.78 11.25-2.57 21.39-2.57 21.39s24.83-12.82 13.42-28.87c-10.65-15-18.81-22.41 25.4-48.06 0 0-69.4 17.34-36.25 55.54"/><path class="cls-2" d="M211.07 174.63s5.73 4.73-6.32 8.38c-22.9 6.94-95.34 9-115.47.28-7.23-3.15 6.33-7.52 10.6-8.43a27.39 27.39 0 0 1 7-.79c-8-5.67-52 11.13-22.32 15.94 80.92 13.12 147.51-5.91 126.52-15.38M126.27 113s-36.85 8.75-13 11.93c10 1.34 30.08 1 48.74-.52 15.25-1.29 30.56-4 30.56-4a64.85 64.85 0 0 0-9.27 5c-37.42 9.85-109.7 5.27-88.89-4.8 17.6-8.51 31.91-7.54 31.91-7.54M192.37 150c38-19.77 20.45-38.76 8.17-36.2a28.33 28.33 0 0 0-4.35 1.16 7 7 0 0 1 3.25-2.5c24.29-8.54 43 25.18-7.84 38.53a3.32 3.32 0 0 0 .77-1"/><path class="cls-1" d="M169.43 1.43s21.07 21.07-20 53.47c-32.92 26-7.51 40.82 0 57.75-19.21-17.34-33.31-32.59-23.85-46.8C139.47 45 177.93 34.9 169.43 1.43"/><path class="cls-2" d="M130 203.53c36.51 2.33 92.57-1.3 93.9-18.58 0 0-2.55 6.55-30.17 11.75-31.17 5.87-69.6 5.18-92.4 1.43 0 0 4.67 3.86 28.67 5.4"/><path class="cls-1" d="M124 269.54c-3.44 3-7.08 4.66-10.34 4.66-4.66 0-7.18-2.79-7.18-7.27 0-4.85 2.7-8.4 13.52-8.4h4v11m9.51 10.72v-33.18c0-8.48-4.84-14.08-16.5-14.08a43.54 43.54 0 0 0-17.62 3.83l1.4 5.87a41 41 0 0 1 13.61-2.7c6.71 0 9.6 2.7 9.6 8.3v4.19h-3.35c-16.32 0-23.68 6.34-23.68 15.84 0 8.21 4.85 12.87 14 12.87 5.88 0 10.26-2.42 14.36-6l.74 5zm31.73.01h-11.85l-14.27-46.43h10.36l8.85 28.53 2 8.58a179.34 179.34 0 0 0 9.23-37.11h10.06c-2.69 15.29-7.55 32.07-14.35 46.43m45.44-10.72c-3.45 3-7.09 4.66-10.35 4.66-4.66 0-7.18-2.79-7.18-7.27 0-4.85 2.7-8.4 13.52-8.4h4v11m9.51 10.72v-33.18c0-8.48-4.85-14.08-16.5-14.08a43.54 43.54 0 0 0-17.62 3.83l1.4 5.87a41 41 0 0 1 13.61-2.7c6.71 0 9.6 2.7 9.6 8.3v4.19h-3.35c-16.33 0-23.69 6.34-23.69 15.84 0 8.21 4.85 12.87 14 12.87 5.88 0 10.26-2.42 14.36-6l.75 5zm-133.64 7.89A25 25 0 0 1 74.69 297L70 291.48a19.69 19.69 0 0 0 8.23-7.71c1.25-2.5 1.77-5.77 1.77-13.44v-53h10.1v52.27c0 10.31-.82 14.48-3.53 18.54"/></svg>