<?xml version="1.0" encoding="utf-8"?>
<!-- Generator: Adobe Illustrator 24.1.2, SVG Export Plug-In . SVG Version: 6.00 Build 0)  -->
<svg version="1.1" id="Layer_1" xmlns="http://www.w3.org/2000/svg" xmlns:xlink="http://www.w3.org/1999/xlink" x="0px" y="0px"
	 viewBox="0 0 142 142" style="enable-background:new 0 0 142 142;" xml:space="preserve">
<style type="text/css">
	.st0{fill:#00AEEF;}
	.st1{fill:#231F20;}
</style>
<polyline points="0,86 0,45.8 10,45.8 10,77.5 25.7,77.5 25.7,86 0,86 "/>
<path d="M66.7,86V45.8h20.1c9.7,0,14.5,4.4,14.6,13.2c0,2.5-0.8,4.9-2.3,6.8c-1.5,1.9-3.6,3.3-6,4l9.2,16.1H91l-7.9-14.4h-6.4V86
	H66.7 M76.8,53.3v10.8H86c3.6,0,5.4-1.8,5.4-5.4s-1.8-5.4-5.4-5.4L76.8,53.3z"/>
<path d="M132.4,63.8v15.8c-0.1,2.1,0.2,4.2,0.8,6.3h-8.1c-0.3-1-0.5-2-0.6-3.1h-0.1c-1,1.3-2.3,2.3-3.9,2.8
	c-1.6,0.7-3.4,1.1-5.1,1.1c-2.6,0.1-5.1-0.7-7.2-2.3c-1.9-1.6-3-4.1-2.9-6.6c-0.1-3.2,1.4-6.1,4.1-7.8c2.3-1.5,6.1-2.6,11.3-3.3
	l3.2-0.5v-2.5c0-2.1-1.4-3.2-4.2-3.2c-2.2-0.3-4.2,1.1-4.6,3.3c0,0.2-0.1,0.4,0,0.7h-8.5c0.2-6.3,4.3-9.4,12.4-9.4
	c4.4,0,7.6,0.6,9.8,1.8C131.3,58.4,132.4,60.7,132.4,63.8 M124,73.4v-2.1l-5.9,1.7c-2.8,0.8-4.2,2.1-4.2,3.9c0,2.3,1.4,3.4,4.1,3.4
	c1.6,0.1,3.2-0.6,4.4-1.8C123.5,77.1,124.1,75.3,124,73.4"/>
<path d="M44.9,55.2c4.8,0,8.6,1.4,11.6,4.2S60.8,66,60.8,71c0,5-1.5,8.8-4.4,11.6c-2.9,2.8-6.8,4.2-11.6,4.2
	c-4.8,0-8.6-1.4-11.6-4.2c-2.9-2.8-4.4-6.7-4.4-11.6c0-5,1.5-8.8,4.4-11.6S40.1,55.2,44.9,55.2 M44.9,61.9c-2.2-0.1-4.2,0.9-5.5,2.6
	c-1.2,1.9-1.8,4.2-1.7,6.5c-0.1,2.3,0.5,4.5,1.7,6.5c1.3,1.8,3.3,2.7,5.5,2.6c4.8,0,7.2-3.1,7.2-9.4c0.1-2.2-0.5-4.4-1.7-6.2
	C49,62.7,47,61.8,44.9,61.9"/>
<path class="st0" d="M44.6,49.2c4.2,0,8.3,1.2,11.9,3.5l1.7-2.5c-8.1-5.3-18.5-5.4-26.7-0.3l1.7,2.5C36.6,50.2,40.5,49.1,44.6,49.2"
	/>
<path class="st0" d="M26.1,42.2l2.3,3.3c10.1-6.4,22.9-6.3,32.9,0.3l2.3-3.3C52.3,35,37.5,34.9,26.1,42.2"/>
<path class="st0" d="M44.6,32.3c7.7,0,15.2,2.3,21.6,6.6l2.9-4.1c-14.6-9.8-33.7-10-48.5-0.4l2.8,4.2C29.7,34.4,37,32.2,44.6,32.3"
	/>
<path class="st0" d="M45.1,92.8c-4.2,0-8.4-1.2-11.9-3.5l-1.7,2.5c8.1,5.3,18.5,5.4,26.8,0.3l-1.7-2.4
	C53.1,91.8,49.2,92.9,45.1,92.8"/>
<path class="st0" d="M63.6,99.8l-2.3-3.3c-10.1,6.4-22.9,6.2-32.9-0.3l-2.3,3.3C37.4,107,52.2,107.1,63.6,99.8"/>
<path class="st0" d="M45.1,109.8c-7.7,0-15.3-2.3-21.7-6.6l-2.9,4.1c14.6,9.8,33.7,10,48.5,0.4l-2.9-4.1
	C59.9,107.6,52.6,109.7,45.1,109.8"/>
<path class="st1" d="M138.3,54.3c0.6,0,1.3,0.2,1.8,0.5c0.6,0.3,1.1,0.8,1.4,1.4c0.7,1.1,0.7,2.5,0,3.7c-0.3,0.6-0.8,1.1-1.4,1.4
	c-1.1,0.6-2.5,0.6-3.7,0c-0.6-0.3-1-0.8-1.4-1.4c-0.7-1.1-0.7-2.5,0-3.7c0.3-0.6,0.8-1.1,1.4-1.4C137.1,54.5,137.7,54.3,138.3,54.3z
	 M138.3,54.9c-0.5,0-1,0.1-1.5,0.4c-0.5,0.3-0.9,0.7-1.1,1.1c-0.6,0.9-0.6,2.1,0,3.1c0.3,0.5,0.7,0.9,1.1,1.2c0.9,0.5,2.1,0.5,3.1,0
	c0.5-0.3,0.9-0.7,1.1-1.1c0.5-1,0.5-2.1,0-3.1c-0.3-0.5-0.7-0.9-1.1-1.1C139.4,55.1,138.9,54.9,138.3,54.9z M136.7,60v-4h1.4
	c0.3,0,0.7,0,1,0.1c0.2,0.1,0.4,0.2,0.5,0.4c0.1,0.2,0.2,0.4,0.2,0.6c0,0.3-0.1,0.6-0.3,0.8c-0.2,0.2-0.5,0.3-0.8,0.4
	c0.1,0,0.2,0.1,0.3,0.2c0.2,0.2,0.4,0.5,0.6,0.8L140,60h-0.8l-0.4-0.6c-0.2-0.3-0.4-0.7-0.7-0.9c-0.1-0.1-0.3-0.2-0.5-0.1h-0.4V60
	L136.7,60z M137.3,57.8h0.8c0.3,0,0.5,0,0.8-0.2c0.2-0.2,0.3-0.5,0.1-0.8c-0.1-0.1-0.2-0.2-0.3-0.2c-0.2-0.1-0.4-0.1-0.6-0.1h-0.7
	L137.3,57.8z"/>
</svg>
