<svg id="svg9619" xmlns="http://www.w3.org/2000/svg" xmlns:xlink="http://www.w3.org/1999/xlink" viewBox="0 0 261.48 81.24"><defs><style>.cls-1,.cls-14{fill:none;}.cls-2{clip-path:url(#clip-path);}.cls-3{fill:url(#linear-gradient);}.cls-4{clip-path:url(#clip-path-2);}.cls-5{fill:url(#linear-gradient-2);}.cls-6{clip-path:url(#clip-path-3);}.cls-11,.cls-7,.cls-9{stroke:#807ead;}.cls-11,.cls-14,.cls-7,.cls-9{stroke-linejoin:round;}.cls-7{stroke-width:0.65px;fill:url(#linear-gradient-3);}.cls-8{clip-path:url(#clip-path-4);}.cls-9{stroke-width:0.79px;fill:url(#linear-gradient-4);}.cls-10{clip-path:url(#clip-path-5);}.cls-11{stroke-width:1.08px;fill:url(#linear-gradient-5);}.cls-12{clip-path:url(#clip-path-6);}.cls-13{fill:url(#linear-gradient-6);}.cls-14{stroke:#e3d7eb;stroke-linecap:round;stroke-width:1.5px;}.cls-15{fill:url(#linear-gradient-7);}.cls-16{fill:url(#linear-gradient-8);}.cls-17{fill:url(#linear-gradient-9);}.cls-18{fill:url(#linear-gradient-10);}.cls-19{isolation:isolate;}.cls-20{fill:#3c0f51;}</style><clipPath id="clip-path" transform="translate(3.13 15.45)"><path class="cls-1" d="M8.65,1.16H53.82a7.57,7.57,0,0,1,7.36,7.78V52.27a7.58,7.58,0,0,1-7.36,7.79H8.65a7.58,7.58,0,0,1-7.36-7.79V8.94A7.57,7.57,0,0,1,8.65,1.16Z"/></clipPath><linearGradient id="linear-gradient" x1="338.1" y1="-727.89" x2="357.2" y2="-708.25" gradientTransform="matrix(0.96, 0, 0, -1.01, -280.53, -704.49)" gradientUnits="userSpaceOnUse"><stop offset="0" stop-color="#fff"/><stop offset="1" stop-color="#fff" stop-opacity="0"/></linearGradient><clipPath id="clip-path-2" transform="translate(3.13 15.45)"><path class="cls-1" d="M9,1.16H53.49a7.73,7.73,0,0,1,7.69,7.78V52.27a7.74,7.74,0,0,1-7.69,7.79H9a7.74,7.74,0,0,1-7.69-7.79V8.94A7.73,7.73,0,0,1,9,1.16Z"/></clipPath><linearGradient id="linear-gradient-2" x1="261.54" y1="-653.96" x2="310.81" y2="-612.59" gradientTransform="matrix(1.09, 0, 0, -1.1, -264.03, -663.27)" gradientUnits="userSpaceOnUse"><stop offset="0" stop-color="#8d89c2"/><stop offset="1" stop-color="#fffff9" stop-opacity="0.98"/></linearGradient><clipPath id="clip-path-3" transform="translate(3.13 15.45)"><path class="cls-1" d="M9,1.16H53.43a7.76,7.76,0,0,1,7.75,7.78V52.27a7.77,7.77,0,0,1-7.75,7.79H9a7.77,7.77,0,0,1-7.75-7.79V8.94A7.76,7.76,0,0,1,9,1.16Z"/></clipPath><linearGradient id="linear-gradient-3" x1="-671.44" y1="624.42" x2="-680.73" y2="633.81" gradientTransform="matrix(0, -3.37, -3.35, 0, 2156.6, -2261.6)" xlink:href="#linear-gradient-2"/><clipPath id="clip-path-4" transform="translate(3.13 15.45)"><path class="cls-1" d="M8.67,1.16H53.8a7.58,7.58,0,0,1,7.38,7.78V52.27a7.59,7.59,0,0,1-7.38,7.79H8.67a7.59,7.59,0,0,1-7.38-7.79V8.94A7.58,7.58,0,0,1,8.67,1.16Z"/></clipPath><linearGradient id="linear-gradient-4" x1="-733.5" y1="594.64" x2="-744.24" y2="606.28" gradientTransform="matrix(0, -2.87, -2.72, 0, 1667.51, -2090.65)" xlink:href="#linear-gradient-2"/><clipPath id="clip-path-5" transform="translate(3.13 15.45)"><path class="cls-1" d="M8.79,1.16H53.68a7.64,7.64,0,0,1,7.5,7.78V52.27a7.65,7.65,0,0,1-7.5,7.79H8.79a7.65,7.65,0,0,1-7.5-7.79V8.94A7.64,7.64,0,0,1,8.79,1.16Z"/></clipPath><linearGradient id="linear-gradient-5" x1="-893.33" y1="536.56" x2="-904.91" y2="549.63" gradientTransform="matrix(0, -2.07, -1.99, 0, 1106.82, -1823.81)" xlink:href="#linear-gradient-2"/><clipPath id="clip-path-6" transform="translate(3.13 15.45)"><path class="cls-1" d="M8.92,1.16H53.55a7.7,7.7,0,0,1,7.63,7.78V52.27a7.71,7.71,0,0,1-7.63,7.79H8.92a7.72,7.72,0,0,1-7.63-7.79V8.94A7.71,7.71,0,0,1,8.92,1.16Z"/></clipPath><linearGradient id="linear-gradient-6" x1="-1102.57" y1="466.46" x2="-1116.7" y2="480.59" gradientTransform="matrix(0, -1.52, -1.49, 0, 717.53, -1637.55)" gradientUnits="userSpaceOnUse"><stop offset="0" stop-color="#6f1171"/><stop offset="1" stop-color="#bea1c7"/></linearGradient><linearGradient id="linear-gradient-7" x1="220.13" y1="-811.32" x2="220.3" y2="-870.39" gradientTransform="matrix(1, 0, 0, -1, -124.28, -793.31)" gradientUnits="userSpaceOnUse"><stop offset="0" stop-color="#3c0f51"/><stop offset="1" stop-color="#bea1c7"/></linearGradient><linearGradient id="linear-gradient-8" x1="284.17" y1="-811.13" x2="284.34" y2="-870.2" gradientTransform="matrix(1, 0, 0, -1, -133.71, -793.06)" xlink:href="#linear-gradient-7"/><linearGradient id="linear-gradient-9" x1="337.25" y1="-810.98" x2="337.43" y2="-870.04" gradientTransform="matrix(1, 0, 0, -1, -145.17, -793.31)" xlink:href="#linear-gradient-7"/><linearGradient id="linear-gradient-10" x1="384.94" y1="-810.84" x2="385.11" y2="-869.91" gradientTransform="matrix(1, 0, 0, -1, -148.74, -793.31)" xlink:href="#linear-gradient-7"/></defs><title>mqtt</title><g id="g6666"><g class="cls-2"><rect id="rect5036" class="cls-3" x="3.87" y="16.7" width="55.82" height="59.12"/></g><g class="cls-4"><rect id="rect6113" class="cls-5" y="16.9" width="63.47" height="64.34"/></g><g class="cls-6"><path id="path5872" class="cls-7" d="M-.27-15.13A77.52,77.52,0,0,1,77.08,62.34l-77.35.21Z" transform="translate(3.13 15.45)"/></g><g class="cls-8"><path id="path5876" class="cls-9" d="M.11-1.47c34.58,0,62.64,29.52,62.73,66L.11,64.69Z" transform="translate(3.13 15.45)"/></g><g class="cls-10"><path id="path5026" class="cls-11" d="M-.38,13.64c25.36,0,45.93,21.29,46,47.59l-46,.13Z" transform="translate(3.13 15.45)"/></g><g class="cls-12"><path id="path5849" class="cls-13" d="M-1,27.12c19,0,34.34,15.64,34.39,35L-1,62.18Z" transform="translate(3.13 15.45)"/></g><rect id="rect6215-8" class="cls-14" x="3.87" y="16.2" width="59.9" height="58.9" rx="7.79"/></g><g id="text6660"><path id="path7641" class="cls-15" d="M68.91,57.05V1.21H85.79L95.92,39.3l10-38.09h16.91V57.05H112.37v-44l-11.08,44H90.43l-11-44v44H68.91" transform="translate(3.13 15.45)"/><path id="path7643" class="cls-16" d="M169.63,50.22a37,37,0,0,0,9,4.72l-4.15,8a25.69,25.69,0,0,1-5-2.1q-.54-.25-7.5-4.95a30,30,0,0,1-12.15,2.4q-12.87,0-20.19-7.58t-7.27-21.29q0-13.66,7.31-21.25T149.56.51q12.42,0,19.69,7.62t7.28,21.25a36.83,36.83,0,0,1-2,12.72,26.46,26.46,0,0,1-4.88,8.12m-9.06-6.36a16.68,16.68,0,0,0,3.24-6.17,28.74,28.74,0,0,0,1.1-8.31q0-9.68-4.26-14.43a15.42,15.42,0,0,0-22.36,0Q134,19.75,134,29.38q0,9.79,4.27,14.67a13.92,13.92,0,0,0,10.85,4.83,13.07,13.07,0,0,0,4.61-.8,33,33,0,0,0-7-3.5l3.16-6.44a38.33,38.33,0,0,1,10.63,5.72" transform="translate(3.13 15.45)"/><path id="path7645" class="cls-17" d="M186.43,57.05V10.66H169.86V1.21h44.37v9.45H197.7V57.05H186.43" transform="translate(3.13 15.45)"/><path id="path7647" class="cls-18" d="M230.55,57.05V10.66H214V1.21h44.37v9.45H241.82V57.05H230.55" transform="translate(3.13 15.45)"/></g><g id="text6731" class="cls-19"><g class="cls-19"><path class="cls-20" d="M244.83,13.44h2.54v2.41h-2.54Z" transform="translate(3.13 15.45)"/><path class="cls-20" d="M251.39,17.83a9,9,0,0,1,3.41.57,6.44,6.44,0,0,1,1.82,1.17,4.94,4.94,0,0,1,1.2,1.63,6.63,6.63,0,0,1,.52,2.72,5.73,5.73,0,0,1-1.82,4.45,8.49,8.49,0,0,1-10.1,0A5.7,5.7,0,0,1,244.6,24a5.77,5.77,0,0,1,1.81-4.47A7.09,7.09,0,0,1,251.39,17.83Zm.09,2.62a5.2,5.2,0,0,0-3.42,1,3.28,3.28,0,0,0,0,5,5.28,5.28,0,0,0,3.47,1,5.16,5.16,0,0,0,3.41-.95,3.39,3.39,0,0,0,0-5.05A5.22,5.22,0,0,0,251.48,20.45Z" transform="translate(3.13 15.45)"/><path class="cls-20" d="M244.83,32h13.29v5.35a8.67,8.67,0,0,1-.36,2.93,3,3,0,0,1-1.27,1.47,4.06,4.06,0,0,1-2.1.55,3.64,3.64,0,0,1-2.47-.84A3.9,3.9,0,0,1,250.69,39a6,6,0,0,1-1.11,1.36,15.8,15.8,0,0,1-2.16,1.45l-2.59,1.54v-3l2.89-1.84a18.7,18.7,0,0,0,1.95-1.34,1.84,1.84,0,0,0,.55-.77,3.85,3.85,0,0,0,.16-1.28v-.51h-5.55Zm7.67,2.54v1.88a9.31,9.31,0,0,0,.16,2.29,1.41,1.41,0,0,0,.56.71,1.83,1.83,0,0,0,1,.26,1.66,1.66,0,0,0,1.08-.34,1.52,1.52,0,0,0,.52-1c0-.21.05-.83.05-1.86v-2Z" transform="translate(3.13 15.45)"/><path class="cls-20" d="M249.71,50.59H252v5.48h-5.29a6.64,6.64,0,0,1-1.44-2.31,8.13,8.13,0,0,1-.62-3.07,6.65,6.65,0,0,1,.87-3.45A5.53,5.53,0,0,1,248,45a8.47,8.47,0,0,1,3.54-.74,8,8,0,0,1,3.69.83,5.69,5.69,0,0,1,2.47,2.41,6.27,6.27,0,0,1,.66,3,5.79,5.79,0,0,1-1,3.66,4.74,4.74,0,0,1-2.87,1.7l-.5-2.53a2.75,2.75,0,0,0,1.54-1,2.9,2.9,0,0,0,.57-1.83,3.36,3.36,0,0,0-1.11-2.65,4.87,4.87,0,0,0-3.31-1,5.43,5.43,0,0,0-3.55,1,3.27,3.27,0,0,0-1.19,2.61,4.22,4.22,0,0,0,.33,1.61A5.22,5.22,0,0,0,248,53.5h1.68Z" transform="translate(3.13 15.45)"/></g></g></svg>