<?xml version="1.0" encoding="utf-8"?>
<!-- Generator: Adobe Illustrator 24.1.2, SVG Export Plug-In . SVG Version: 6.00 Build 0)  -->
<svg version="1.1" id="Layer_1" xmlns="http://www.w3.org/2000/svg" xmlns:xlink="http://www.w3.org/1999/xlink" x="0px" y="0px"
	 viewBox="0 0 24 24" style="enable-background:new 0 0 24 24;" xml:space="preserve">
<style type="text/css">
	.st0{fill:#8F0000;}
</style>
<path class="st0" d="M3,0C1.3,0,0,1.3,0,3v6.1h2.9c1.1,0,2,0.9,2,2v0c0.8-0.1,1.3-0.4,1.7-0.7c0.4-0.4,0.7-0.9,1-1.5
	c0.3-0.6,0.7-1.2,1.4-1.7c0.6-0.4,1.4-0.6,2.4-0.7V6c0-1.1,0.9-2,2-2h7.9c1.1,0,2,0.9,2,2V8c0,1.1-0.9,2-2,2h-7.9c-1.1,0-2-0.9-2-2
	V7.5c-0.9,0-1.4,0.2-1.8,0.5C9,8.4,8.7,8.8,8.4,9.4c-0.3,0.6-0.6,1.2-1.2,1.8l-0.1,0.1c3.1,0.4,4.5,1.6,5.7,2.6
	c1.4,1.2,2.5,2.3,6.3,2.3v-0.5c0-1.1,0.9-1.9,2-1.9H24V3c0-1.7-1.3-3-3-3H3z M13.3,5.4c-0.4,0-0.7,0.3-0.7,0.6V8
	c0,0.4,0.3,0.6,0.7,0.6h7.9c0.3,0,0.6-0.3,0.6-0.6c0,0,0,0,0,0V6c0-0.3-0.3-0.6-0.6-0.6c0,0,0,0,0,0L13.3,5.4z M0,10.4v3.3h2.9
	c0.4,0,0.7-0.3,0.7-0.7v-1.9c0-0.4-0.3-0.6-0.7-0.6H0z M4.8,12.1V13c0,1.1-0.9,2-2,2c0,0,0,0,0,0H0v6c0,1.7,1.3,3,3,3h18
	c1.7,0,3-1.3,3-3v-1.4h-2.9c-1.1,0-2-0.9-2-2v-0.4c-4,0-5.6-1.3-7-2.5C10.7,13.4,9.3,12.2,4.8,12.1L4.8,12.1z M21.1,15
	c-0.4,0-0.6,0.3-0.6,0.6c0,0,0,0,0,0v1.9c0,0.4,0.3,0.6,0.6,0.6H24V15H21.1z"/>
</svg>
