<svg width="400" height="400" xmlns="http://www.w3.org/2000/svg">
 <metadata id="metadata2991">image/svg+xml</metadata>
 <defs>
  <clipPath id="clipPath2999" clipPathUnits="userSpaceOnUse">
   <path id="path3001" d="m0,600l800,0l0,-600l-800,0l0,600z"/>
  </clipPath>
  <clipPath id="clipPath3179" clipPathUnits="userSpaceOnUse">
   <path id="path3181" d="m-6.473043,537.069355l133,0l0,-134.101l-133,0l0,134.101z"/>
  </clipPath>
  <clipPath id="clipPath3195" clipPathUnits="userSpaceOnUse">
   <path id="path3197" d="m4.126957,522.468355l19.5,0l0,-19l-19.5,0l0,19z"/>
  </clipPath>
  <clipPath id="clipPath3211" clipPathUnits="userSpaceOnUse">
   <path id="path3213" d="m-5.773043,487.569355l16,0l0,-15l-16,0l0,15z"/>
  </clipPath>
  <clipPath id="clipPath3227" clipPathUnits="userSpaceOnUse">
   <path id="path3229" d="m-13.373043,481.368355l8.3,0l0,-3.9l-8.3,0l0,3.9z"/>
  </clipPath>
  <clipPath id="clipPath3243" clipPathUnits="userSpaceOnUse">
   <path id="path3245" d="m-16.573043,454.069355l44.9,0l0,-51l-44.9,0l0,51z"/>
  </clipPath>
  <clipPath id="clipPath3259" clipPathUnits="userSpaceOnUse">
   <path id="path3261" d="m-5.773043,457.168355l63.7,0l0,-48.3l-63.7,0l0,48.3z"/>
  </clipPath>
  <clipPath id="clipPath3299" clipPathUnits="userSpaceOnUse">
   <path id="path3301" d="m28.326957,411.668355l53.4,0l0,-9.275l-53.4,0l0,9.275z"/>
  </clipPath>
  <clipPath id="clipPath3323" clipPathUnits="userSpaceOnUse">
   <path id="path3325" d="m69.426957,412.368355l18,0l0,-3.6l-18,0l0,3.6z"/>
  </clipPath>
 </defs>
 <g>
  <title>background</title>
  <rect fill="none" id="canvas_background" height="402" width="402" y="-1" x="-1"/>
 </g>
 <g>
  <title>Layer 1</title>
  <g transform="matrix(0.9714149671159245,0,0,-0.9714149671159245,147.86458744031125,705.7964937459291) " id="g2993">
   <path fill="#ffffff" d="m128.377768,463.618964a72.99167,-73.371831 0 1 1 -145.983339,0a72.99167,-73.371831 0 1 1 145.983339,0z" id="path3660"/>
   <g id="g3003">
    <path fill="#169300" fill-rule="nonzero" id="path3005" d="m108.127054,572.26866c0.7,-0.6 1,-1.5 1,-2.4c0,-0.9 -0.3,-1.8 -1,-2.4c-0.6,-0.7 -1.5,-1 -2.4,-1c-1,0 -1.8,0.3 -2.5,1c-0.6,0.6 -1,1.5 -1,2.4c0,0.9 0.4,1.8 1,2.4c0.7,0.7 1.5,1 2.5,1c0.9,0 1.8,-0.3 2.4,-1m1,15.4c1,-1 1.6,-2.4 1.6,-3.9c0,-1.5 -0.6,-2.7 -1.6,-3.8c-1,-1 -2.4,-1.6 -3.9,-1.6c-1.5,0 -2.7,0.6 -3.8,1.6c-1,1.1 -1.6,2.3 -1.6,3.8c0,1.5 0.6,2.9 1.6,3.9c1.1,1 2.3,1.6 3.8,1.6c1.5,0 2.9,-0.6 3.9,-1.6m20.7,9.2c1,3.6 1.7,5.8 2.1,6.8c-0.3,-0.1 -0.4,-0.4 -0.7,-0.6c-7.3,-7.4 -16.2,-11 -26.7,-11c-2.6,0 -5.1,0.2 -7.5,0.6c-1,0.3 -2,0.5 -3,0.8l-13.1,3c-1.3,0.5 -2.5,1.1 -3.8,1.6c-1.9,0.9 -3.5,1.8 -4.7,2.7c0.2,-0.7 0.6,-1.6 1.2,-2.8c0.7,-1.7 1.2,-2.8 1.4,-3.3c0.6,-1.6 2.7,-3.6 6.5,-6.1c1.2,-0.9 2.4,-1.6 3.4,-2.4c1.2,-0.5 1.8,-0.9 2.1,-1c0.6,-0.5 1.3,-0.9 1.9,-1.3l0.3,-0.2l0.2,-0.1c1.7,-1.5 3.2,-3.2 4.3,-5.1c0.3,-0.6 1.2,-2.3 2.7,-5.3c0.6,-1.1 1.2,-2.9 2.1,-5.2c0.9,-2.3 1.6,-4 2.2,-5.3c0.6,-0.9 1.2,-1.7 1.8,-2.5c0.6,-0.7 1.5,-1.4 2.4,-2c1.3,-1.1 2.7,-1.9 4.2,-2.5c0.1,0.8 0.3,1.5 0.5,2.4c0.1,0 0.1,0.1 0.1,0.2c0.8,3 2.2,6.4 4.4,10c4.2,6 7.2,10.9 9,14.4c1.6,3 2.9,5.4 3.7,7c1.4,3 2.4,5.4 3,7.2"/>
   </g>
   <g id="g3007">
    <path fill="#13c100" fill-rule="nonzero" id="path3009" d="m110.727152,583.76866c0,1.5 -0.6,2.9 -1.6,3.9c-1,1 -2.4,1.6 -3.9,1.6c-1.5,0 -2.7,-0.6 -3.8,-1.6c-1,-1 -1.6,-2.4 -1.6,-3.9c0,-1.5 0.6,-2.7 1.6,-3.8c1.1,-1 2.3,-1.6 3.8,-1.6c1.5,0 2.9,0.6 3.9,1.6c1,1.1 1.6,2.3 1.6,3.8"/>
   </g>
   <g id="g3011">
    <path fill="#13c100" fill-rule="nonzero" id="path3013" d="m109.127054,569.868757c0,0.9 -0.3,1.8 -1,2.4c-0.6,0.7 -1.5,1 -2.4,1c-1,0 -1.8,-0.3 -2.5,-1c-0.6,-0.6 -1,-1.5 -1,-2.4c0,-0.9 0.4,-1.8 1,-2.4c0.7,-0.7 1.5,-1 2.5,-1c0.9,0 1.8,0.3 2.4,1c0.7,0.6 1,1.5 1,2.4"/>
   </g>
   <g id="g3015">
    <path fill="#13c100" fill-rule="nonzero" id="path3017" d="m-25.872946,477.168562c0.1,0.1 0.2,0.1 0.3,0.1c0.2,0 0.5,0 0.7,-0.1l-1,0zm58,35.9l0,-0.9l-0.1,0c-0.2,-0.6 -0.5,-1.4 -1,-2.2c-0.6,-0.9 -1,-1.7 -1.3,-2c-1.1,-1.8 -2.9,-4.5 -5.5,-8.3c-1.6,-2.4 -4.2,-5.1 -7.8,-8.2l-0.2,-0.2c-0.2,-0.1 -0.6,-0.3 -0.8,-0.5c-1.7,-1.2 -3.4,-2.3 -5.2,-3.2c-0.8,-0.5 -1.6,-0.9 -2.5,-1.3c-2.5,-1 -4.9,-2 -7.3,-3c-0.6,-0.4 -1.5,-0.8 -2.9,-1.2c-0.1,-0.1 -1,-0.3 -2.6,-0.7c-0.2,-0.1 -0.4,-0.1 -0.6,-0.2c-1.1,-0.3 -1.9,-0.5 -2.7,-0.8c-0.2,-0.6 -0.4,-1.3 -0.4,-2.2c-0.8,0.3 -1.5,0.5 -2,0.5c-1,0.3 -1.8,0.4 -2.3,0.1l-0.3,0c-0.3,0.1 -0.6,0.2 -0.9,0.2l-0.1,0c0,0.1 -0.1,0.1 -0.1,0.1l-0.4,0c-0.5,0 -1,0.1 -1.4,0.1l-0.2,0c-0.3,0 -0.6,0 -0.9,0.1c-0.9,0.1 -1.7,0.2 -2.5,0.4l-0.8,0c-0.6,0.1 -1.1,0.2 -1.6,0.3c-3.7,0.5 -6.2,0.8 -7.5,1l-4.7,0c-2.6,0.2 -4.6,0.5 -5.9,0.6l-0.5,0l0,0.1l10.2,0c0.3,0 0.7,0.1 1.2,0.2c0.6,0.1 1.7,0.1 3.5,0.2c3.8,0.3 7.2,0.7 10.4,1.2c1.3,0.3 2.7,0.5 3.9,0.8c1.3,0.2 2.9,0.6 4.8,1.1c0.9,0.3 1.8,0.6 2.8,0.9l0.1,0l0.1,0c0.9,0.3 2.4,0.9 4.5,1.6c2,0.7 3.5,1.3 4.4,1.7c2.1,0.9 4.2,2.1 6.3,3.3c0.7,0.5 1.4,1 2.1,1.4c2.7,1.7 5.1,3.5 6.8,5.1c2.9,2.6 5.9,6 9.3,10.2c0.4,0.5 1,1.3 1.9,2.6c0.2,0.3 0.5,0.7 0.7,1.1m-92.5,-70.5c0.1,0.2 0.1,0.4 0.1,0.6c0,0.9 -0.1,1.4 -0.1,1.4c0,1.5 0.8,2.8 2.3,4c0.9,0.8 2.2,1.5 3.7,2.3c1.3,1 3.6,2.1 7.3,3.2c3.7,1.1 7,1.9 9.9,2.3c3.1,0.5 6.8,1.2 11.4,2c2.3,0.3 4.9,0.7 7.9,1c0.8,0 1.6,0.1 2.5,0.2c2.6,0.2 5.6,0.5 8.9,0.6l15.3,0l0.4,0.2l5.6,0l0.4,0.1l8.8,0c2.8,-0.1 6.1,-0.6 10,-1.5c1.1,-0.3 2.2,-0.5 3.1,-0.8l-0.6,0l-1,0l-10.5,0l-1.5,-0.2l-4,0c-3.2,-0.1 -6.1,-0.4 -8.8,-0.8c-0.4,0 -0.8,0 -1.3,-0.1l-2.4,0c-1.8,-0.4 -2.9,-0.7 -3.5,-0.9c-0.1,0 -0.2,0 -0.3,-0.1c-3.3,-0.6 -6.3,-1.3 -9,-2l-0.1,0c-1.4,-0.4 -2.6,-0.9 -3.7,-1.2c-0.8,-0.4 -1.5,-0.7 -2.2,-1c-1.7,-0.9 -3.4,-1.7 -4.8,-2.4c-1.5,-0.8 -2.8,-1.3 -4,-1.9l0.2,0c-1.3,-0.7 -2.4,-1.2 -3.3,-1.8c-3.7,-2.1 -6.6,-3.8 -8.6,-4.9c-2.6,-0.9 -5.6,-1.7 -8.6,-2.6c-1.5,-0.4 -2.9,-0.7 -4.1,-1.1c-2,-0.2 -3.3,-0.3 -3.8,-0.3c-4.6,0 -8.1,1.3 -10.6,4c-0.3,0.3 -0.6,0.8 -0.9,1.5c0,0 0,0.2 -0.1,0.2m-4.6,82.3l0,1.2c0,1.5 0.6,2.9 1.7,4.1c1.4,1.5 3.7,2.5 6.7,2.8l2.7,0c1.5,0 3,-0.3 4.3,-0.8c2.2,-0.6 4.3,-1.7 6.3,-3.4c0.3,-0.2 1.5,-1.6 3.8,-4c0.7,-0.7 1.6,-1.6 2.6,-2.6c0.4,-0.6 1,-1.1 1.5,-1.7c0.2,-0.3 0.4,-0.4 0.6,-0.7c0.4,-0.3 0.8,-0.6 1.2,-0.9c-0.1,-0.1 -0.1,-0.2 -0.1,-0.2c2.2,-2.1 4.3,-3.9 6.5,-5.2c0.8,-0.7 1.8,-1.5 3.2,-2.3c0.7,-0.5 1.5,-1 2.2,-1.4c0.4,-0.1 0.7,-0.1 0.9,-0.2c1.8,-1.1 3.5,-2 5,-2.8c-0.4,0.1 -0.7,0 -1,-0.1c0.5,0 1,-0.1 1.6,-0.1c2.3,-1.1 4.4,-1.9 6.3,-2.3c0.9,-0.3 1.7,-0.6 2.5,-0.7c1.1,-0.4 2.1,-0.5 2.9,-0.4l0.5,0c0.2,-0.1 0.5,-0.1 0.7,-0.1l2.6,0c0.1,-0.1 0.2,-0.1 0.3,-0.1l-0.4,0c0,0 -0.1,0 -0.1,-0.1c-0.3,0 -0.5,0 -0.8,-0.1c-0.5,0 -1.1,-0.1 -1.5,-0.1c-0.1,-0.1 -0.3,-0.1 -0.5,-0.1l-5.6,0c-1.5,0.1 -3,0.4 -4.5,0.5c-7,0.8 -12.9,1.6 -17.6,2.5c-4.9,0.8 -9.6,1.9 -14.2,3.1c-6.3,1.8 -10.8,4 -13.4,6.5c-0.3,0.3 -0.5,0.6 -0.8,0.9c-0.4,0.2 -0.6,0.5 -1,0.7c-3.1,2.6 -4.8,5.2 -5,7.6c0,0.2 0,0.3 -0.1,0.4l0,0.1zm7.7,45.3c0.2,-0.1 0.3,-0.2 0.4,-0.2c0,-0.2 0,-0.3 -0.1,-0.4c-0.1,0.2 -0.2,0.4 -0.3,0.6m99.9,-30.1c-0.1,0.1 -0.2,0.2 -0.3,0.4c-0.9,1.3 -1.9,3.1 -3.2,5.3c-5.5,10.8 -9.2,21.8 -11.1,33c17.2,-2.6 34.6,-2.6 51.8,0c-1.9,-11.2 -5.7,-22.2 -11.2,-33c-1.2,-2.2 -2.2,-4 -3.1,-5.3c-0.1,-0.2 -0.2,-0.3 -0.3,-0.4c-2.6,-4.1 -6.3,-6.3 -10.9,-6.6c-0.1,0.1 -0.1,0.1 -0.2,0l-0.6,0l0,0.1c-4.6,0.3 -8.3,2.5 -10.9,6.5m-12.5,0.6c0.1,0.4 0.3,0.7 0.3,1.1c0.1,0.1 0.2,0.4 0.2,0.9c0.3,-1 0.6,-2 0.9,-2.6c1.2,-2.6 2.8,-5.1 4.6,-7.4c5.1,-6.4 10.9,-9.7 17.4,-10l0.4,0l0.4,0c6.6,0.3 12.3,3.6 17.3,10c1.9,2.3 3.4,4.8 4.6,7.4c0.4,0.6 0.7,1.6 0.9,2.6c0.1,-0.5 0.1,-0.8 0.3,-0.9c0,-0.4 0.1,-0.7 0.2,-1.1c1.1,-5.5 0,-10.8 -3.5,-16c-3.5,-5.3 -8.4,-8.5 -14.7,-9.5c-1.7,-0.4 -3.3,-0.5 -5.1,-0.5l-0.2,0l-0.4,0l-0.2,0c-1.8,0 -3.5,0.1 -5.1,0.5c-6.4,1 -11.3,4.2 -14.8,9.5c-3.4,5.2 -4.5,10.5 -3.5,16m23.3,100.8l0.2,0l-0.1,0l-0.1,0zm-25.5,5.3c2.7,-3.5 4.6,-7.4 5.4,-11.7l0.6,-5.6l0,-0.5l-0.6,-5.7c-0.8,-4.5 -2.6,-8.5 -5.4,-12.1c-0.8,-1 -1.7,-2 -2.7,-3c-5.1,-5.1 -11.1,-8 -18.1,-8.5c-0.9,0 -1.8,-0.1 -2.6,-0.1c-1.8,0 -3.4,0.1 -5.1,0.4c-3.7,0.6 -7,1.8 -10.2,3.7c-2,1.3 -3.8,2.8 -5.6,4.5c-0.1,0.2 -0.4,0.4 -0.5,0.6c-0.6,0.7 -1.2,1.3 -1.7,2c-2.6,3.1 -4.3,6.6 -5.3,10.4c-0.3,1 -0.5,1.9 -0.6,2.8l-0.4,5l0,0.5l0.5,5.7c0.4,2 1,3.8 1.8,5.6c1.5,3.3 3.6,6.3 6.2,9c2.9,2.9 6,5 9.5,6.4c0.7,0.3 1.5,0.6 2.3,0.8c2.8,1 5.8,1.4 9.1,1.4c8.1,0 15,-2.9 20.7,-8.6c0.2,-0.1 0.3,-0.2 0.4,-0.3c0.8,-0.8 1.5,-1.7 2.3,-2.7m89.5,-193.9c-1.2,0.3 -2.4,0.8 -3.8,1.2c-2.6,0.7 -5.7,1.4 -9.1,2c0,0.1 -0.1,0.1 -0.3,0.1c-0.5,0.2 -1.6,0.5 -3.4,0.9l-2.4,0c-3.1,0.5 -6.4,0.8 -10.1,0.9l-4,0l-1.5,0.2l-10.5,0l-1.1,0l-0.6,0c1,0.3 2,0.5 3.2,0.8c3.8,0.9 7.2,1.4 9.9,1.5l8.8,0l0.5,-0.1l5.5,0l0.5,-0.2l15.3,0c3.3,-0.1 6.2,-0.4 8.9,-0.6c1.7,-0.2 3.2,-0.4 4.7,-0.5c2.1,-0.2 4,-0.4 5.7,-0.7c4.5,-0.8 8.3,-1.5 11.4,-2c2.9,-0.4 6.2,-1.2 9.9,-2.3c3.6,-1.1 6,-2.2 7.2,-3.2c1.6,-0.8 2.9,-1.5 3.8,-2.3c1.5,-1.2 2.2,-2.5 2.2,-4c0,0 0,-0.5 -0.1,-1.4c0.1,-0.2 0.1,-0.4 0.1,-0.6c0,0 0,-0.2 -0.1,-0.2c-0.3,-0.7 -0.5,-1.2 -0.9,-1.5c-2.5,-2.7 -6,-4 -10.5,-4c-0.5,0 -1.8,0.1 -3.9,0.3c-1.2,0.4 -2.6,0.7 -4.1,1.1c-3,0.9 -5.9,1.7 -8.5,2.6c-2.1,1.1 -5,2.8 -8.6,4.9c-0.9,0.6 -2,1.1 -3.4,1.8l0.3,0c-0.6,0.3 -1.3,0.6 -1.9,0.9c-2,1 -4.4,2.1 -7,3.4c-0.6,0.3 -1.3,0.6 -2.1,1m15.2,24.3c0.3,0.1 0.5,0.1 0.8,0.1c0.1,0 0.2,0 0.2,-0.1l-1,0zm-40.6,-13.8c2.1,-0.7 3.6,-1.3 4.5,-1.6l0.2,0c1,-0.3 1.8,-0.6 2.7,-0.9c2,-0.5 3.5,-0.9 4.9,-1.1c1.9,-0.4 4,-0.8 6.2,-1.1c2.5,-0.3 5.2,-0.7 8.1,-0.9c1.7,-0.1 2.8,-0.1 3.5,-0.2c0.4,-0.1 0.8,-0.2 1.2,-0.2l10.1,0l0,-0.1l-0.5,0c14,24.2 12,23.9 9.3,23.7l-4.7,0c-1.4,-0.3 -4.5,-0.7 -9.2,-1.3l-0.7,0c-0.4,-0.1 -0.7,-0.2 -1.1,-0.2c-1.3,-0.2 -2.6,-0.3 -4.2,-0.4c-0.1,0 -0.1,0 -0.2,-0.1l-0.1,0c-0.3,0 -0.5,-0.1 -0.9,-0.2l-0.2,0c-0.3,0.2 -0.7,0.2 -1.2,0.2c-0.3,-0.1 -0.7,-0.2 -1.2,-0.3c-0.5,0 -1.1,-0.2 -1.9,-0.5c-0.1,0.8 -0.2,1.4 -0.3,1.9c-1.3,0.5 -2.4,0.9 -3.2,1.2c-0.7,0.3 -1.5,0.5 -2.2,0.8c-3.6,1.2 -7.2,2.7 -10.8,4.2c-2.7,1.3 -5.3,2.8 -7.7,4.5c-0.3,0.2 -0.6,0.4 -0.9,0.5l-0.1,0.2c-3.6,3.1 -6.2,5.8 -7.8,8.2c-2.6,3.8 -4.5,6.5 -5.5,8.3c-0.3,0.3 -0.7,1.1 -1.3,2c-0.5,0.8 -0.8,1.6 -1.1,2.2c0,0.3 -0.1,0.6 -0.1,0.9c0.3,-0.4 0.5,-0.8 0.8,-1.1c0.8,-1.3 1.5,-2.1 1.9,-2.6c3.3,-4.2 6.3,-7.6 9.2,-10.2c1.8,-1.6 4.1,-3.4 6.9,-5.1c2.7,-1.9 5.6,-3.4 8.3,-4.7c1,-0.4 2.5,-1 4.5,-1.7m63.9,42.5c1.1,-1.2 1.6,-2.6 1.6,-4.1l0,-1.2l0,-0.1c0,-0.1 -0.1,-0.2 -0.1,-0.4c-0.1,-2.4 -1.8,-5 -5,-7.6c-0.3,-0.2 -0.6,-0.5 -1,-0.7c-0.2,-0.3 -0.5,-0.6 -0.7,-0.9c-2.6,-2.5 -7.1,-4.7 -13.4,-6.5c-4.6,-1.2 -9.3,-2.3 -14.2,-3.1c-4.7,-0.9 -10.7,-1.7 -17.7,-2.5c-1.1,-0.1 -2.4,-0.3 -3.5,-0.4c-0.4,0 -0.6,0 -1,-0.1l-5.6,0c-0.6,0.1 -1.3,0.1 -2,0.2c-0.4,0.1 -0.9,0.2 -1.2,0.2c0.1,0 0.2,0 0.3,0.1l0.5,0c0.3,-0.1 0.5,-0.1 0.5,-0.2l0.6,0c0.4,0.1 1.2,0.1 2,0.1c-0.1,0 -0.1,0 -0.1,-0.1c2,0.2 3.6,0.4 5.1,0.7l0.2,0l0.1,0c2.4,0.1 5.9,1.2 10.6,3.6c4.3,2 7.5,4 9.8,5.9c2.3,1.9 4.4,3.8 6.2,5.7c2.1,2.4 3.5,4.3 3.9,5.7c0.1,0.2 0.1,0.2 0.2,0.3l0.1,0c0.2,0.3 0.3,0.5 0.7,0.8l0.1,0l0,0.1c1.7,1.9 2.7,2.9 3,3.1c1.9,1.7 4,2.8 6.3,3.4c1.3,0.5 2.7,0.8 4.2,0.8l2.8,0c3,-0.3 5.2,-1.3 6.7,-2.8m-6.5,39.8c0.2,0 0.3,0.1 0.4,0.2c0,-0.2 -0.1,-0.4 -0.3,-0.6c0,0.1 0,0.2 -0.1,0.4m-34.2,70.8c0.7,-1.8 1.3,-3.6 1.7,-5.6l0.6,-5.7l0,-0.5l-0.4,-5c-0.2,-0.9 -0.3,-1.8 -0.6,-2.8c-1,-3.8 -2.7,-7.3 -5.3,-10.4c-0.5,-0.7 -1.1,-1.3 -1.7,-2c-0.2,-0.2 -0.4,-0.4 -0.6,-0.6c-1.7,-1.7 -3.6,-3.2 -5.6,-4.5c-3.1,-1.9 -6.5,-3.1 -10.1,-3.7c-1.7,-0.3 -3.3,-0.4 -5.1,-0.4c-0.8,0 -1.7,0.1 -2.6,0.1c-7.1,0.5 -13.1,3.4 -18.2,8.5c-0.9,1 -1.9,2 -2.6,3c-2.8,3.6 -4.7,7.6 -5.4,12.1l-0.6,5.7l0,0.5l0.6,5.6c0.8,4.3 2.6,8.2 5.4,11.7c0.7,1 1.5,1.9 2.3,2.7l0.3,0.3c5.7,5.7 12.6,8.6 20.8,8.6c3.2,0 6.2,-0.4 9.1,-1.4c0.7,-0.2 1.6,-0.5 2.3,-0.8c3.4,-1.4 6.5,-3.5 9.4,-6.4c2.7,-2.7 4.8,-5.7 6.3,-9m0.8,-37.7c0.3,0.2 0.4,0.5 0.7,0.6c6.9,7.3 10.3,16 10.3,26c0,10.4 -3.6,19.3 -11,26.6c-7.1,7.1 -15.6,10.7 -25.6,11l-1.1,0l-0.1,0c-8.7,0 -16.9,-2.3 -24.5,-6.8c-7,-4.1 -12.8,-8.2 -17.4,-12.2c-5.8,-5 -11.5,-5 -17.3,0c-4.5,4 -10.3,8.1 -17.3,12.2c-7.7,4.5 -15.8,6.8 -24.5,6.8l-0.2,0l-1.1,0c-9.9,-0.3 -18.5,-3.9 -25.5,-11c-7.4,-7.3 -11.1,-16.2 -11.1,-26.6c0,-10 3.5,-18.7 10.4,-26c0.2,-0.1 0.4,-0.4 0.7,-0.6c7.3,-7.4 16.2,-11 26.6,-11c2.7,0 5.2,0.2 7.6,0.6c1,0.3 2,0.5 3,0.8l13.1,3c1.2,0.5 2.5,1.1 3.7,1.6c1.9,0.9 3.5,1.8 4.8,2.7c-0.3,-0.7 -0.7,-1.6 -1.2,-2.8c-0.7,-1.7 -1.2,-2.8 -1.4,-3.3c-0.6,-1.6 -2.7,-3.6 -6.5,-6.1c-1.2,-0.9 -2.4,-1.6 -3.4,-2.4c-1.2,-0.5 -1.9,-0.9 -2.2,-1c-0.6,-0.5 -1.2,-0.9 -1.8,-1.3l-0.3,-0.2c-0.1,0 -0.2,-0.1 -0.2,-0.1c-1.8,-1.5 -3.2,-3.2 -4.3,-5.1c-0.4,-0.6 -1.2,-2.3 -2.7,-5.3c-0.6,-1.1 -1.3,-2.9 -2.2,-5.2c-0.8,-2.3 -1.6,-4 -2.2,-5.3c-0.5,-0.9 -1.1,-1.7 -1.8,-2.5c-0.6,-0.7 -1.4,-1.4 -2.3,-2c-1.4,-1.1 -2.8,-1.9 -4.2,-2.5c-0.3,-0.1 -0.7,-0.3 -1.1,-0.5c-9.4,-3.2 -17.2,-1.9 -23.7,4.2c-0.5,0.4 -1.1,0.9 -1.6,1.4c-2.7,2.7 -6.7,8.5 -12.1,17.5c-5.5,9.2 -10.7,16.2 -15.6,21.2c-7,7.3 -15.5,13.2 -25.5,17.5c-7.6,2.1 -15.5,2.1 -23.7,0c-13.7,-3.2 -24.3,-10 -31.8,-20.3c-4.5,-6 -7.5,-12.4 -8.8,-18.8c-0.8,-3.2 -1.2,-6.7 -1.2,-10.3l0,-6.3c0.1,-1 0.9,-3.8 2.3,-8.5c0.6,-2.3 2.4,-5.1 5.2,-8.5c2.5,-2.9 4.9,-4.7 7.1,-5.6c-0.5,0.7 -0.9,1.5 -1.2,2.3c-0.5,1 -0.9,2.1 -1.2,3.2c-0.1,0.4 -0.2,0.6 -0.2,1c-0.4,0.4 -0.5,1.1 -0.6,2c-0.6,2.1 -1.1,3.7 -1.5,4.8c-0.3,0.7 -0.4,1.3 -0.6,2.1c-0.8,3 -1.2,6.2 -1.2,9.7c0,2.7 0.8,6 2.2,10.1c1.5,4.3 3.1,7.3 4.8,9.2c2.7,2.9 4.2,4.5 4.4,4.7c2,1.9 4.1,3.4 6.4,4.6c5.9,3.1 9.9,4.8 12.2,5.1c1.7,0.4 3.3,0.6 4.9,0.6c4.2,0 8.3,-0.5 12.1,-1.5c12.3,-3.8 21.7,-12.4 28.2,-25.6c1.7,-3.7 4.8,-8.4 9.2,-14.2c1.3,-1.2 3.3,-3.6 5.9,-7c1.5,-1.9 3.5,-4 5.8,-6c3.2,-2.8 8.1,-5.9 14.8,-9.2c6.6,-3.3 11.5,-5.1 14.5,-5.5c2.9,-0.4 5.4,-0.6 7.5,-0.5c2,0 3,-0.1 3,-0.4c-2.6,-0.6 -6,-0.9 -10,-0.9c-6.3,0 -11.4,0.7 -15.2,1.9c-2.2,0.8 -4.7,2.1 -7.6,4c-9.2,6.6 -18.7,8.5 -28.6,5.6c-1.9,-0.7 -3.6,-1.7 -5.2,-2.9c-3.3,-2.3 -5.9,-5.7 -7.6,-9.8c-0.2,-0.4 -0.3,-0.9 -0.5,-1.3c0,-0.1 -0.1,-0.2 -0.2,-0.4l0.1,0c-1.1,-4.1 -1.6,-8.7 -1.3,-13.8c0.1,-5.4 1.5,-9.7 4,-13.1c2.5,-3.4 4.2,-5.7 5.3,-6.9c3.2,-3.1 6.6,-5.3 10.3,-6.5c2.9,-0.9 5.5,-1.8 7.8,-2.3c-7.6,-1.5 -13.7,-5.2 -18.3,-11.2c-4,-5.2 -6,-10.4 -6,-15.5c0,-2 0.2,-3.7 0.5,-5.2c0.4,-1.5 1,-3.3 1.9,-5.2c0.8,-1.8 1.8,-3.4 2.9,-4.8c2.8,-5 7.2,-8.2 12.8,-9.4c1.6,-0.3 3.4,-0.6 5.2,-0.6l4.3,0c3.1,0.5 6.3,1.2 9.7,2.3c1.1,0.3 2.1,0.6 3.1,1c-3.6,-3.8 -6.1,-7.2 -7.7,-10c-6.6,-9.8 -9.2,-19.6 -8.1,-29.3c0.5,-4.8 2,-9.5 4.5,-14.3c6.2,-10.6 16.4,-16.8 30.8,-18.8c4.9,-0.3 9.6,0 14,0.9c8.5,2 15.5,6.3 20.9,13.1c1.8,2.2 3.6,4.9 5.1,7.7c0.2,0.5 0.5,1 0.7,1.5l1.3,2.9c-1.4,-2.2 -2.3,-3.5 -2.7,-4c-0.1,0 -0.1,0 -0.2,-0.1c-3.5,-3.4 -5.5,-5.3 -6.1,-5.7c-0.4,-0.3 -0.8,-0.6 -1.1,-0.8c-0.8,-0.4 -1.5,-0.8 -2.3,-1.3c-6.5,-3.5 -13.6,-5.2 -21.5,-5.2c-1.3,0 -2.5,0 -3.6,0.2c-0.4,0 -0.9,0 -1.3,0.1c-14.8,2.7 -21.9,10.5 -21.1,23.3l0,0.5c0.2,6.8 2.8,13.4 7.8,19.8c0.7,0.9 1.4,1.7 2.1,2.4c0.1,0.1 0.1,0.2 0.3,0.3c5.6,5.5 12.9,10.2 22.2,14.3c1.7,1 3.6,2.1 5.5,3.1c0.2,0.1 0.5,0.4 0.8,0.5c1.2,0.6 2.3,1.2 3.6,1.8c3.2,1.6 6.6,3.1 10.2,4.5c3.8,1.6 7.9,3.8 12,6.9c0,0.1 0.1,0.2 0.2,0.2c1.3,1.3 3.3,3.4 6,6.4c3.2,3.6 6,7.6 8.4,12c2,3.6 3.9,7.9 5.7,12.7c0.6,2.2 1.2,4 1.7,5.7c0.1,0.3 0.3,0.7 0.4,1l0,2.3c0.1,-0.3 0.2,-0.7 0.4,-1.1c0.2,-0.4 0.2,-0.8 0.4,-1.2c0.2,-0.3 0.3,-0.7 0.3,-1c0.5,-1.7 1.1,-3.5 1.8,-5.7c1.7,-4.8 3.7,-9.1 5.7,-12.7c2.4,-4.4 5.1,-8.4 8.4,-12c2.6,-3 4.6,-5.1 6,-6.4c0,0 0.1,-0.1 0.1,-0.2c4.2,-3.1 8.3,-5.3 12.1,-6.9c3.6,-1.4 7,-2.9 10.2,-4.5c1.2,-0.6 2.4,-1.2 3.6,-1.8c0.2,-0.1 0.6,-0.4 0.8,-0.5c1.9,-1 3.7,-2.1 5.4,-3.1c9.3,-4.1 16.7,-8.8 22.3,-14.3c0.1,-0.1 0.2,-0.2 0.3,-0.3c0.7,-0.7 1.3,-1.5 2.1,-2.4c5,-6.4 7.6,-13 7.7,-19.8l0,-0.5c0.9,-12.8 -6.2,-20.6 -21.1,-23.3c-0.4,-0.1 -0.8,-0.1 -1.2,-0.1c-1.2,-0.2 -2.3,-0.2 -3.6,-0.2c-7.9,0 -15.1,1.7 -21.6,5.2c-0.4,0.3 -0.8,0.5 -1.2,0.8c-0.8,0.4 -1.5,0.9 -2.2,1.3c-0.5,0.4 -2.3,2.1 -5.6,5.2l-0.5,0.5c0,0.1 -0.1,0.1 -0.1,0.1c-0.4,0.5 -1.4,1.8 -2.8,4l1.4,-2.9c0.3,-0.7 0.6,-1.3 1,-2c1.5,-2.9 3.4,-5.5 5.3,-7.8c5.3,-6.4 12.1,-10.6 20.3,-12.5c4.5,-0.9 9.2,-1.2 14,-0.9c14.4,2 24.7,8.2 30.9,18.8c2.4,4.8 3.9,9.5 4.5,14.3c1.1,9.7 -1.6,19.5 -8.1,29.3c-1.6,2.8 -4.1,6.2 -7.7,10c0.9,-0.4 1.9,-0.7 3.1,-1c3.3,-1.1 6.6,-1.8 9.6,-2.3l4.4,0c1.8,0 3.6,0.3 5.2,0.6c5.6,1.2 9.9,4.4 12.8,9.4c1.1,1.4 2.1,3 2.9,4.8c0.9,1.9 1.5,3.7 1.8,5.2c0.4,1.5 0.5,3.2 0.5,5.2c0,5.1 -2,10.3 -6,15.5c-4.6,6 -10.6,9.7 -18.2,11.2c2.3,0.5 4.8,1.4 7.7,2.3c3.8,1.2 7.2,3.4 10.4,6.5c1,1.2 2.8,3.5 5.2,6.9c2.5,3.4 3.9,7.7 4.1,13.1c0.2,5.1 -0.2,9.7 -1.3,13.8c0,0.2 -0.1,0.3 -0.1,0.4c-0.2,0.4 -0.3,0.9 -0.5,1.3c-1.8,4.1 -4.3,7.5 -7.7,9.8c-1.5,1.2 -3.2,2.2 -5.2,2.9c-9.9,2.9 -19.4,1 -28.5,-5.6c-3,-1.9 -5.5,-3.2 -7.6,-4c-3.9,-1.2 -8.9,-1.9 -15.2,-1.9c-4.1,0 -7.4,0.3 -10,0.9c0,0.3 1,0.4 3,0.4c2,-0.1 4.5,0.1 7.5,0.5c2.9,0.4 7.8,2.2 14.4,5.5c6.8,3.3 11.7,6.4 14.9,9.2c2.3,2 4.2,4.1 5.8,6c2.6,3.4 4.6,5.8 5.9,7c4.4,5.8 7.4,10.5 9.2,14.2c6.5,13.2 15.9,21.8 28.1,25.6c3.9,1 8,1.5 12.2,1.5c1.5,0 3.2,-0.2 4.8,-0.6c2.4,-0.3 6.4,-2 12.2,-5.1c2.3,-1.2 4.4,-2.7 6.4,-4.6c0.3,-0.2 1.8,-1.8 4.4,-4.7c1.7,-1.9 3.4,-4.9 4.9,-9.2c1.4,-4.1 2.1,-7.4 2.1,-10.1c0,-3.5 -0.4,-6.7 -1.1,-9.7c-0.2,-0.8 -0.4,-1.4 -0.7,-2.1c-0.3,-1.1 -0.8,-2.7 -1.5,-4.8c0,-0.9 -0.1,-1.6 -0.5,-2c-0.1,-0.4 -0.1,-0.6 -0.2,-1c-0.4,-1.1 -0.8,-2.2 -1.2,-3.2c-0.3,-0.8 -0.8,-1.6 -1.2,-2.3c2.1,0.9 4.5,2.7 7,5.6c2.9,3.4 4.6,6.2 5.3,8.5c1.3,4.7 2.1,7.5 2.2,8.5c0.1,0.3 0.1,2.4 0.1,6.3c0,3.6 -0.4,7.1 -1.2,10.3c-1.4,6.4 -4.4,12.8 -8.8,18.8c-7.6,10.3 -18.1,17.1 -31.8,20.3c-8.3,2.1 -16.2,2.1 -23.7,0c-10,-4.3 -18.6,-10.2 -25.6,-17.5c-4.9,-5 -10,-12 -15.5,-21.2c-5.5,-9 -9.5,-14.8 -12.1,-17.5c-0.5,-0.5 -1.1,-1 -1.6,-1.4c-6.5,-6.1 -14.4,-7.4 -23.8,-4.2c-0.3,0.2 -0.7,0.4 -1,0.5c-1.5,0.6 -2.9,1.4 -4.2,2.5c-0.9,0.6 -1.8,1.3 -2.4,2c-0.6,0.8 -1.2,1.6 -1.8,2.5c-0.6,1.3 -1.3,3 -2.2,5.3c-0.9,2.3 -1.5,4.1 -2.1,5.2c-1.5,3 -2.4,4.7 -2.7,5.3c-1.1,1.9 -2.6,3.6 -4.3,5.1l-0.2,0.1l-0.3,0.2c-0.6,0.4 -1.3,0.8 -1.9,1.3c-0.3,0.1 -0.9,0.5 -2.1,1c-1,0.8 -2.2,1.5 -3.4,2.4c-3.8,2.5 -5.9,4.5 -6.5,6.1c-0.2,0.5 -0.7,1.6 -1.4,3.3c-0.6,1.2 -1,2.1 -1.2,2.8c1.2,-0.9 2.8,-1.8 4.7,-2.7c1.3,-0.5 2.5,-1.1 3.8,-1.6l13.1,-3c1,-0.3 2,-0.5 3,-0.8c2.4,-0.4 4.9,-0.6 7.5,-0.6c10.5,0 19.4,3.6 26.7,11"/>
   </g>
   <g id="g3019">
    <path fill="#ffffff" fill-rule="nonzero" id="path3021" d="m108.926859,624.668562c1.3,-0.7 2.5,-1.5 3.6,-2.7c2.5,-2.5 3.8,-5.6 3.8,-9.2c0,-3.6 -1.3,-6.7 -3.8,-9.2c-0.5,-0.5 -1,-0.9 -1.5,-1.4c-2.3,-1.6 -4.9,-2.5 -7.8,-2.5c-1.5,0 -2.9,0.2 -4.2,0.6c-0.4,0.2 -0.7,0.3 -1,0.4l0.1,0c1,0 1.9,0.3 2.6,0.7c0.2,0.1 0.4,0.2 0.5,0.3c0.2,0.1 0.3,0.2 0.4,0.3c1,1 1.5,2.2 1.5,3.8c0,0.9 -0.2,1.7 -0.7,2.6c-0.4,0.8 -0.9,1.3 -1.6,1.7c-0.7,0.4 -1.6,0.7 -2.7,0.7c-1.7,0 -3,-0.6 -4,-2c-0.6,-1 -1,-2 -1,-3c0,-0.3 0,-0.5 0.1,-0.8c0,-0.3 0.1,-0.5 0.2,-0.8c-2.3,2.4 -3.3,5.3 -3.3,8.6l0,1.7c0.4,2.9 1.7,5.4 3.9,7.5c0.6,0.7 1.2,1.3 1.9,1.7l0.1,0c2.1,1.5 4.5,2.3 7.2,2.3c1.5,0 2.9,-0.3 4.3,-0.7c0.3,-0.1 0.6,-0.3 1,-0.5c0.1,0 0.2,-0.1 0.4,-0.1m23.2,10.5c-0.4,2 -1,3.8 -1.7,5.6c-1.5,3.3 -3.6,6.3 -6.3,9c-2.9,2.9 -6,5 -9.4,6.4c-0.7,0.3 -1.6,0.6 -2.3,0.8c-2.9,1 -5.9,1.4 -9.1,1.4c-8.2,0 -15.1,-2.9 -20.8,-8.6l-0.3,-0.3c-0.8,-0.8 -1.6,-1.7 -2.3,-2.7c-2.8,-3.5 -4.6,-7.4 -5.4,-11.7l-0.6,-5.6l0,-0.5l0.6,-5.7c0.7,-4.5 2.6,-8.5 5.4,-12.1c0.7,-1 1.7,-2 2.6,-3c5.1,-5.1 11.1,-8 18.2,-8.5c0.9,0 1.8,-0.1 2.6,-0.1c1.8,0 3.4,0.1 5.1,0.4c3.6,0.6 7,1.8 10.1,3.7c2,1.3 3.9,2.8 5.6,4.5c0.2,0.2 0.4,0.4 0.6,0.6c0.6,0.7 1.2,1.3 1.7,2c2.6,3.1 4.3,6.6 5.3,10.4c0.3,1 0.4,1.9 0.6,2.8l0.4,5l0,0.5l-0.6,5.7z"/>
   </g>
   <g id="g3023">
    <path fill="#000000" fill-rule="nonzero" id="path3025" d="m112.526957,621.968855c-1.1,1.2 -2.3,2 -3.6,2.7c-0.2,0 -0.3,0.1 -0.4,0.1c-0.4,0.2 -0.7,0.4 -1,0.5c-1.4,0.4 -2.8,0.7 -4.3,0.7c-2.7,0 -5.1,-0.8 -7.2,-2.3l-0.1,0c-0.7,-0.4 -1.3,-1 -1.9,-1.7c-2.2,-2.1 -3.5,-4.6 -3.9,-7.5l0,-1.7c0,-3.3 1,-6.2 3.3,-8.6c-0.1,0.3 -0.2,0.5 -0.2,0.8c-0.1,0.3 -0.1,0.5 -0.1,0.8c0,1 0.4,2 1,3c1,1.4 2.3,2 4,2c1.1,0 2,-0.3 2.7,-0.7c0.7,-0.4 1.2,-0.9 1.6,-1.7c0.5,-0.9 0.7,-1.7 0.7,-2.6c0,-1.6 -0.5,-2.8 -1.5,-3.8c-0.1,-0.1 -0.2,-0.2 -0.4,-0.3c-0.1,-0.1 -0.3,-0.2 -0.5,-0.3c-0.7,-0.4 -1.6,-0.7 -2.6,-0.7l-0.1,0c0.3,-0.1 0.6,-0.2 1,-0.4c1.3,-0.4 2.7,-0.6 4.2,-0.6c2.9,0 5.5,0.9 7.8,2.5c0.5,0.5 1,0.9 1.5,1.4c2.5,2.5 3.8,5.6 3.8,9.2c0,3.6 -1.3,6.7 -3.8,9.2"/>
   </g>
   <g id="g3027">
    <path fill="#678c5d" fill-rule="nonzero" id="path3029" d="m165.026957,570.168562c-0.1,-0.1 -0.2,-0.2 -0.4,-0.2c0.1,-0.2 0.1,-0.3 0.1,-0.4c0.2,0.2 0.3,0.4 0.3,0.6"/>
   </g>
   <g id="g3031">
    <path fill="#169300" fill-rule="nonzero" id="path3033" d="m172.727152,526.068953c0,1.5 -0.5,2.9 -1.6,4.1c-1.5,1.5 -3.7,2.5 -6.7,2.8l-2.8,0c-1.5,0 -2.9,-0.3 -4.2,-0.8c-2.3,-0.6 -4.4,-1.7 -6.3,-3.4c-0.3,-0.2 -1.3,-1.2 -3,-3.1l0,-0.1l-0.1,0c-0.4,-0.3 -0.5,-0.5 -0.7,-0.8l-0.1,0c-0.1,-0.1 -0.1,-0.1 -0.2,-0.3c-0.4,-1.4 -1.8,-3.3 -3.9,-5.7c-1.8,-1.9 -3.9,-3.8 -6.2,-5.7c-2.3,-1.9 -5.5,-3.9 -9.8,-5.9c-4.7,-2.4 -8.2,-3.5 -10.6,-3.6l-0.1,0l-0.2,0c-1.5,-0.3 -3.1,-0.5 -5.1,-0.7c0,0.1 0,0.1 0.1,0.1c-0.8,0 -1.6,0 -2,-0.1l-0.6,0c0,0.1 -0.2,0.1 -0.5,0.2l-0.5,0c-0.1,-0.1 -0.2,-0.1 -0.3,-0.1c0.3,0 0.8,-0.1 1.2,-0.2c0.7,-0.1 1.4,-0.1 2,-0.2l5.6,0c0.4,0.1 0.6,0.1 1,0.1c1.1,0.1 2.4,0.3 3.5,0.4c7,0.8 13,1.6 17.7,2.5c4.9,0.8 9.6,1.9 14.2,3.1c6.3,1.8 10.8,4 13.4,6.5c0.2,0.3 0.5,0.6 0.7,0.9c0.4,0.2 0.7,0.5 1,0.7c3.2,2.6 4.9,5.2 5,7.6c0,0.2 0.1,0.3 0.1,0.4l0,0.1l0,1.2z"/>
   </g>
   <g id="g3035">
    <path fill="#169300" fill-rule="nonzero" id="path3037" d="m111.727152,486.068953c-0.9,0.3 -2.4,0.9 -4.5,1.6c-2,0.7 -3.5,1.3 -4.5,1.7c-2.7,1.3 -5.6,2.8 -8.3,4.7c-2.8,1.7 -5.1,3.5 -6.9,5.1c-2.9,2.6 -5.9,6 -9.2,10.2c-0.4,0.5 -1.1,1.3 -1.9,2.6c-0.3,0.3 -0.5,0.7 -0.8,1.1c0,-0.3 0.1,-0.6 0.1,-0.9c0.3,-0.6 0.6,-1.4 1.1,-2.2c0.6,-0.9 1,-1.7 1.3,-2c1,-1.8 2.9,-4.5 5.5,-8.3c1.6,-2.4 4.2,-5.1 7.8,-8.2l0.1,-0.2c0.3,-0.1 0.6,-0.3 0.9,-0.5c2.4,-1.7 5,-3.2 7.7,-4.5c3.6,-1.5 7.2,-3 10.8,-4.2c0.7,-0.3 1.5,-0.5 2.2,-0.8c0.8,-0.3 1.9,-0.7 3.2,-1.2c0.1,-0.5 0.2,-1.1 0.3,-1.9c0.8,0.3 1.4,0.5 1.9,0.5c0.5,0.1 0.9,0.2 1.2,0.3c0.5,0 0.9,0 1.2,-0.2l0.2,0c0.4,0.1 0.6,0.2 0.9,0.2l0.1,0c0.1,0.1 0.1,0.1 0.2,0.1c1.6,0.1 2.9,0.2 4.2,0.4c0.4,0 0.7,0.1 1.1,0.2l0.7,0c4.7,0.6 7.8,1 9.2,1.3l4.7,0c2.7,0.2 4.7,0.5 5.9,0.6l0.5,0l0,0.1l-10.1,0c-0.4,0 -0.8,0.1 -1.2,0.2c-0.7,0.1 -1.8,0.1 -3.5,0.2c-2.9,0.2 -5.6,0.6 -8.1,0.9c-2.2,0.3 -4.3,0.7 -6.2,1.1c-1.4,0.2 -2.9,0.6 -4.9,1.1c-0.9,0.3 -1.7,0.6 -2.7,0.9l-0.2,0z"/>
   </g>
   <g id="g3039">
    <path fill="#678c5d" fill-rule="nonzero" id="path3041" d="m133.426859,477.26866c-0.3,0 -0.5,0 -0.8,-0.1l1,0c0,0.1 -0.1,0.1 -0.2,0.1"/>
   </g>
   <g id="g3043">
    <path fill="#169300" fill-rule="nonzero" id="path3045" d="m113.627054,454.068953c1.4,-0.4 2.6,-0.9 3.8,-1.2c0.8,-0.4 1.5,-0.7 2.1,-1c2.6,-1.3 5,-2.4 7,-3.4c0.6,-0.3 1.3,-0.6 1.9,-0.9l-0.3,0c1.4,-0.7 2.5,-1.2 3.4,-1.8c3.6,-2.1 6.5,-3.8 8.6,-4.9c2.6,-0.9 5.5,-1.7 8.5,-2.6c1.5,-0.4 2.9,-0.7 4.1,-1.1c2.1,-0.2 3.4,-0.3 3.9,-0.3c4.5,0 8,1.3 10.5,4c0.4,0.3 0.6,0.8 0.9,1.5c0.1,0 0.1,0.2 0.1,0.2c0,0.2 0,0.4 -0.1,0.6c0.1,0.9 0.1,1.4 0.1,1.4c0,1.5 -0.7,2.8 -2.2,4c-0.9,0.8 -2.2,1.5 -3.8,2.3c-1.2,1 -3.6,2.1 -7.2,3.2c-3.7,1.1 -7,1.9 -9.9,2.3c-3.1,0.5 -6.9,1.2 -11.4,2c-1.7,0.3 -3.6,0.5 -5.7,0.7c-1.5,0.1 -3,0.3 -4.7,0.5c-2.7,0.2 -5.6,0.5 -8.9,0.6l-15.3,0l-0.5,0.2l-5.5,0l-0.5,0.1l-8.8,0c-2.7,-0.1 -6.1,-0.6 -9.9,-1.5c-1.2,-0.3 -2.2,-0.5 -3.2,-0.8l0.6,0l1.1,0l10.5,0l1.5,-0.2l4,0c3.7,-0.1 7,-0.4 10.1,-0.9l2.4,0c1.8,-0.4 2.9,-0.7 3.4,-0.9c0.2,0 0.3,0 0.3,-0.1c3.4,-0.6 6.5,-1.3 9.1,-2"/>
   </g>
   <g id="g3047">
    <path fill="#ffffff" fill-rule="nonzero" id="path3049" d="m17.627054,614.468855c0,-0.5 0.1,-1.1 0.1,-1.7c0,-3.3 -1.1,-6.2 -3.3,-8.6c0.1,0.3 0.1,0.5 0.2,0.8l0,0.8c0,1 -0.4,2 -1,3c-1,1.4 -2.2,2 -4,2c-1,0 -1.9,-0.3 -2.6,-0.7c-0.7,-0.4 -1.3,-0.9 -1.6,-1.7c-0.5,-0.9 -0.8,-1.7 -0.8,-2.6c0,-1.6 0.5,-2.8 1.5,-3.8c0.2,-0.1 0.3,-0.2 0.5,-0.3c0.1,-0.1 0.3,-0.2 0.4,-0.3c0.7,-0.4 1.6,-0.7 2.6,-0.7l0.2,0c-0.3,-0.1 -0.7,-0.2 -1.1,-0.4c-1.2,-0.4 -2.6,-0.6 -4.1,-0.6c-3,0 -5.5,0.9 -7.8,2.5c-0.6,0.5 -1.1,0.9 -1.5,1.4c-2.6,2.5 -3.8,5.6 -3.8,9.2c0,3.6 1.2,6.7 3.8,9.2c1.1,1.2 2.3,2 3.6,2.7c0.1,0 0.2,0.1 0.4,0.1c0.3,0.2 0.7,0.4 1,0.5c1.3,0.4 2.8,0.7 4.3,0.7c2.6,0 5,-0.8 7.2,-2.3l0.1,0c0.6,-0.4 1.2,-1 1.9,-1.7c2.2,-2.1 3.4,-4.6 3.8,-7.5m15.7,20.6c-0.8,4.3 -2.7,8.2 -5.4,11.7c-0.8,1 -1.5,1.9 -2.3,2.7c-0.1,0.1 -0.2,0.2 -0.4,0.3c-5.7,5.7 -12.6,8.6 -20.7,8.6c-3.3,0 -6.3,-0.4 -9.1,-1.4c-0.8,-0.2 -1.6,-0.5 -2.3,-0.8c-3.5,-1.4 -6.6,-3.5 -9.5,-6.4c-2.6,-2.7 -4.7,-5.7 -6.2,-9c-0.8,-1.8 -1.4,-3.6 -1.8,-5.6l-0.5,-5.7l0,-0.5l0.4,-5c0.1,-0.9 0.3,-1.8 0.6,-2.8c1,-3.8 2.7,-7.3 5.3,-10.4c0.5,-0.7 1.1,-1.3 1.7,-2c0.1,-0.2 0.4,-0.4 0.5,-0.6c1.8,-1.7 3.6,-3.2 5.6,-4.5c3.2,-1.9 6.5,-3.1 10.2,-3.7c1.7,-0.3 3.3,-0.4 5.1,-0.4c0.8,0 1.7,0.1 2.6,0.1c7,0.5 13,3.4 18.1,8.5c1,1 1.9,2 2.7,3c2.8,3.6 4.6,7.6 5.4,12.1l0.6,5.7l0,0.5l-0.6,5.6z"/>
   </g>
   <g id="g3051">
    <path fill="#000000" fill-rule="nonzero" id="path3053" d="m17.727152,612.76866c0,0.6 -0.1,1.2 -0.1,1.7c-0.4,2.9 -1.6,5.4 -3.8,7.5c-0.7,0.7 -1.3,1.3 -1.9,1.7l-0.1,0c-2.2,1.5 -4.6,2.3 -7.2,2.3c-1.5,0 -3,-0.3 -4.3,-0.7c-0.3,-0.1 -0.7,-0.3 -1,-0.5c-0.2,0 -0.3,-0.1 -0.4,-0.1c-1.3,-0.7 -2.5,-1.5 -3.6,-2.7c-2.6,-2.5 -3.8,-5.6 -3.8,-9.2c0,-3.6 1.2,-6.7 3.8,-9.2c0.4,-0.5 0.9,-0.9 1.5,-1.4c2.3,-1.6 4.8,-2.5 7.8,-2.5c1.5,0 2.9,0.2 4.1,0.6c0.4,0.2 0.8,0.3 1.1,0.4l-0.2,0c-1,0 -1.9,0.3 -2.6,0.7c-0.1,0.1 -0.3,0.2 -0.4,0.3c-0.2,0.1 -0.3,0.2 -0.5,0.3c-1,1 -1.5,2.2 -1.5,3.8c0,0.9 0.3,1.7 0.8,2.6c0.3,0.8 0.9,1.3 1.6,1.7c0.7,0.4 1.6,0.7 2.6,0.7c1.8,0 3,-0.6 4,-2c0.6,-1 1,-2 1,-3l0,-0.8c-0.1,-0.3 -0.1,-0.5 -0.2,-0.8c2.2,2.4 3.3,5.3 3.3,8.6"/>
   </g>
   <g id="g3055">
    <path fill="#678c5d" fill-rule="nonzero" id="path3057" d="m53.627054,641.468855l-0.2,0l0.1,0l0.1,0z"/>
   </g>
   <g id="g3059">
    <path fill="#169300" fill-rule="nonzero" id="path3061" d="m30.426859,541.76866c0,-0.4 -0.2,-0.7 -0.3,-1.1c-1,-5.5 0.1,-10.8 3.5,-16c3.5,-5.3 8.4,-8.5 14.8,-9.5c1.6,-0.4 3.3,-0.5 5.1,-0.5l0.2,0l0.4,0l0.2,0c1.8,0 3.4,0.1 5.1,0.5c6.3,1 11.2,4.2 14.7,9.5c3.5,5.2 4.6,10.5 3.5,16c-0.1,0.4 -0.2,0.7 -0.2,1.1c-0.2,0.1 -0.2,0.4 -0.3,0.9c-0.2,-1 -0.5,-2 -0.9,-2.6c-1.2,-2.6 -2.7,-5.1 -4.6,-7.4c-5,-6.4 -10.7,-9.7 -17.3,-10l-0.4,0l-0.4,0c-6.5,0.3 -12.3,3.6 -17.4,10c-1.8,2.3 -3.4,4.8 -4.6,7.4c-0.3,0.6 -0.6,1.6 -0.9,2.6c0,-0.5 -0.1,-0.8 -0.2,-0.9"/>
   </g>
   <g id="g3063">
    <path fill="#000000" fill-rule="nonzero" id="path3065" d="m54.82725,559.468855c1.3,1.2 3.3,1.8 6,1.6c1.1,-0.1 2.1,-0.3 3,-0.6c3.8,-1.6 5.4,-4.3 5.1,-8.2c-0.4,-2.2 -1.8,-5.1 -4.3,-8.4c-3.2,-4.3 -6.6,-6.7 -10.3,-7l-0.4,0l-0.3,0l-0.1,0c-3.7,0.3 -7.1,2.7 -10.4,7c-2.4,3.3 -3.9,6.2 -4.2,8.4c-0.4,3.9 1.3,6.6 5.1,8.2c0.9,0.3 1.9,0.5 3,0.6c2.6,0.2 4.6,-0.3 6,-1.6c-1.9,-1.8 -2.1,-4.3 -0.5,-7.7c0.5,3.6 1,5.8 1.4,6.5c0.2,0.5 0.6,0.9 0.9,1.2m-12.5,-19c0.1,-0.2 0.2,-0.3 0.3,-0.4c2.6,-4 6.3,-6.2 10.9,-6.5l0,-0.1l0.6,0c0.1,0.1 0.1,0.1 0.2,0c4.6,0.3 8.3,2.5 10.9,6.6c0.1,0.1 0.2,0.2 0.3,0.4c0.9,1.3 1.9,3.1 3.1,5.3c5.5,10.8 9.3,21.8 11.2,33c-17.2,-2.6 -34.6,-2.6 -51.8,0c1.9,-11.2 5.6,-22.2 11.1,-33c1.3,-2.2 2.3,-4 3.2,-5.3"/>
   </g>
   <g id="g3067">
    <path fill="#d30000" fill-rule="nonzero" id="path3069" d="m53.026957,549.26866l0,0.3l0,-0.3zm7.8,11.8c-2.7,0.2 -4.7,-0.4 -6,-1.6c-0.3,-0.3 -0.7,-0.7 -0.9,-1.2c-0.4,-0.7 -0.9,-2.9 -1.4,-6.5c-1.6,3.4 -1.4,5.9 0.5,7.7c-1.4,1.3 -3.4,1.8 -6,1.6c-1.1,-0.1 -2.1,-0.3 -3,-0.6c-3.8,-1.6 -5.5,-4.3 -5.1,-8.2c0.3,-2.2 1.8,-5.1 4.2,-8.4c3.3,-4.3 6.7,-6.7 10.4,-7l0.1,0l0.3,0l0.4,0c3.7,0.3 7.1,2.7 10.3,7c2.5,3.3 3.9,6.2 4.3,8.4c0.3,3.9 -1.3,6.6 -5.1,8.2c-0.9,0.3 -1.9,0.5 -3,0.6"/>
   </g>
   <g id="g3071">
    <path fill="#000000" fill-rule="nonzero" id="path3073" d="m53.026957,549.568953l0,-0.3l0,0.3z"/>
   </g>
   <g id="g3075">
    <path fill="#678c5d" fill-rule="nonzero" id="path3077" d="m-56.872946,569.968855c-0.1,0 -0.2,0.1 -0.4,0.2c0.1,-0.2 0.2,-0.4 0.3,-0.6c0.1,0.1 0.1,0.2 0.1,0.4"/>
   </g>
   <g id="g3079">
    <path fill="#169300" fill-rule="nonzero" id="path3081" d="m-46.772848,511.968855c-0.4,0.1 -0.8,0.2 -1.2,0.3c0.3,-0.1 0.6,-0.1 1.1,-0.2c0,0 0.1,0 0.1,-0.1m-18.2,14.1l0,-1.2l0,-0.1c0.1,-0.1 0.1,-0.2 0.1,-0.4c0.2,-2.4 1.9,-5 5,-7.6c0.4,-0.2 0.6,-0.5 1,-0.7c0.3,-0.3 0.5,-0.6 0.8,-0.9c2.6,-2.5 7.1,-4.7 13.4,-6.5c4.6,-1.2 9.3,-2.3 14.2,-3.1c4.7,-0.9 10.6,-1.7 17.6,-2.5c1.5,-0.1 3,-0.4 4.5,-0.5l5.6,0c0.2,0 0.4,0 0.5,0.1c0.4,0 1,0.1 1.5,0.1c0.3,0.1 0.5,0.1 0.8,0.1c0,0.1 0.1,0.1 0.1,0.1l0.4,0c-0.1,0 -0.2,0 -0.3,0.1l-2.6,0c-0.2,0 -0.5,0 -0.7,0.1l-0.5,0c-0.8,-0.1 -1.8,0 -2.9,0.4c-0.8,0.1 -1.6,0.4 -2.5,0.7c-1.9,0.4 -4,1.2 -6.3,2.3c-0.6,0 -1.1,0.1 -1.6,0.1c0.3,0.1 0.6,0.2 1,0.1c-1.5,0.8 -3.2,1.7 -5,2.8c-0.2,0.1 -0.5,0.1 -0.9,0.2c-0.7,0.4 -1.5,0.9 -2.2,1.4c-1.4,0.8 -2.4,1.6 -3.2,2.3c-2.2,1.3 -4.3,3.1 -6.5,5.2c0,0 0,0.1 0.1,0.2c-0.4,0.3 -0.8,0.6 -1.2,0.9c-0.2,0.3 -0.4,0.4 -0.6,0.7c-0.5,0.6 -1.1,1.1 -1.5,1.7c-1,1 -1.9,1.9 -2.6,2.6c-2.3,2.4 -3.5,3.8 -3.8,4c-2,1.7 -4.1,2.8 -6.3,3.4c-1.3,0.5 -2.8,0.8 -4.3,0.8l-2.7,0c-3,-0.3 -5.3,-1.3 -6.7,-2.8c-1.1,-1.2 -1.7,-2.6 -1.7,-4.1"/>
   </g>
   <g id="g3083">
    <path fill="#59a056" fill-rule="nonzero" id="path3085" d="m-47.973043,512.26866c0.4,-0.1 0.8,-0.2 1.2,-0.3c0,0.1 -0.1,0.1 -0.1,0.1c-0.5,0.1 -0.8,0.1 -1.1,0.2"/>
   </g>
   <g id="g3087">
    <path fill="#169300" fill-rule="nonzero" id="path3089" d="m-60.272848,443.168562c0,-0.2 0,-0.4 -0.1,-0.6c0.1,0 0.1,-0.2 0.1,-0.2c0.3,-0.7 0.6,-1.2 0.9,-1.5c2.5,-2.7 6,-4 10.6,-4c0.5,0 1.8,0.1 3.8,0.3c1.2,0.4 2.6,0.7 4.1,1.1c3,0.9 6,1.7 8.6,2.6c2,1.1 4.9,2.8 8.6,4.9c0.9,0.6 2,1.1 3.3,1.8l-0.2,0c1.2,0.6 2.5,1.1 4,1.9c1.4,0.7 3.1,1.5 4.8,2.4c0.7,0.3 1.4,0.6 2.2,1c1.1,0.3 2.3,0.8 3.7,1.2l0.1,0c2.7,0.7 5.7,1.4 9,2c0.1,0.1 0.2,0.1 0.3,0.1c0.6,0.2 1.7,0.5 3.5,0.9l2.4,0c0.5,0.1 0.9,0.1 1.3,0.1c2.7,0.4 5.6,0.7 8.8,0.8l4,0l1.5,0.2l10.5,0l1,0l0.6,0c-0.9,0.3 -2,0.5 -3.1,0.8c-3.9,0.9 -7.2,1.4 -10,1.5l-8.8,0l-0.4,-0.1l-5.6,0l-0.4,-0.2l-15.3,0c-3.3,-0.1 -6.3,-0.4 -8.9,-0.6c-0.9,-0.1 -1.7,-0.2 -2.5,-0.2c-3,-0.3 -5.6,-0.7 -7.9,-1c-4.6,-0.8 -8.3,-1.5 -11.4,-2c-2.9,-0.4 -6.2,-1.2 -9.9,-2.3c-3.7,-1.1 -6,-2.2 -7.3,-3.2c-1.5,-0.8 -2.8,-1.5 -3.7,-2.3c-1.5,-1.2 -2.3,-2.5 -2.3,-4c0,0 0.1,-0.5 0.1,-1.4"/>
   </g>
   <g id="g3091">
    <path fill="#678c5d" fill-rule="nonzero" id="path3093" d="m32.127054,512.168562l0,0.9c-0.2,-0.4 -0.5,-0.8 -0.7,-1.1c-0.9,-1.3 -1.5,-2.1 -1.9,-2.6c-3.4,-4.2 -6.4,-7.6 -9.3,-10.2c-1.7,-1.6 -4.1,-3.4 -6.8,-5.1c-0.7,-0.4 -1.4,-0.9 -2.1,-1.4c-2.1,-1.2 -4.2,-2.4 -6.3,-3.3c-0.9,-0.4 -2.4,-1 -4.4,-1.7c-2.1,-0.7 -3.6,-1.3 -4.5,-1.6l-0.1,0l-0.1,0c-1,-0.3 -1.9,-0.6 -2.8,-0.9c-1.9,-0.5 -3.5,-0.9 -4.8,-1.1c-1.2,-0.3 -2.6,-0.5 -3.9,-0.8c-3.2,-0.5 -6.6,-0.9 -10.4,-1.2c-1.8,-0.1 -2.9,-0.1 -3.5,-0.2c-0.5,-0.1 -0.9,-0.2 -1.2,-0.2l-10.2,0l0,-0.1l0.5,0c1.3,-0.1 3.3,-0.4 5.9,-0.6l4.7,0c1.3,-0.2 3.8,-0.5 7.5,-1c0.5,-0.1 1,-0.2 1.6,-0.3l0.8,0c0.8,-0.2 1.6,-0.3 2.5,-0.4c0.3,-0.1 0.6,-0.1 0.9,-0.1l0.2,0c0.4,0 0.9,-0.1 1.4,-0.1l0.4,0c0,0 0.1,0 0.1,-0.1l0.1,0c0.3,0 0.6,-0.1 0.9,-0.2l0.3,0c0.5,0.3 1.3,0.2 2.3,-0.1c0.5,0 1.2,-0.2 2,-0.5c0,0.9 0.2,1.6 0.4,2.2c0.8,0.3 1.6,0.5 2.7,0.8c0.2,0.1 0.4,0.1 0.6,0.2c1.6,0.4 2.5,0.6 2.6,0.7c1.4,0.4 2.3,0.8 2.9,1.2c2.4,1 4.8,2 7.3,3c0.9,0.4 1.7,0.8 2.5,1.3c1.8,0.9 3.5,2 5.2,3.2c0.2,0.2 0.6,0.4 0.8,0.5l0.2,0.2c3.6,3.1 6.2,5.8 7.8,8.2c2.6,3.8 4.4,6.5 5.5,8.3c0.3,0.3 0.7,1.1 1.3,2c0.5,0.8 0.8,1.6 1,2.2l0.1,0z"/>
   </g>
   <g id="g3095">
    <path fill="#678c5d" fill-rule="nonzero" id="path3097" d="m-25.573141,477.26866c-0.1,0 -0.2,0 -0.3,-0.1l1,0c-0.2,0.1 -0.5,0.1 -0.7,0.1"/>
   </g>
   <g id="g3099">
    <path fill="#169300" fill-rule="nonzero" id="path3101" d="m176.727152,535.868757c2.4,2.7 4.9,6.5 7.4,11.7c1.5,2.9 3,6.1 4.4,9.5c0,0.1 0.1,0.1 0.1,0.1c0.3,0.6 0.5,1.1 0.6,1.6c0.1,0.3 0.2,0.5 0.3,0.8c0.2,0.6 0.4,1.2 0.6,1.8c0.4,0.8 0.8,1.6 1.1,2.3c0.8,2.4 1.5,4.3 2,5.8c0.6,1.4 1.2,2.8 1.8,4.1c4.2,11.3 11.6,15.8 22.1,13.5c2.8,-0.8 5.7,-2 8.6,-3.9c1.8,-1.1 3.5,-2.4 5,-3.7c9.7,-10.4 13,-23.3 10.1,-38.5c0.4,1 0.8,2.1 1.2,3.2c0.1,0.4 0.1,0.6 0.2,1c0.4,0.4 0.5,1.1 0.5,2c0.7,2.1 1.2,3.7 1.5,4.8c0.3,0.7 0.5,1.3 0.7,2.1c0.7,3 1.1,6.2 1.1,9.7c0,2.7 -0.7,6 -2.1,10.1c-1.5,4.3 -3.2,7.3 -4.9,9.2c-2.6,2.9 -4.1,4.5 -4.4,4.7c-2,1.9 -4.1,3.4 -6.4,4.6c-5.8,3.1 -9.8,4.8 -12.2,5.1c-1.6,0.4 -3.3,0.6 -4.8,0.6c-4.2,0 -8.3,-0.5 -12.2,-1.5c-12.2,-3.8 -21.6,-12.4 -28.1,-25.6c-1.8,-3.7 -4.8,-8.4 -9.2,-14.2c-1.3,-1.2 -3.3,-3.6 -5.9,-7c-1.6,-1.9 -3.5,-4 -5.8,-6c-3.2,-2.8 -8.1,-5.9 -14.9,-9.2c-6.6,-3.3 -11.5,-5.1 -14.4,-5.5c-3,-0.4 -5.5,-0.6 -7.5,-0.5c-2,0 -3,-0.1 -3,-0.4c2.6,-0.6 5.9,-0.9 10,-0.9c6.3,0 11.3,0.7 15.2,1.9c2.1,0.8 4.6,2.1 7.6,4c9.1,6.6 18.6,8.5 28.5,5.6c2,-0.7 3.7,-1.7 5.2,-2.9"/>
   </g>
   <g id="g3103">
    <path fill="#169300" fill-rule="nonzero" id="path3105" d="m133.426859,413.668562c-0.8,0.9 -1.4,1.7 -2.1,2.4c-0.1,0.1 -0.2,0.2 -0.3,0.3c-5.6,5.5 -13,10.2 -22.3,14.3c-1.7,1 -3.5,2.1 -5.4,3.1c-0.2,0.1 -0.6,0.4 -0.8,0.5c-1.2,0.6 -2.4,1.2 -3.6,1.8c-3.2,1.6 -6.6,3.1 -10.2,4.5c-3.8,1.6 -7.9,3.8 -12.1,6.9c0,0.1 -0.1,0.2 -0.1,0.2c-1.4,1.3 -3.4,3.4 -6,6.4c-3.3,3.6 -6,7.6 -8.4,12c-2,3.6 -4,7.9 -5.7,12.7c-0.7,2.2 -1.3,4 -1.8,5.7c0,0.3 -0.1,0.7 -0.3,1c-0.2,0.4 -0.2,0.8 -0.4,1.2c-0.2,0.4 -0.3,0.8 -0.4,1.1l0,-2.3c-0.1,-0.3 -0.3,-0.7 -0.4,-1c-0.5,-1.7 -1.1,-3.5 -1.7,-5.7c-1.8,-4.8 -3.7,-9.1 -5.7,-12.7c-2.4,-4.4 -5.2,-8.4 -8.4,-12c-2.7,-3 -4.7,-5.1 -6,-6.4c-0.1,0 -0.2,-0.1 -0.2,-0.2c-4.1,-3.1 -8.2,-5.3 -12,-6.9c-3.6,-1.4 -7,-2.9 -10.2,-4.5c-1.3,-0.6 -2.4,-1.2 -3.6,-1.8c-0.3,-0.1 -0.6,-0.4 -0.8,-0.5c-1.9,-1 -3.8,-2.1 -5.5,-3.1c-9.3,-4.1 -16.6,-8.8 -22.2,-14.3c-0.2,-0.1 -0.2,-0.2 -0.3,-0.3c-0.7,-0.7 -1.4,-1.5 -2.1,-2.4c-5,-6.4 -7.6,-13 -7.8,-19.8l0,-0.5c-0.8,-12.8 6.3,-20.6 21.1,-23.3c0.4,-0.1 0.9,-0.1 1.3,-0.1c1.1,-0.2 2.3,-0.2 3.6,-0.2c7.9,0 15,1.7 21.5,5.2c0.8,0.5 1.5,0.9 2.3,1.3c0.3,0.2 0.7,0.5 1.1,0.8c0.6,0.4 2.6,2.3 6.1,5.7c0.1,0.1 0.1,0.1 0.2,0.1c0.4,0.5 1.3,1.8 2.7,4l-3.9,-2.9c-0.3,-0.1 -0.6,-0.3 -1,-0.6c-3.2,-1.5 -6.2,-2.9 -8.9,-3.9c-3,-1.1 -5.6,-1.8 -7.8,-2.2c-15.3,-3.5 -23.5,0.2 -24.8,11.1c-0.3,1.3 -0.5,2.5 -0.5,3.6l0,1.9c0.3,4.9 1.6,9 4.1,12.1c2.4,3.1 6.3,5.9 11.7,8.7c3.3,1.7 9.4,4.4 18.2,8.1c8.8,3.9 16.6,8.1 23.7,12.5c6.1,3.8 11.6,8.9 16.6,15.6c5,-6.7 10.5,-11.8 16.6,-15.6c7,-4.4 14.9,-8.6 23.6,-12.5c8.9,-3.7 14.9,-6.4 18.3,-8.1c5.4,-2.8 9.3,-5.6 11.7,-8.7c2.4,-3.1 3.8,-7.2 4,-12.1l0,-1.9c0,-1.1 -0.1,-2.3 -0.5,-3.6c-1.2,-10.9 -9.5,-14.6 -24.7,-11.1c-1.8,0.3 -3.9,0.9 -6.3,1.7c-2.9,1 -6,2.3 -9.6,4c-0.6,0.4 -1.3,0.7 -1.9,1l-3.9,2.9c1.4,-2.2 2.4,-3.5 2.8,-4c0,0 0.1,0 0.1,-0.1l0.5,-0.5c3.3,-3.1 5.1,-4.8 5.6,-5.2c0.7,-0.4 1.4,-0.9 2.2,-1.3c0.4,-0.3 0.8,-0.5 1.2,-0.8c6.5,-3.5 13.7,-5.2 21.6,-5.2c1.3,0 2.4,0 3.6,0.2c0.4,0 0.8,0 1.2,0.1c14.9,2.7 22,10.5 21.1,23.3l0,0.5c-0.1,6.8 -2.7,13.4 -7.7,19.8"/>
   </g>
   <g id="g3107">
    <path fill="#169300" fill-rule="nonzero" id="path3109" d="m82.426859,668.668562c0,-1.6 -0.6,-2.9 -1.7,-4c-1.1,-1.2 -2.5,-1.7 -4.1,-1.7c-1.6,0 -3,0.5 -4,1.7c-1.2,1.1 -1.7,2.4 -1.7,4c0,1.6 0.5,3 1.7,4.1c1,1.1 2.4,1.7 4,1.7c1.6,0 3,-0.6 4.1,-1.7c1.1,-1.1 1.7,-2.5 1.7,-4.1m-47.2,-4c-1.1,-1.2 -2.5,-1.7 -4.1,-1.7c-1.5,0 -2.9,0.5 -4,1.7c-1.1,1.1 -1.7,2.4 -1.7,4c0,1.6 0.6,3 1.7,4.1c1.1,1.1 2.5,1.7 4,1.7c1.6,0 3,-0.6 4.1,-1.7c1.2,-1.1 1.7,-2.5 1.7,-4.1c0,-1.6 -0.5,-2.9 -1.7,-4m14.3,-6.6c0.1,0.6 0.4,1.1 0.9,1.5c0,0.1 0,0.1 0.1,0.1c0.8,0.8 1.9,1.3 3.1,1.3c1.3,0 2.3,-0.5 3.1,-1.3c0.9,-0.9 1.4,-1.9 1.4,-3.2c0,-1.2 -0.5,-2.2 -1.4,-3.1c-0.8,-0.9 -1.8,-1.3 -3.1,-1.3c-1.2,0 -2.3,0.4 -3.1,1.3l-0.1,0.1c-0.5,0.5 -0.8,0.9 -0.9,1.5c-0.3,0.5 -0.4,1 -0.4,1.5c0,0.6 0.1,1.2 0.4,1.6m7.8,17.6c0.1,-0.2 0.1,-0.4 0.1,-0.7c0,-1 -0.3,-1.8 -1,-2.5c-0.7,-0.6 -1.4,-1 -2.3,-1l-0.2,0c-0.9,0 -1.8,0.3 -2.4,1c-0.8,0.7 -1.1,1.5 -1.1,2.5l0,0.2c0.1,0.8 0.4,1.6 1.1,2.3c0.6,0.7 1.5,1 2.4,1c0.7,0 1.4,-0.2 2,-0.7c0.2,0 0.3,-0.2 0.5,-0.3c0.5,-0.5 0.8,-1.2 0.9,-1.8m-29.4,-15.2c7,-4.1 12.8,-8.2 17.3,-12.2c5.8,-5 11.5,-5 17.3,0c4.6,4 10.4,8.1 17.4,12.2c7.6,4.5 15.8,6.8 24.5,6.8l0.1,0l1.1,0c-1.8,1.5 -3.8,3 -6,4.3c-11.6,7.2 -25.7,10.8 -42.3,10.8c-1.1,0 -2.1,0 -3.2,-0.1c-1.2,0.1 -2.4,0.1 -3.6,0.1c-16.6,0 -30.7,-3.6 -42.4,-10.8c-2.1,-1.3 -4.1,-2.8 -6,-4.3l1.1,0l0.2,0c8.7,0 16.8,-2.3 24.5,-6.8"/>
   </g>
   <g id="g3111">
    <path fill="#13c100" fill-rule="nonzero" id="path3113" d="m57.426859,674.968855c0,0.3 0,0.5 -0.1,0.7c-0.1,0.6 -0.4,1.3 -0.9,1.8c-0.2,0.1 -0.3,0.3 -0.5,0.3c-0.6,0.5 -1.3,0.7 -2,0.7c-0.9,0 -1.8,-0.3 -2.4,-1c-0.7,-0.7 -1,-1.5 -1.1,-2.3l0,-0.2c0,-1 0.3,-1.8 1.1,-2.5c0.6,-0.7 1.5,-1 2.4,-1l0.2,0c0.9,0 1.6,0.4 2.3,1c0.7,0.7 1,1.5 1,2.5"/>
   </g>
   <g id="g3115">
    <path fill="#13c100" fill-rule="nonzero" id="path3117" d="m50.426859,659.568953c-0.5,-0.4 -0.8,-0.9 -0.9,-1.5c-0.3,-0.4 -0.4,-1 -0.4,-1.6c0,-0.5 0.1,-1 0.4,-1.5c0.1,-0.6 0.4,-1 0.9,-1.5l0.1,-0.1c0.8,-0.9 1.9,-1.3 3.1,-1.3c1.3,0 2.3,0.4 3.1,1.3c0.9,0.9 1.4,1.9 1.4,3.1c0,1.3 -0.5,2.3 -1.4,3.2c-0.8,0.8 -1.8,1.3 -3.1,1.3c-1.2,0 -2.3,-0.5 -3.1,-1.3c-0.1,0 -0.1,0 -0.1,-0.1"/>
   </g>
   <g id="g3119">
    <path fill="#13c100" fill-rule="nonzero" id="path3121" d="m31.127054,662.968855c1.6,0 3,0.5 4.1,1.7c1.2,1.1 1.7,2.4 1.7,4c0,1.6 -0.5,3 -1.7,4.1c-1.1,1.1 -2.5,1.7 -4.1,1.7c-1.5,0 -2.9,-0.6 -4,-1.7c-1.1,-1.1 -1.7,-2.5 -1.7,-4.1c0,-1.6 0.6,-2.9 1.7,-4c1.1,-1.2 2.5,-1.7 4,-1.7"/>
   </g>
   <g id="g3123">
    <path fill="#13c100" fill-rule="nonzero" id="path3125" d="m80.727152,664.668562c1.1,1.1 1.7,2.4 1.7,4c0,1.6 -0.6,3 -1.7,4.1c-1.1,1.1 -2.5,1.7 -4.1,1.7c-1.6,0 -3,-0.6 -4,-1.7c-1.2,-1.1 -1.7,-2.5 -1.7,-4.1c0,-1.6 0.5,-2.9 1.7,-4c1,-1.2 2.4,-1.7 4,-1.7c1.6,0 3,0.5 4.1,1.7"/>
   </g>
   <g id="g3127">
    <path fill="#169300" fill-rule="nonzero" id="path3129" d="m2.127054,573.26866c0.9,0 1.8,-0.3 2.4,-1c0.6,-0.6 1,-1.5 1,-2.4c0,-0.9 -0.4,-1.8 -1,-2.4c-0.6,-0.7 -1.5,-1 -2.4,-1c-1,0 -1.9,0.3 -2.5,1c-0.6,0.6 -1,1.5 -1,2.4c0,0.9 0.4,1.8 1,2.4c0.6,0.7 1.5,1 2.5,1m-3.5,14.4c1.1,1 2.4,1.6 3.9,1.6c1.5,0 2.8,-0.6 3.9,-1.6c1,-1 1.6,-2.4 1.6,-3.9c0,-1.5 -0.6,-2.7 -1.6,-3.8c-1.1,-1 -2.4,-1.6 -3.9,-1.6c-1.5,0 -2.8,0.6 -3.9,1.6c-1,1.1 -1.5,2.3 -1.5,3.8c0,1.5 0.5,2.9 1.5,3.9m15.2,5.8c-1,-0.3 -2,-0.5 -3,-0.8c-2.4,-0.4 -4.9,-0.6 -7.6,-0.6c-10.4,0 -19.3,3.6 -26.6,11c-0.3,0.2 -0.5,0.5 -0.7,0.6c0.3,-1 1.1,-3.2 2.1,-6.8c0.5,-1.8 1.5,-4.2 3,-7.2c0.8,-1.6 2.1,-4 3.7,-7c1.8,-3.5 4.8,-8.4 8.9,-14.4c2.3,-3.6 3.7,-7 4.5,-10l0,-0.2c0.3,-0.9 0.5,-1.6 0.6,-2.4c1.4,0.6 2.8,1.4 4.2,2.5c0.9,0.6 1.7,1.3 2.3,2c0.7,0.8 1.3,1.6 1.8,2.5c0.6,1.3 1.4,3 2.2,5.3c0.9,2.3 1.6,4.1 2.2,5.2c1.5,3 2.3,4.7 2.7,5.3c1.1,1.9 2.5,3.6 4.3,5.1c0,0 0.1,0.1 0.2,0.1l0.3,0.2c0.6,0.4 1.2,0.8 1.8,1.3c0.3,0.1 1,0.5 2.2,1c1,0.8 2.2,1.5 3.4,2.4c3.8,2.5 5.9,4.5 6.5,6.1c0.2,0.5 0.7,1.6 1.4,3.3c0.5,1.2 0.9,2.1 1.2,2.8c-1.3,-0.9 -2.9,-1.8 -4.8,-2.7c-1.2,-0.5 -2.5,-1.1 -3.7,-1.6l-13.1,-3z"/>
   </g>
   <g id="g3131">
    <path fill="#13c100" fill-rule="nonzero" id="path3133" d="m2.526957,589.26866c-1.5,0 -2.8,-0.6 -3.9,-1.6c-1,-1 -1.5,-2.4 -1.5,-3.9c0,-1.5 0.5,-2.7 1.5,-3.8c1.1,-1 2.4,-1.6 3.9,-1.6c1.5,0 2.8,0.6 3.9,1.6c1,1.1 1.6,2.3 1.6,3.8c0,1.5 -0.6,2.9 -1.6,3.9c-1.1,1 -2.4,1.6 -3.9,1.6"/>
   </g>
   <g id="g3135">
    <path fill="#13c100" fill-rule="nonzero" id="path3137" d="m4.526957,572.26866c-0.6,0.7 -1.5,1 -2.4,1c-1,0 -1.9,-0.3 -2.5,-1c-0.6,-0.6 -1,-1.5 -1,-2.4c0,-0.9 0.4,-1.8 1,-2.4c0.6,-0.7 1.5,-1 2.5,-1c0.9,0 1.8,0.3 2.4,1c0.6,0.6 1,1.5 1,2.4c0,0.9 -0.4,1.8 -1,2.4"/>
   </g>
   <g id="g3139">
    <path fill="#169300" fill-rule="nonzero" id="path3141" d="m-27.372946,534.568953c-6.7,3.3 -11.6,6.4 -14.8,9.2c-2.3,2 -4.3,4.1 -5.8,6c-2.6,3.4 -4.6,5.8 -5.9,7c-4.4,5.8 -7.5,10.5 -9.2,14.2c-6.5,13.2 -15.9,21.8 -28.2,25.6c-3.8,1 -7.9,1.5 -12.1,1.5c-1.6,0 -3.2,-0.2 -4.9,-0.6c-2.3,-0.3 -6.3,-2 -12.2,-5.1c-2.3,-1.2 -4.4,-2.7 -6.4,-4.6c-0.2,-0.2 -1.7,-1.8 -4.4,-4.7c-1.7,-1.9 -3.3,-4.9 -4.8,-9.2c-1.4,-4.1 -2.2,-7.4 -2.2,-10.1c0,-3.5 0.4,-6.7 1.2,-9.7c0.2,-0.8 0.3,-1.4 0.6,-2.1c0.4,-1.1 0.9,-2.7 1.5,-4.8c0.1,-0.9 0.2,-1.6 0.6,-2c0,-0.4 0.1,-0.6 0.2,-1c0.3,-1.1 0.7,-2.2 1.2,-3.2c-3,15.2 0.4,28.1 10,38.5c1.6,1.3 3.2,2.6 5,3.7c3,1.9 5.9,3.1 8.6,3.9c10.5,2.3 18,-2.2 22.1,-13.5c0.7,-1.3 1.3,-2.7 1.8,-4.1c0.6,-1.5 1.2,-3.4 2,-5.8c0.4,-0.7 0.7,-1.5 1.1,-2.3c0.3,-0.6 0.5,-1.2 0.7,-1.8c0.1,-0.3 0.2,-0.5 0.3,-0.8c0.1,-0.5 0.3,-1 0.5,-1.6c0.1,0 0.1,0 0.2,-0.1c1.3,-3.4 2.8,-6.6 4.3,-9.5c2.6,-5.2 5,-9 7.4,-11.7c1.6,1.2 3.3,2.2 5.2,2.9c9.9,2.9 19.4,1 28.6,-5.6c2.9,-1.9 5.4,-3.2 7.6,-4c3.8,-1.2 8.9,-1.9 15.2,-1.9c4,0 7.4,0.3 10,0.9c0,0.3 -1,0.4 -3,0.4c-2.1,-0.1 -4.6,0.1 -7.5,0.5c-3,0.4 -7.9,2.2 -14.5,5.5"/>
   </g>
   <g id="g3143">
    <path fill="#59a056" fill-rule="nonzero" id="path3145" d="m226.32725,503.068953c0.1,-0.1 0.1,-0.2 0.1,-0.3l0,0.1c0,0.1 0,0.1 -0.1,0.2"/>
   </g>
   <g id="g3147">
    <path fill="#59a056" fill-rule="nonzero" id="path3149" d="m182.627054,443.868757c0,0.1 0,0.3 0.1,0.5c-0.1,-0.2 -0.1,-0.2 -0.1,-0.4l0,-0.1z"/>
   </g>
   <g id="g3151">
    <path fill="#59a056" fill-rule="nonzero" id="path3153" d="m-118.473043,503.068953c-0.1,-0.1 -0.1,-0.1 -0.1,-0.2l0,-0.1c0,0.1 0,0.2 0.1,0.3"/>
   </g>
   <g id="g3155">
    <path fill="#59a056" fill-rule="nonzero" id="path3157" d="m-74.872946,444.368757l0,-0.5l0,0.1l0,0.4z"/>
   </g>
   <g id="g3159">
    <path fill="#59a056" fill-rule="nonzero" id="path3161" d="m12.426859,398.868757c0,-0.1 -0.1,-0.4 -0.2,-0.5c0.4,0.4 0.9,0.6 1.2,1c-0.3,-0.2 -0.7,-0.4 -1,-0.5"/>
   </g>
   <g id="g3163">
    <path fill="#59a056" fill-rule="nonzero" id="path3165" d="m16.727152,402.468855c0,0.2 0.2,0.3 0.3,0.4l-0.2,0c-0.1,-0.1 -0.1,-0.2 -0.1,-0.4"/>
   </g>
   <g id="g3167">
    <path fill="#59a056" fill-rule="nonzero" id="path3169" d="m95.426859,398.868757c-0.4,0.1 -0.8,0.3 -1,0.5c0.3,-0.4 0.7,-0.6 1.1,-1c0,0.1 -0.1,0.4 -0.1,0.5"/>
   </g>
   <g id="g3171">
    <path fill="#59a056" fill-rule="nonzero" id="path3173" d="m91.026957,402.868757l-0.2,0c0.1,-0.1 0.2,-0.2 0.3,-0.4c0,0.2 -0.1,0.3 -0.1,0.4"/>
   </g>
   <g id="g3175">
    <g id="g3177"/>
    <g id="g3183">
     <g opacity="0.699997" id="g3185" clip-path="url(#clipPath3179)">
      <g id="g3187">
       <path fill="#e3eff8" fill-rule="nonzero" id="path3189" d="m107.32725,502.968855c0.1,0 0.2,0 0.3,0.1l0.5,0c0.3,-0.1 0.5,-0.1 0.5,-0.2l2.3,0c2,0.2 3.8,0.3 5.3,0.7l0.2,0l0.1,0c-2.8,4.2 -6.1,8.2 -9.9,12.1c-14.2,14.2 -31.5,21.4 -51.6,21.4c-20.1,0 -37.4,-7.2 -51.6,-21.4c-3.8,-3.9 -7.2,-7.9 -9.9,-12.1c1.1,-0.4 2.1,-0.5 2.9,-0.4l0.5,0c0.2,-0.1 0.5,-0.1 0.7,-0.1l2.6,0c0.1,-0.1 0.2,-0.1 0.3,-0.1c1.3,0.2 2.5,0.3 3.6,0.5c0.1,0.2 0.4,0.4 0.5,0.7c7.5,9.6 13.8,15.7 19,18.3c-3.2,-5.6 -6,-11.1 -8.1,-16.5c1.2,0.3 2.1,0.6 2.7,0.7c2.9,1 6.2,2.5 9.9,4.3c0.4,0.1 1.8,1.1 4.1,2.8c0,-0.2 0,-0.5 -0.1,-0.7l0,-0.9l-0.1,0c-0.2,-0.6 -0.5,-1.4 -1,-2.2c-0.6,-0.9 -1,-1.7 -1.3,-2c-1.1,-1.8 -2.9,-4.5 -5.5,-8.3c-1.6,-2.4 -4.2,-5.1 -7.8,-8.2l-0.2,-0.2c-0.2,-0.1 -0.6,-0.3 -0.8,-0.5c-1.7,-1.2 -3.4,-2.3 -5.2,-3.2c-0.8,-5 -1.2,-10 -1.2,-15c0.3,-0.1 0.6,-0.2 0.9,-0.4c1.8,-0.8 6.2,-2.5 13,-5.3c1.8,-0.7 3.3,-1.5 4.6,-2.2c0.2,0 0.5,-0.1 0.7,-0.2c1,-0.6 2.1,-1.2 3.3,-1.8c1.7,-1 3.6,-2.5 5.5,-4.4l0.1,-0.1l-0.6,0l-1,0l-10.5,0l-1.5,-0.2l-4,0c-3.2,-0.1 -6.1,-0.4 -8.8,-0.8c0.9,-3.9 2,-7.8 3.5,-11.8c7.6,-19.5 21.9,-30.7 42.9,-33.6c0.3,-0.1 0.5,-0.1 0.8,-0.1c3,-0.4 6.2,-0.7 9.7,-0.8l1.8,0c5.6,0.1 11.6,0.6 18,1.5c-2,-1.2 -3.9,-2.5 -5.7,-3.6c1.2,-0.3 2.4,-0.6 3.5,-1c4.6,-1.4 7.9,-3 10,-4.8c0.8,0.5 1.6,1.1 2.4,1.7c3.1,2.2 6.1,4.8 9,7.7c10.5,10.5 17,22.5 19.9,36.1c-2,1 -4.4,2.1 -7,3.4c-0.6,0.3 -1.3,0.6 -2.1,1c-1.2,0.3 -2.4,0.8 -3.8,1.2c-2.6,0.7 -5.7,1.4 -9.1,2c0,0.1 -0.1,0.1 -0.3,0.1c-0.5,0.2 -1.6,0.5 -3.4,0.9l-2.4,0c-3.1,0.5 -6.4,0.8 -10.1,0.9l-4,0l-1.5,0.2l-10.5,0l-1.1,0l-0.6,0l0.1,0.1c2,1.9 3.9,3.4 5.6,4.4c1.2,0.6 2.2,1.2 3.3,1.8c0.2,0.1 0.5,0.2 0.7,0.2c1.3,0.7 2.8,1.5 4.6,2.2c6.7,2.8 11.1,4.5 13,5.3c3,1.4 7,2.8 12,4.4c4.3,1.1 7.2,1.8 8.6,2.1c0.5,0.1 0.9,0.2 1.2,0.3c-0.1,0 -0.2,0 -0.3,0.1c-2.8,0.8 -4.9,1.6 -6.3,2.2c-0.7,0.3 -1.5,0.5 -2.2,0.8c-3.6,1.2 -7.2,2.7 -10.8,4.2c-2.7,1.3 -5.3,2.8 -7.7,4.5c-0.3,0.2 -0.6,0.4 -0.9,0.5l-0.1,0.2c-3.6,3.1 -6.2,5.8 -7.8,8.2c-2.6,3.8 -4.5,6.5 -5.5,8.3c-0.3,0.3 -0.7,1.1 -1.3,2c-0.5,0.8 -0.8,1.6 -1.1,2.2c0,0.3 -0.1,0.6 -0.1,0.9c0,0.2 0,0.5 -0.1,0.7c2.4,-1.7 3.8,-2.7 4.1,-2.8c3.8,-1.8 7.1,-3.3 10,-4.3c1.4,-0.5 5.3,-1.5 11.5,-2.9c1.5,-0.2 3.6,-0.5 6.2,-0.8"/>
      </g>
     </g>
    </g>
   </g>
   <g id="g3191">
    <g id="g3193"/>
    <g id="g3199">
     <g opacity="0.699997" id="g3201" clip-path="url(#clipPath3195)">
      <g id="g3203">
       <path fill="#bacbe6" fill-rule="nonzero" id="path3205" d="m4.627054,504.168562c-0.1,-0.3 -0.4,-0.5 -0.5,-0.7c0.9,0.1 1.8,0.2 2.5,0.3c3.9,0.9 6.9,1.6 8.9,2.2c2.1,5.4 4.9,10.9 8.1,16.5c-5.2,-2.6 -11.5,-8.7 -19,-18.3"/>
      </g>
     </g>
    </g>
   </g>
   <g id="g3207">
    <g id="g3209"/>
    <g id="g3215">
     <g opacity="0.699997" id="g3217" clip-path="url(#clipPath3211)">
      <g id="g3219">
       <path fill="#bacbe6" fill-rule="nonzero" id="path3221" d="m10.227152,487.568953c-0.8,-0.5 -1.6,-0.9 -2.5,-1.3c-2.5,-1 -4.9,-2 -7.3,-3c-0.6,-0.4 -1.5,-0.8 -2.9,-1.2c-0.1,-0.1 -1,-0.3 -2.6,-0.7c-0.3,-1.2 -0.4,-2.6 -0.7,-3.9c1.1,-0.3 2.3,-0.6 3.7,-0.9c4.6,-1.5 8.2,-2.8 11.1,-4c0,5 0.4,10 1.2,15"/>
      </g>
     </g>
    </g>
   </g>
   <g id="g3223">
    <g id="g3225"/>
    <g id="g3231">
     <g opacity="0.699997" id="g3233" clip-path="url(#clipPath3227)">
      <g id="g3235">
       <path fill="#e3eff8" fill-rule="nonzero" id="path3237" d="m-5.772848,477.468855c0.3,1.3 0.4,2.7 0.7,3.9c-0.2,-0.1 -0.4,-0.1 -0.6,-0.2c-1.6,-0.5 -2.8,-0.8 -3.8,-1c-0.7,-0.2 -1.4,-0.5 -2.4,-0.8c-0.5,-0.2 -1,-0.4 -1.5,-0.6l0.3,0c0.5,0.3 1.3,0.2 2.3,-0.1c1,-0.2 2.7,-0.6 5,-1.2"/>
      </g>
     </g>
    </g>
   </g>
   <g id="g3239">
    <g id="g3241"/>
    <g id="g3247">
     <g opacity="0.699997" id="g3249" clip-path="url(#clipPath3243)">
      <g id="g3251">
       <path fill="#e3eff8" fill-rule="nonzero" id="path3253" d="m-9.573141,452.868757c-0.8,-0.4 -1.5,-0.7 -2.2,-1c-1.7,-0.9 -3.4,-1.7 -4.8,-2.4c2.6,-14.1 9.3,-26.4 20,-37.1c3.1,-3.1 6.4,-6 9.8,-8.4c0.1,-0.1 0.2,-0.1 0.2,-0.1c0.3,-0.2 0.6,-0.4 0.9,-0.6l0.1,0c0,-0.1 0.1,-0.1 0.2,-0.2c2,1.8 5.4,3.3 9.9,4.7c1.2,0.4 2.5,0.7 3.8,1.1c-0.4,0.3 -0.8,0.5 -1.2,0.9c-0.1,0 -0.2,-0.1 -0.4,-0.1c-0.1,0.1 -0.3,0.2 -0.5,0.2c-5.3,2.9 -10.2,6.5 -14.8,11.2c-9.5,9.5 -15.3,20.4 -17.2,33l-0.1,0c-1.4,-0.4 -2.6,-0.9 -3.7,-1.2"/>
      </g>
     </g>
    </g>
   </g>
   <g id="g3255">
    <g id="g3257"/>
    <g id="g3263">
     <g opacity="0.699997" id="g3265" clip-path="url(#clipPath3259)">
      <g id="g3267">
       <path fill="#bacbe6" fill-rule="nonzero" id="path3269" d="m3.227152,456.068953c-3.3,-0.6 -6.3,-1.3 -9,-2c1.9,-12.6 7.7,-23.5 17.2,-33c4.6,-4.7 9.5,-8.3 14.8,-11.2c0.2,0 0.4,-0.1 0.5,-0.2c0.2,0 0.3,0.1 0.4,0.1c0.4,-0.4 0.8,-0.6 1.2,-0.9c3.9,0.9 8.2,1.6 12.7,2.1c4.4,0.4 9,0.7 13.9,0.7l3,0c-0.3,0 -0.5,0 -0.8,0.1c-21,2.9 -35.3,14.1 -42.9,33.6c-1.5,4 -2.6,7.9 -3.5,11.8c-0.4,0 -0.8,0 -1.3,-0.1l-2.4,0c-1.8,-0.4 -2.9,-0.7 -3.5,-0.9c-0.1,0 -0.2,0 -0.3,-0.1"/>
      </g>
     </g>
    </g>
   </g>
   <g id="g3271">
    <path fill="#ffed00" fill-rule="nonzero" id="path3273" d="m18.127054,400.868757l-1.4,0.8c-0.2,0.2 -0.6,0.3 -0.8,0.5c-0.3,0.2 -0.5,0.3 -0.8,0.5c-0.1,0.2 -0.4,0.2 -0.5,0.4c-0.8,-0.7 -1.4,-1.3 -1.9,-2c-0.6,-0.9 -0.8,-1.9 -0.8,-2.9l0,-0.1c0,-0.8 0.2,-1.7 0.7,-2.6c0,-0.2 0,-0.5 0.1,-0.7c0,0.1 0.2,0.2 0.2,0.3c0.2,-0.4 0.6,-0.8 1,-1.2c1.3,-1.2 3.3,-2.5 6,-3.5c1.3,-0.6 2.8,-1.1 4.6,-1.7c4,-1.3 8.4,-2.3 13.2,-2.9c5.7,-0.6 11.9,-0.9 18.4,-0.9c3.5,0 6.8,0.1 10,0.3c7.1,0.5 13.5,1.7 19.1,3.5c1.4,0.5 2.7,0.8 3.9,1.3l-0.1,0c4.1,1.9 6.6,3.5 7.6,4.8c0.1,0.1 0.2,0.2 0.3,0.3c0.2,0.4 0.5,0.8 0.7,1.3c0.2,0.5 0.3,1.1 0.3,1.8c0,1.7 -0.9,3.3 -2.7,4.8c-0.5,-0.3 -1,-0.6 -1.4,-1c-0.2,-0.1 -0.3,-0.1 -0.4,-0.2l-0.2,-0.1c-0.1,-0.1 -0.3,-0.2 -0.5,-0.3c-0.6,-0.5 -1.2,-0.9 -1.9,-1.2l-0.7,-0.4l-1.3,-0.7l-0.1,-0.1c-0.4,-0.1 -0.8,-0.3 -1.2,-0.6c-0.1,0 -0.4,-0.1 -0.5,-0.2c-0.1,-0.1 -0.4,-0.2 -0.5,-0.3c-1.6,-0.7 -3.2,-1.4 -4.8,-2c-18.3,-5.5 -36.1,-5.5 -53.4,0c-1,0.4 -2,0.8 -3,1.2c-1.8,0.8 -3.6,1.8 -5.3,2.7c-0.1,0.1 -0.1,0.1 -0.2,0.1c-0.6,0.3 -1.2,0.6 -1.7,1"/>
   </g>
   <g id="g3275">
    <path fill="#f2e029" fill-rule="nonzero" id="path3277" d="m16.727152,401.668562l1.4,-0.8c0.5,-0.4 1.1,-0.7 1.7,-1c0.1,0 0.1,0 0.2,-0.1c1.7,-0.9 3.5,-1.9 5.3,-2.7c1,-0.4 2,-0.8 3,-1.2c17.3,-5.5 35.1,-5.5 53.4,0c1.6,0.6 3.2,1.3 4.8,2c0.1,0.1 0.4,0.2 0.5,0.3c0.1,0.1 0.4,0.2 0.5,0.2c0.4,0.3 0.8,0.5 1.2,0.6l0.1,0.1l1.3,0.7l0.7,0.4c0.7,0.3 1.3,0.7 1.9,1.2c0.2,0.1 0.4,0.2 0.5,0.3l0.2,0.1c0.1,0.1 0.2,0.1 0.4,0.2c0.4,0.4 0.9,0.7 1.4,1c-2.1,1.8 -5.4,3.4 -10,4.8c-1.1,0.4 -2.3,0.7 -3.5,1c-1.3,-0.9 -2.7,-1.5 -4.2,-1.9c0.2,0.1 0.5,0.2 0.6,0.3c-2.5,-1 -5,-1.9 -7.5,-2.6c-10.7,-2.9 -21.2,-2.9 -31.5,0c-3.4,0.9 -6.7,2.3 -10,3.8c-0.2,0.1 -0.5,0.3 -0.7,0.4c0,0.1 0,0.1 -0.1,0.1c-1.3,-0.4 -2.6,-0.7 -3.8,-1.1c-4.5,-1.4 -7.9,-2.9 -9.9,-4.7c0.1,-0.2 0.4,-0.2 0.5,-0.4c0.3,-0.2 0.5,-0.3 0.8,-0.5c0.2,-0.2 0.6,-0.3 0.8,-0.5"/>
   </g>
   <g id="g3279">
    <path fill="#e3d33c" fill-rule="nonzero" id="path3281" d="m90.026957,390.168562l0,0.1c0.8,0.1 0.9,0.1 0,-0.1m-76.1,3.7c1.6,-2.1 1.8,-4.4 0.6,-6.7c1.6,-1.3 4,-2.6 7.1,-3.8c0.4,0.3 0.7,0.5 1,0.6l3.9,2.9l-1.3,-2.9c-0.2,-0.5 -0.5,-1 -0.7,-1.5c8.4,-2.7 18.5,-4 30.4,-4c11.1,0 20.7,1.2 28.7,3.5c-0.4,0.7 -0.7,1.3 -1,2l-1.4,2.9l3.9,-2.9c0.6,-0.3 1.3,-0.6 1.9,-1c3.4,1.2 6,2.5 7.9,3.9c-0.9,2.5 -0.3,5.1 1.7,7.9c-1,-1.3 -3.5,-2.9 -7.6,-4.8l0.1,0l-0.1,0l0.1,0c-1.2,-0.5 -2.5,-0.8 -3.9,-1.3c-5.6,-1.8 -12,-3 -19.1,-3.5c-3.2,-0.2 -6.5,-0.3 -10,-0.3c-6.5,0 -12.7,0.3 -18.4,0.9c-4.8,0.6 -9.2,1.6 -13.2,2.9c-1.8,0.6 -3.3,1.1 -4.6,1.7c-2.7,1 -4.7,2.3 -6,3.5"/>
   </g>
   <g id="g3283">
    <path fill="#ffed00" fill-rule="nonzero" id="path3285" d="m90.026957,390.26866l0,-0.1c0.9,0.2 0.8,0.2 0,0.1"/>
   </g>
   <g id="g3287">
    <path fill="#ffed00" fill-rule="nonzero" id="path3289" d="m11.926859,382.368757l0,-0.1c0,-1 0.3,-1.9 0.8,-2.8c2.7,1 5.7,2.4 8.9,3.9c-3.1,1.2 -5.5,2.5 -7.1,3.8c-1.8,-1.4 -2.6,-3 -2.6,-4.8"/>
   </g>
   <g id="g3291">
    <path fill="#ffed00" fill-rule="nonzero" id="path3293" d="m24.526957,382.468855c-1.5,-2.8 -3.3,-5.5 -5.1,-7.7c1.5,-0.7 3.2,-1.3 5.1,-1.9c8.4,-2.6 18.5,-4 30.4,-4c11.8,0 22,1.4 30.3,4c1.4,0.4 2.5,0.8 3.7,1.3c-1.9,2.3 -3.8,4.9 -5.3,7.8c-8,-2.3 -17.6,-3.5 -28.7,-3.5c-11.9,0 -22,1.3 -30.4,4"/>
   </g>
   <g id="g3295">
    <g id="g3297"/>
    <g id="g3303">
     <g opacity="0.699997" id="g3305" clip-path="url(#clipPath3299)">
      <g id="g3307">
       <path fill="#8eafd8" fill-rule="nonzero" id="path3309" d="m69.426859,410.868757l-1.8,0c-3.5,0.1 -6.7,0.4 -9.7,0.8l-3,0c-4.9,0 -9.5,-0.3 -13.9,-0.7c-4.5,-0.5 -8.8,-1.2 -12.7,-2.1c0.1,0 0.1,0 0.1,-0.1c0.2,-0.1 0.5,-0.3 0.7,-0.4c3.3,-1.5 6.6,-2.9 10,-3.8c10.3,-2.9 20.8,-2.9 31.5,0c2.5,0.7 5,1.6 7.5,2.6c-0.1,-0.1 -0.4,-0.2 -0.6,-0.3c1.5,0.4 2.9,1 4.2,1.9c-3.8,1 -7.9,1.7 -12.3,2.1"/>
      </g>
     </g>
    </g>
   </g>
   <g id="g3311">
    <path fill="#ffed00" fill-rule="nonzero" id="path3313" d="m89.026957,389.968855l0.1,0l-0.1,0z"/>
   </g>
   <g id="g3315">
    <path fill="#ffed00" fill-rule="nonzero" id="path3317" d="m95.227152,387.168562c-0.1,-0.1 -0.2,-0.2 -0.3,-0.3c-1.9,-1.4 -4.5,-2.7 -7.9,-3.9c3.6,-1.7 6.7,-3 9.6,-4c0.9,1 1.3,2.2 1.3,3.4l0,0.5c-0.2,1.5 -1,3 -2.7,4.3"/>
   </g>
   <g id="g3319">
    <g id="g3321"/>
    <g id="g3327">
     <g opacity="0.699997" id="g3329" clip-path="url(#clipPath3323)">
      <g id="g3331">
       <path fill="#bacbe6" fill-rule="nonzero" id="path3333" d="m69.426859,410.868757c4.4,-0.4 8.5,-1.1 12.3,-2.1c1.8,1.1 3.7,2.4 5.7,3.6c-6.4,-0.9 -12.4,-1.4 -18,-1.5"/>
      </g>
     </g>
    </g>
   </g>
   <g id="g3335">
    <path fill="#678c5d" fill-rule="nonzero" id="path3337" d="m142.627054,478.468855l1.1,0l-0.1,0.1c-0.3,0 -0.6,0 -1,-0.1"/>
   </g>
   <g id="g3339">
    <path fill="#59a056" fill-rule="nonzero" id="path3341" d="m-46.67275,512.068953c-0.5,0.1 -0.9,0.1 -1.3,0.2c0.5,-0.1 1,-0.2 1.4,-0.3l0.2,-0.1c0,0.1 -0.1,0.1 -0.1,0.1c-0.1,0.1 -0.1,0.1 -0.2,0.1"/>
   </g>
   <g id="g3343">
    <path fill="#678c5d" fill-rule="nonzero" id="path3345" d="m-35.872946,478.468855l1,0c-0.3,0.1 -0.6,0.1 -1,0.1l0,-0.1z"/>
   </g>
  </g>
 </g>
</svg>