<?xml version="1.0" encoding="utf-8"?>
<!-- Generator: Adobe Illustrator 24.1.2, SVG Export Plug-In . SVG Version: 6.00 Build 0)  -->
<svg version="1.1" id="Layer_1" xmlns="http://www.w3.org/2000/svg" xmlns:xlink="http://www.w3.org/1999/xlink" x="0px" y="0px"
	 viewBox="0 0 24 24" style="enable-background:new 0 0 24 24;" xml:space="preserve">
<style type="text/css">
	.st0{fill:#C51A4A;}
</style>
<path class="st0" d="M16.1,17.3c-0.9,1-1.3,2.8-0.7,3.4c0.6,0.4,2.2,0.4,3.4-1.2c0.9-1.1,0.6-2.9,0.1-3.4
	C18.1,15.6,17.1,16.3,16.1,17.3C16.1,17.4,16.1,17.3,16.1,17.3z M8.1,17.6c-0.9-1-2.1-1.7-2.9-1.2c-0.5,0.4-0.6,1.7,0.1,3
	c1.1,1.5,2.6,1.7,3.2,1.3C9.2,20.2,8.8,18.6,8.1,17.6z M12.2,20.8c-1.1,0-2.8,0.4-2.8,1c0,0.4,1.3,1.6,2.7,1.5
	c1.3,0,2.7-1.1,2.7-1.6C14.8,21.2,13.3,20.8,12.2,20.8L12.2,20.8z M12.1,6.8c-1.3,0-2.5,0.9-2.5,1.5c0,0.7,1,1.4,2.5,1.4
	c1.5,0,2.5-0.6,2.5-1.3C14.6,7.7,13.2,6.8,12.1,6.8L12.1,6.8z M9,7.4C6.9,7,5.1,8.3,5.2,10.6C5.2,11.4,9.8,7.5,9,7.4
	C9,7.4,9,7.4,9,7.4z M18.8,10.6c0.1-2.3-1.7-3.5-3.8-3.2C14.1,7.6,18.7,11.5,18.8,10.6z M19.1,11.4c-1.2-0.3-0.4,5,0.6,4.6
	C20.8,15.2,21.2,12.6,19.1,11.4C19.1,11.5,19.1,11.4,19.1,11.4z M4.2,16.1c1,0.5,1.8-4.9,0.6-4.6C2.8,12.7,3.1,15.3,4.2,16.1
	C4.2,16.1,4.2,16.1,4.2,16.1z M13.6,10.2c-1.1,0.8-1.4,2.4-0.5,3.7c0.9,1.3,2.5,1.8,3.7,1.1c1.1-0.7,1.4-2.4,0.5-3.7
	C16.4,9.9,14.8,9.4,13.6,10.2L13.6,10.2z M10.5,10.3c-1.1-0.7-2.8-0.3-3.7,1.1c-0.9,1.3-0.7,3,0.5,3.8s2.8,0.3,3.7-1.1
	C11.9,12.8,11.7,11.1,10.5,10.3L10.5,10.3z M14.9,17.5c0-1.4-1.3-2.5-2.8-2.5c-1.5,0-2.8,1.1-2.8,2.5v0c0,1.4,1.3,2.5,2.8,2.5
	C13.7,20,14.9,18.9,14.9,17.5L14.9,17.5C14.9,17.5,14.9,17.5,14.9,17.5z M18.1,2.3c-2.3,1.2-3.7,2.1-4.4,2.9
	c0.4,1.5,2.3,1.6,3.1,1.5c-0.1-0.1-0.3-0.1-0.3-0.3c0.2-0.1,0.8,0,1.3-0.3c-0.2,0-0.3-0.1-0.3-0.2c0.4-0.1,0.9-0.2,1.1-0.5
	c-0.1,0-0.3,0-0.5-0.1c0.4-0.2,0.8-0.4,1.1-0.7c-0.2,0-0.4,0-0.5-0.1c0.3-0.2,0.6-0.4,0.9-0.7c-0.3,0-0.4,0-0.5,0
	c0.3-0.3,0.6-0.5,0.7-0.8c-0.2,0.1-0.4,0.1-0.5,0c0.1-0.2,0.5-0.3,0.7-0.8c-0.2,0-0.4,0-0.5,0c0.1-0.4,0.3-0.6,0.4-0.9
	c-0.5,0-1.1,0-1.1,0l0.3-0.3c-0.4-0.1-0.9,0-1.2,0.1c-0.1-0.1,0-0.3,0.2-0.4c-0.4,0.1-0.7,0.1-1,0.3c-0.2-0.1,0.1-0.3,0.2-0.4
	c-0.6,0.1-0.8,0.3-1.1,0.4c-0.2-0.2,0-0.3,0.1-0.4c-0.4,0.2-0.7,0.4-0.9,0.6c-0.1-0.1-0.2-0.2-0.1-0.4c-0.3,0.2-0.6,0.4-0.7,0.6
	c-0.2-0.1-0.1-0.3-0.1-0.4c-0.3,0.3-0.5,0.5-0.8,0.8c-0.1,0-0.1-0.1-0.1-0.3c-0.8,0.8-1.9,2.6-0.3,3.4C14.7,3.8,16.3,3,18.1,2.3
	C18.1,2.4,18.1,2.3,18.1,2.3z M5.9,2.3c1.8,0.6,3.4,1.4,4.8,2.5c1.6-0.8,0.5-2.6-0.3-3.4c0,0.2-0.1,0.3-0.1,0.4
	C10,1.6,9.8,1.3,9.4,1c0,0.1,0.1,0.3-0.1,0.5C9.1,1.3,8.9,1,8.6,0.9c0.1,0.3,0,0.3-0.1,0.4C8.3,1.1,8.1,0.9,7.6,0.7
	C7.8,0.9,7.9,1,7.8,1.2C7.5,1,7.3,0.9,6.7,0.8c0.1,0.1,0.4,0.3,0.2,0.5C6.6,1.1,6.3,1,5.9,1c0.2,0.1,0.3,0.3,0.2,0.4
	C5.7,1.2,5.3,1.1,4.8,1.2l0.3,0.3c0,0-0.7,0-1.1,0C4.2,1.8,4.3,2,4.4,2.4c0,0-0.3,0-0.5,0C4.2,2.8,4.5,3,4.6,3.2
	c-0.1,0.1-0.3,0.1-0.5,0C4.3,3.5,4.6,3.7,4.9,4C4.8,4,4.7,4,4.4,4c0.2,0.3,0.5,0.5,0.9,0.7C5.2,4.8,5,4.8,4.8,4.8
	c0.3,0.3,0.7,0.5,1.1,0.7C5.7,5.6,5.5,5.6,5.4,5.6C5.7,5.8,6.1,5.9,6.5,6C6.5,6.2,6.4,6.2,6.2,6.2c0.4,0.3,1.1,0.1,1.3,0.3
	c0,0.1-0.2,0.2-0.3,0.3c0.7,0,2.7,0,3.1-1.5C9.5,4.4,8.1,3.5,5.9,2.3C5.8,2.3,5.9,2.3,5.9,2.3z M7.6,0.1c0.2,0,0.4,0.1,0.7,0.2
	c0.5-0.2,0.6,0.1,0.9,0.2c0.6-0.1,0.8,0.1,1,0.4l0.3,0c0.9,0.5,1.3,1.5,1.5,2.1c0.2-0.5,0.6-1.6,1.5-2.1l0.3,0
	c0.3-0.3,0.5-0.5,1-0.4c0.3-0.1,0.4-0.3,0.9-0.2c0.3-0.1,0.6-0.4,1.1,0c0.4-0.1,0.7-0.2,1,0.1c0.5-0.1,0.7,0.1,0.8,0.2
	c0.1,0,0.8-0.1,1.1,0.4c0.8-0.1,1.1,0.5,0.8,1c0.2,0.3,0.3,0.5,0,1c0.1,0.3,0.1,0.6-0.3,0.9c0.1,0.4-0.1,0.6-0.4,0.8
	c0.1,0.5-0.5,0.8-0.6,0.9c-0.1,0.3-0.2,0.6-0.8,0.7c-0.1,0.4-0.5,0.5-0.8,0.6c1.2,0.7,2.2,1.6,2.2,3.7l0.2,0.3
	c1.3,0.8,2.6,3.4,0.7,5.5c-0.1,0.7-0.3,1.1-0.5,1.6c-0.3,2.1-2.1,3.1-2.6,3.2c-0.7,0.5-1.4,1-2.4,1.4c-0.9,1-2,1.3-3,1.3H12
	c-1,0-2.1-0.4-3-1.3c-1-0.3-1.8-0.8-2.4-1.4c-0.5-0.1-2.3-1.1-2.6-3.2c-0.2-0.5-0.4-1-0.5-1.7c-1.9-2.1-0.7-4.7,0.7-5.5l0.2-0.3
	c0-2.2,1-3.1,2.2-3.7C6.1,6.8,5.7,6.7,5.6,6.3C5,6.1,4.9,5.8,4.8,5.5C4.7,5.4,4.2,5.1,4.2,4.6C3.9,4.4,3.7,4.1,3.8,3.7
	C3.5,3.4,3.4,3.1,3.6,2.8c-0.4-0.5-0.2-0.7,0-1c-0.3-0.5,0-1.1,0.8-1c0.3-0.5,1-0.4,1.1-0.4c0.1-0.2,0.3-0.3,0.8-0.2
	C6.5,0,6.9,0,7.3,0.2C7.4,0,7.5,0,7.7,0L7.6,0.1z"/>
</svg>
