<?xml version="1.0" encoding="utf-8"?>
<!-- Generator: Adobe Illustrator 24.1.2, SVG Export Plug-In . SVG Version: 6.00 Build 0)  -->
<svg version="1.1" id="Layer_1" xmlns="http://www.w3.org/2000/svg" xmlns:xlink="http://www.w3.org/1999/xlink" x="0px" y="0px"
	 viewBox="0 0 309.2 309.2" style="enable-background:new 0 0 309.2 309.2;" xml:space="preserve">
<style type="text/css">
	.st0{fill:#0071BC;}
</style>
<g>
	<path class="st0" d="M9,264.4H3.6v-23.7H9l9.5,14.8l0,0v-14.8h5.4v23.7h-5.4L9,249.6l0,0V264.4z"/>
	<path class="st0" d="M65.5,245.3h-8.2v4.6h7.8v4.8h-7.8v4.8h8.2v4.8H51.9v-23.7h13.6V245.3z"/>
	<path class="st0" d="M91.5,240.6h16.7v4.8h-5.6v18.9h-5.4v-18.9h-5.6v-4.8H91.5z"/>
	<path class="st0" d="M149.2,251.1l-3.8,13.3h-6l-6.7-23.7h5.9l4,16.4h0.1l4.3-16.4h4l4.3,16.4h0.4l4-16.4h6l-6.7,23.7h-6
		L149.2,251.1z"/>
	<path class="st0" d="M201.5,240.2c6.6,0,12,5.4,12,12.2c0,7-5.1,12.3-12,12.3c-7.1,0-12-5.4-12-12.3
		C189.5,245.5,194.9,240.2,201.5,240.2z M201.5,259.5c4.3,0,6.1-3.5,6.1-7.1c0-3.4-2-7.1-6.1-7.1c-4.2,0-6.1,3.5-6.1,7.1
		C195.4,256,197.1,259.5,201.5,259.5z"/>
	<path class="st0" d="M248.8,240.6c4.4,0,7.8,2.4,7.8,7.1c0,3.5-2,6-4.9,6.8l8.2,9.9h-6.8l-7.2-9.4v9.4h-5.4v-23.7L248.8,240.6
		L248.8,240.6z M246.3,251.2c2.1,0,4.4-0.1,4.4-3.2s-2.4-3.2-4.4-3.2h-0.6v6.2h0.6V251.2z"/>
	<path class="st0" d="M299.5,264.4l-8.8-10.1v10.1h-5.4v-23.7h5.4v9.8l8.2-9.8h6.6l-9.7,11.2l11,12.5H299.5L299.5,264.4z"/>
</g>
<path class="st0" d="M280.1,136.6c0.7,8.6-2,16.7-7.5,22.9c-5.9,6.6-14.7,10.2-24.6,10.2H33.7l0,0c-0.1,0-0.2,0-0.3,0h-0.1h-0.2l0,0
	c-8.7-0.1-16.9-3.5-23-9.6c-6.5-6.4-10-15-10.1-24.1l0,0c0-16.9,11.5-30.6,27.2-33.2c2.1-14.1,14.4-25.6,29.6-28
	c0.9-5.6,3.6-11,7.9-15.4c6.2-6.4,14.6-10,23.2-10c11.1,0,20.8,6,26,15c6.1-21.8,26.1-37.8,49.8-37.8c25.9,0,47.5,19.2,51.1,44.2
	c13-9.7,30.3-8.8,43.3,3.4l-1.4-1.2c10.4,8.4,14,19.8,13.5,29.4c-0.3,5.7-2.2,10.7-5.6,14.8c3.3,1.1,6,3,8.6,5.6
	c3.6,3.6,6.1,8.1,6.8,13.1l0,0c0,0.2,0,0.4,0,0.6C280.1,136.3,280.1,136.4,280.1,136.6z M296.2,55.9c-7.6-10.3-18.9-17.9-31.3-21.1
	c-2.8-0.6-5.7,1.3-6.3,4c-1.1,2.8,0.7,6.4,3.7,7c12.5,3.3,23.3,12.1,29,23.7c4.7,9.5,5.9,20.7,3.3,31c-0.7,2.9,1.4,6,4.4,6.4
	c2.7,0.8,5.7-0.8,6.6-3.4C309.7,87.4,306.2,69.3,296.2,55.9z M260.5,54.3c-4.3-0.8-7.6,4.5-5.7,8.2c0.7,1.6,2.3,2.7,4,3.1
	c6.5,1.7,12.2,6.2,15.2,12.2c2.7,5.3,3.3,11.5,1.8,17.2c-0.8,2.9,1.3,6.1,4.3,6.6c2.7,0.8,5.9-0.8,6.7-3.6
	c2.8-10.2,0.7-21.6-5.5-30.1C276.3,61.1,268.8,55.9,260.5,54.3z"/>
<g>
	<path class="st0" d="M0.1,187.5h27.7v7.9h-9.4v31.5h-9v-31.5H0L0.1,187.5L0.1,187.5z"/>
	<path class="st0" d="M42,227h-9v-39.5h9v15.8h12.7v-15.8h9V227h-9v-15.9H42C42,211.1,42,227,42,227z"/>
	<path class="st0" d="M93.9,195.5H80.4v7.8h13v7.9h-13v7.9H94v7.9H71.3v-39.5h22.6V195.5L93.9,195.5z"/>
	<path class="st0" d="M111.2,187.5h27.7v7.9h-9.4v31.5h-9v-31.5h-9.4L111.2,187.5L111.2,187.5z"/>
	<path class="st0" d="M153.1,227h-9v-39.5h9v15.8h12.7v-15.8h9V227h-9v-15.9h-12.7V227z"/>
	<path class="st0" d="M191.5,227h-9v-39.5h9V227z"/>
	<path class="st0" d="M208.1,227h-9v-39.5h9l15.6,24.4h0.1v-24.4h9V227h-9l-15.6-24.4h-0.1L208.1,227L208.1,227z"/>
	<path class="st0" d="M276.1,213.4c-2.2,10-10.5,14.3-18.2,14.3c-10.6,0-19.2-9.2-19.2-20.4c0-11.4,8.2-20.4,19.2-20.4
		c7,0,11.7,2.6,15.2,6.7l-5.9,6.5c-2.3-3.7-5.3-5-8.8-5c-5.5,0-10,5.5-10,12.3c0,6.7,4.5,12.1,10,12.1c4.3,0,8.6-2.8,8.6-7.6h-9v-7
		h18.2v8.5H276.1z"/>
	<path class="st0" d="M307.9,190.6l-3.7,7.2c0,0-3.9-2.7-7.9-2.7c-3.1,0-4.6,1.3-4.6,3.5s3.8,3.8,8.2,5.7c4.4,1.8,9.3,5.6,9.3,10.8
		c0,9.4-7.2,12.7-14.9,12.7c-9.3,0-14.8-5.3-14.8-5.3l4.5-7.6c0,0,5.3,4.4,9.7,4.4c2,0,5.7-0.2,5.7-3.9c0-2.8-4.2-4.2-8.9-6.5
		c-4.8-2.3-7.5-6-7.5-10.1c0-7.3,6.5-12.1,12.8-12.1C302.8,186.8,307.9,190.6,307.9,190.6z"/>
</g>
</svg>
